<svg version="1.1" xmlns="http://www.w3.org/2000/svg"
  viewBox="0 0 734.6492831859573 252.55119915485704" width="1469.2985663719146"
  height="505.1023983097141">
  <!-- svg-source:excalidraw -->

  <defs>
    <style class="style-fonts">
      @font-face {
      font-family: "Virgil";
      src: url("https://excalidraw.com/Virgil.woff2");
      }
      @font-face {
      font-family: "Cascadia";
      src: url("https://excalidraw.com/Cascadia.woff2");
      }
    </style>
  </defs>
  <g transform="translate(17.479914873162215 201.16737384915598) rotate(0 19 10)">
    <text x="0" y="14" font-family="Virgil, Segoe UI Emoji" font-size="16px" fill="#000000"
      text-anchor="start" style="white-space: pre;" direction="ltr">User</text>
  </g>
  <g stroke-linecap="round">
    <g
      transform="translate(11.021283289045186 190.06860774019412) rotate(0 28.06695300222441 -24.139687871041843)"
      fill-rule="evenodd">
      <path
        d="M-0.93 1.8 L3.32 -24.14 L7.75 -32.59 L16.49 -42.56 L26.63 -50.12 L30.78 -48.96 L42.92 -41.4 L55.67 -20.31 L56.71 -10.08 L55.72 -2.32 L44.81 -0.81 L-1.52 0.76"
        stroke="none" stroke-width="0" fill="#868e96" fill-rule="evenodd"></path>
      <path
        d="M-1.02 0.03 C0.13 -5.07, 1.41 -23.72, 6.01 -31.79 C10.62 -39.85, 20.04 -47.58, 26.6 -48.34 C33.17 -49.11, 40.72 -43.86, 45.4 -36.39 C50.08 -28.92, 62.37 -9.54, 54.69 -3.52 C47.02 2.5, 8.66 -0.87, -0.64 -0.27 M0.64 -0.99 C1.71 -6.38, 0.78 -26.09, 5.03 -33.76 C9.27 -41.43, 19.4 -46.67, 26.11 -47 C32.82 -47.33, 40.74 -43.01, 45.29 -35.72 C49.84 -28.42, 60.88 -8.94, 53.4 -3.23 C45.93 2.48, 9.5 -1.78, 0.43 -1.45"
        stroke="#000000" stroke-width="1" fill="none"></path>
    </g>
  </g>
  <mask></mask>
  <g stroke-linecap="round"
    transform="translate(24.934326767307084 116.43495510281139) rotate(0 13.913043478260988 12.173913043478308)">
    <path
      d="M7.09 1.49 C9.5 0.35, 13.06 0.57, 15.86 1.16 C18.65 1.74, 21.74 3.2, 23.86 4.99 C25.99 6.78, 28.59 9.29, 28.58 11.88 C28.58 14.48, 26.1 18.58, 23.85 20.56 C21.6 22.55, 17.88 23.47, 15.1 23.77 C12.31 24.07, 9.5 23.54, 7.13 22.35 C4.77 21.16, 1.76 18.94, 0.89 16.6 C0.02 14.27, 0.37 10.95, 1.93 8.33 C3.49 5.72, 8.56 2.2, 10.26 0.93 C11.96 -0.35, 12.25 0.6, 12.11 0.67 M19.12 2.06 C21.63 2.55, 24.55 3.63, 25.77 5.59 C27 7.54, 27.22 10.86, 26.46 13.78 C25.69 16.69, 23.65 21.32, 21.19 23.07 C18.74 24.82, 14.59 24.8, 11.74 24.29 C8.9 23.77, 5.87 21.72, 4.12 19.99 C2.37 18.25, 1.65 16.39, 1.26 13.88 C0.87 11.37, 0.54 6.98, 1.77 4.94 C3 2.9, 5.87 2.46, 8.61 1.64 C11.36 0.82, 16.54 -0.04, 18.23 0.02 C19.93 0.08, 18.56 1.89, 18.78 1.99"
      stroke="none" stroke-width="0" fill="#868e96"></path>
    <path
      d="M14.97 -0.6 C17.78 -0.5, 22.28 1.7, 24.33 3.67 C26.38 5.65, 27.3 8.62, 27.27 11.26 C27.24 13.9, 25.93 17.25, 24.16 19.52 C22.38 21.8, 19.4 24.31, 16.64 24.92 C13.88 25.53, 10.04 24.55, 7.59 23.18 C5.15 21.81, 3.02 19.1, 1.96 16.72 C0.9 14.34, 0.46 11.51, 1.22 8.91 C1.99 6.31, 3.91 2.66, 6.56 1.13 C9.2 -0.39, 14.92 -0.2, 17.09 -0.25 C19.26 -0.3, 19.5 0.66, 19.56 0.84 M13.78 0.71 C16.58 0.04, 19.47 -0.22, 21.84 1.23 C24.21 2.67, 27.39 6.79, 28 9.38 C28.62 11.97, 27.19 14.42, 25.53 16.78 C23.86 19.15, 20.46 22.52, 18.01 23.58 C15.56 24.63, 13.61 23.87, 10.82 23.1 C8.03 22.33, 2.87 20.98, 1.25 18.97 C-0.37 16.97, 0.36 13.52, 1.09 11.07 C1.81 8.62, 3.83 6.36, 5.59 4.27 C7.36 2.19, 10.38 -0.91, 11.67 -1.44 C12.96 -1.98, 12.85 0.55, 13.32 1.08"
      stroke="#000000" stroke-width="1" fill="none"></path>
  </g>
  <g stroke-linecap="round"
    transform="translate(196.4731848663464 82.55119915485704) rotate(0 50 80)">
    <path
      d="M6 6.54 C6 6.54, 6 6.54, 6 6.54 M6 6.54 C6 6.54, 6 6.54, 6 6.54 M6.39 12.18 C8.42 8.68, 13.08 5.91, 14.92 2.37 M6.39 12.18 C9.21 9.25, 11.15 5.4, 14.92 2.37 M3.51 21.6 C11.4 15.14, 15.39 7.63, 21.22 1.22 M3.51 21.6 C10.06 14.31, 16.37 6.35, 21.22 1.22 M3.25 28 C7.66 22.35, 13.38 18.17, 26.21 1.58 M3.25 28 C11.32 18.34, 19.72 7.78, 26.21 1.58 M3.64 33.64 C13.55 19.51, 23.44 7.82, 31.85 1.19 M3.64 33.64 C15.28 21.09, 25.78 8.83, 31.85 1.19 M3.38 40.04 C16.45 28.35, 24.77 16, 36.84 1.55 M3.38 40.04 C10.27 31.08, 17.51 21.85, 36.84 1.55 M3.12 46.44 C12.23 34.46, 24.6 21.75, 42.48 1.15 M3.12 46.44 C18.93 29.98, 33.48 10.88, 42.48 1.15 M3.51 52.08 C15.83 38.33, 28.48 21.96, 47.47 1.51 M3.51 52.08 C19.29 33.98, 35.15 17.25, 47.47 1.51 M3.25 58.48 C15.32 41.46, 28.25 28.6, 53.11 1.12 M3.25 58.48 C21.44 35.97, 40.46 15.07, 53.11 1.12 M2.99 64.87 C23.39 43.83, 40.76 20.1, 58.1 1.48 M2.99 64.87 C19.51 44.71, 37.48 23.95, 58.1 1.48 M3.38 70.52 C18.39 53.64, 32.23 36.51, 63.09 1.84 M3.38 70.52 C17.19 53.39, 31.39 38.06, 63.09 1.84 M3.12 76.92 C16.92 60.69, 31.46 45.11, 68.73 1.44 M3.12 76.92 C27.64 51.07, 50.43 24.82, 68.73 1.44 M2.86 83.31 C20.1 63.08, 38.3 38.57, 73.72 1.8 M2.86 83.31 C21.49 60.41, 42.25 40.5, 73.72 1.8 M3.26 88.96 C28.61 61.12, 51.19 35.65, 79.36 1.41 M3.26 88.96 C30.91 57.06, 59.01 26.64, 79.36 1.41 M2.99 95.35 C26.53 70.39, 48.09 44.34, 83.69 2.52 M2.99 95.35 C30.37 63.17, 59 31.27, 83.69 2.52 M3.39 101 C25.33 75.55, 44.43 52.36, 87.36 4.39 M3.39 101 C28.47 72.14, 54.19 41.33, 87.36 4.39 M3.13 107.39 C31.44 76.5, 59.86 42.77, 92.35 4.75 M3.13 107.39 C27.62 77.17, 54.88 48.29, 92.35 4.75 M2.87 113.79 C24.39 88.34, 50.46 60.37, 95.37 7.38 M2.87 113.79 C25.79 86.87, 48.32 59.71, 95.37 7.38 M3.26 119.44 C30.38 84.02, 60.25 50.5, 97.08 11.51 M3.26 119.44 C33.16 85.67, 62.2 51.71, 97.08 11.51 M3 125.83 C33.76 92.42, 59.6 58.39, 99.44 14.89 M3 125.83 C31.88 92.11, 62.31 56.99, 99.44 14.89 M0.11 135.25 C24.36 108.14, 51.1 79, 100.49 19.78 M0.11 135.25 C19.64 111.27, 40.04 88.3, 100.49 19.78 M1.16 140.14 C33.27 104.08, 66.26 65.76, 100.88 25.42 M1.16 140.14 C27.82 109.68, 55.5 79.22, 100.88 25.42 M1.56 145.78 C22.87 120.43, 42.2 98.67, 100.62 31.82 M1.56 145.78 C32.72 110.19, 62.18 77.11, 100.62 31.82 M4.58 148.41 C35.94 113.89, 63.76 77.81, 100.36 38.22 M4.58 148.41 C43.39 102.93, 80.79 60.89, 100.36 38.22 M6.94 151.78 C36.7 117.47, 68.28 81.01, 100.76 43.86 M6.94 151.78 C39.54 114.9, 72.24 77.9, 100.76 43.86 M8.65 155.92 C39.28 123.59, 68.27 88.82, 100.5 50.26 M8.65 155.92 C29.69 133.37, 49.54 109.39, 100.5 50.26 M11.67 158.54 C35.54 131.38, 60.45 105.64, 100.89 55.9 M11.67 158.54 C29.91 137.18, 48.96 116.37, 100.89 55.9 M16 159.66 C42.46 129.62, 68.71 102.93, 100.63 62.3 M16 159.66 C46.32 124.68, 76.75 90.34, 100.63 62.3 M20.33 160.77 C44.09 132.7, 63.26 108.37, 100.37 68.7 M20.33 160.77 C49.25 126.91, 80.91 90.99, 100.37 68.7 M25.97 160.38 C46.41 137.41, 66.75 112.92, 100.76 74.34 M25.97 160.38 C46.42 136.66, 65.89 113.98, 100.76 74.34 M30.96 160.74 C43.76 144.58, 60.46 128.38, 100.5 80.74 M30.96 160.74 C50.47 138.08, 70.49 117.05, 100.5 80.74 M35.94 161.1 C56.44 137.01, 75.19 112.74, 100.24 87.14 M35.94 161.1 C56.37 137.93, 76.56 115, 100.24 87.14 M41.59 160.7 C56.46 142.8, 74.6 122.95, 100.63 92.78 M41.59 160.7 C61.1 137.99, 81.27 116.63, 100.63 92.78 M46.57 161.06 C59.31 145.69, 72.27 134.83, 100.37 99.18 M46.57 161.06 C62.97 140.89, 80.74 120.43, 100.37 99.18 M52.22 160.67 C65.46 147.65, 77.85 134.17, 100.77 104.82 M52.22 160.67 C67.54 143.13, 82.67 125.22, 100.77 104.82 M57.2 161.03 C70.42 148.7, 80.78 135.28, 100.5 111.22 M57.2 161.03 C73.04 142.19, 88.44 124.64, 100.5 111.22 M62.85 160.63 C73.64 148.2, 86.83 132.46, 100.24 117.62 M62.85 160.63 C77.15 144.22, 91.1 127.08, 100.24 117.62 M67.83 160.99 C78.35 146.72, 89.36 136.1, 100.64 123.26 M67.83 160.99 C76.3 151.64, 82.87 143.11, 100.64 123.26 M72.82 161.35 C81.11 154.87, 87.57 148.26, 100.38 129.66 M72.82 161.35 C80.24 153.82, 87.63 145.18, 100.38 129.66 M77.15 162.47 C85.89 153.34, 91.15 145.88, 100.12 136.05 M77.15 162.47 C85.47 153.38, 94.31 143.78, 100.12 136.05 M86.08 158.3 C88.91 154.8, 95.4 149.5, 100.51 141.7 M86.08 158.3 C89.6 154.27, 93.87 149.35, 100.51 141.7"
      stroke="#ced4da" stroke-width="0.5" fill="none"></path>
    <path
      d="M25 0 M25 0 C37.42 0, 45.5 0.05, 75 0 M25 0 C36.29 -0.47, 49.94 -0.35, 75 0 M75 0 C90.43 -0.25, 101.78 10.13, 100 25 M75 0 C93.09 0.04, 102.18 6.51, 100 25 M100 25 C97.79 59.11, 100.97 88.23, 100 135 M100 25 C100.76 50.67, 99.46 76.09, 100 135 M100 135 C100.85 150.22, 90.67 158.58, 75 160 M100 135 C98.07 152.89, 92.24 161.95, 75 160 M75 160 C60.14 161.47, 42.26 160.63, 25 160 M75 160 C63.42 159.91, 49.96 159.84, 25 160 M25 160 C9.93 160.37, -0.93 150.45, 0 135 M25 160 C6.3 159.62, -0.45 150.03, 0 135 M0 135 C-0.13 109.71, 2.33 86.5, 0 25 M0 135 C0.11 112.19, 0.05 90.39, 0 25 M0 25 C-1.84 6.66, 8.55 1.62, 25 0 M0 25 C1.08 6.63, 10.11 0.65, 25 0"
      stroke="#000000" stroke-width="1" fill="none"></path>
  </g>
  <g stroke-linecap="round"
    transform="translate(206.4731848663464 92.55119915485704) rotate(0 40 60)">
    <path d="M1.19 -1.25 L81.82 1.75 L78.71 121.64 L1.97 119.98" stroke="none" stroke-width="0"
      fill="#ffffff"></path>
    <path
      d="M1.06 -1.08 C27.72 2, 57.25 0.2, 78.71 1.98 M-0.64 0.46 C21.01 -0.43, 44.1 0.27, 80.12 -0.33 M78.16 -1.95 C81 36.62, 80.29 78.83, 80.44 119.69 M79.77 -0.07 C80.91 34.76, 80.38 69.02, 79.65 120.9 M81.07 121.44 C55.78 120.54, 33.27 120.68, -1.61 118.91 M79.66 119.01 C49.31 119.17, 20.72 119.05, -0.55 120.87 M0.39 118.01 C0.67 93.74, -0.16 63.12, 0.85 -1.56 M-0.19 119.51 C-1.66 76.04, -0.33 32.51, -0.46 -0.16"
      stroke="#000000" stroke-width="1" fill="none"></path>
  </g>
  <g stroke-linecap="round"
    transform="translate(236.4731848663464 222.55119915485704) rotate(0 10 10)">
    <path
      d="M2.78 2.42 C2.78 2.42, 2.78 2.42, 2.78 2.42 M2.78 2.42 C2.78 2.42, 2.78 2.42, 2.78 2.42 M1.8 9.86 C2.83 7.68, 6.35 4.62, 10.91 1.65 M1.2 10.06 C3.06 8.08, 4.63 5.54, 9.9 0.41 M1.75 15.35 C4.07 13.03, 8.65 8.3, 15.08 2.93 M2.94 15.85 C4.51 12.43, 7.43 7.78, 13.83 1.1 M6.32 19.31 C8.99 12.42, 14.8 6.91, 20.21 0.8 M4.87 18.73 C9.18 12.87, 14.46 6.98, 19.04 2.07 M7.05 21.4 C11.77 14.87, 16.15 10.78, 18.36 8.45 M7.62 20.1 C11.82 17.33, 14.56 14.16, 18.46 9.05 M2.17 15.79 C2.17 15.79, 2.17 15.79, 2.17 15.79 M2.17 15.79 C2.17 15.79, 2.17 15.79, 2.17 15.79 M11.47 17.76 C8.62 16.57, 6.08 14.25, 1.21 10.51 M10.29 17.74 C7.72 14.69, 3.93 12.7, 0.87 9.83 M15.87 18.06 C10.68 13.61, 8.97 10.28, 0.48 5.35 M16.05 17.83 C10.39 12.71, 6.41 9.11, 1.49 4.98 M18.34 12.29 C11.34 9.21, 8.7 2.92, 3.13 3.2 M17.88 13.21 C15.17 11.72, 11.04 7.3, 3.1 0.71 M21.04 12.23 C18.25 8.52, 15.13 5.42, 7.72 -1.98 M20.6 11.03 C16 5.71, 9.73 1.88, 7.04 -1.18 M19.87 5.63 C19.05 2.84, 14.62 1.69, 10.55 -3.76 M20.77 5.4 C18.19 3.08, 16.45 1.09, 11.1 -3.43"
      stroke="#868e96" stroke-width="0.5" fill="none"></path>
    <path
      d="M8.57 -0.53 C10.57 -1.06, 14.54 -0.14, 16.21 1.21 C17.87 2.57, 18.16 5.42, 18.57 7.57 C18.98 9.72, 19.46 12.22, 18.67 14.12 C17.88 16.01, 15.57 17.86, 13.83 18.96 C12.08 20.05, 10.11 21.19, 8.19 20.68 C6.26 20.17, 3.63 17.69, 2.3 15.9 C0.97 14.11, 0.14 12.18, 0.22 9.94 C0.29 7.7, 1.36 4.05, 2.74 2.46 C4.12 0.87, 7.37 0.77, 8.49 0.4 C9.61 0.03, 9.12 0.1, 9.44 0.24 M8.09 -0.31 C10.11 -0.73, 13.84 0.85, 15.71 2.05 C17.58 3.25, 19.02 4.95, 19.33 6.91 C19.64 8.87, 18.2 11.81, 17.55 13.8 C16.91 15.79, 17.2 17.8, 15.48 18.86 C13.76 19.93, 9.4 20.55, 7.24 20.19 C5.09 19.84, 3.94 18.56, 2.55 16.73 C1.16 14.9, -1 11.47, -1.09 9.21 C-1.18 6.94, 0.49 4.81, 2.01 3.14 C3.52 1.48, 6.63 -0.28, 8.03 -0.78 C9.42 -1.29, 10.18 -0.1, 10.37 0.12"
      stroke="#000000" stroke-width="1" fill="none"></path>
  </g>
  <g stroke-linecap="round">
    <g
      transform="translate(68.61550696372478 116.73735534850402) rotate(0 60.809608389304685 -15.712942910356958)">
      <path
        d="M-0.71 1.02 C7.15 -4.51, 26.97 -31.76, 47.48 -32.44 C67.98 -33.11, 109.91 -7.9, 122.33 -3.02 M1.11 0.52 C8.79 -4.89, 26.34 -30, 46.5 -30.94 C66.66 -31.88, 109.38 -9.99, 122.07 -5.15"
        stroke="#087f5b" stroke-width="1" fill="none"></path>
    </g>
    <g
      transform="translate(68.61550696372478 116.73735534850402) rotate(0 60.809608389304685 -15.712942910356958)">
      <path
        d="M93.83 -7.07 C101.72 -4.62, 112.23 -4.52, 122.55 -4.87 M91.48 -7.14 C100.41 -7.12, 109.08 -5.24, 121.46 -5.52"
        stroke="#087f5b" stroke-width="1" fill="none"></path>
    </g>
    <g
      transform="translate(68.61550696372478 116.73735534850402) rotate(0 60.809608389304685 -15.712942910356958)">
      <path
        d="M102.03 -25.89 C107.38 -17.38, 115.24 -11.18, 122.55 -4.87 M99.67 -25.95 C106.03 -20.28, 112.26 -12.78, 121.46 -5.52"
        stroke="#087f5b" stroke-width="1" fill="none"></path>
    </g>
  </g>
  <mask></mask>
  <g stroke-linecap="round">
    <g
      transform="translate(186.1530295049929 193.8898036769823) rotate(0 -56.53730110919378 2.9689558933345666)">
      <path
        d="M0.22 -0.56 C-8.88 3.22, -36.28 26.72, -55.05 23.64 C-73.83 20.57, -102.75 -11.77, -112.42 -19.01 M-1.13 1.76 C-9.79 5.57, -34.03 27.88, -52.73 24.62 C-71.42 21.36, -103.2 -10.51, -113.29 -17.81"
        stroke="#087f5b" stroke-width="1" fill="none"></path>
    </g>
    <g
      transform="translate(186.1530295049929 193.8898036769823) rotate(0 -56.53730110919378 2.9689558933345666)">
      <path
        d="M-86.04 -8.74 C-94.32 -10.49, -100.31 -14.27, -114.98 -19.31 M-84.36 -8.06 C-95.81 -10.96, -104.22 -14.38, -113.85 -17.37"
        stroke="#087f5b" stroke-width="1" fill="none"></path>
    </g>
    <g
      transform="translate(186.1530295049929 193.8898036769823) rotate(0 -56.53730110919378 2.9689558933345666)">
      <path
        d="M-99.25 6.96 C-104.21 1.09, -106.74 -6.79, -114.98 -19.31 M-97.57 7.64 C-104.36 -0.6, -108.19 -9.47, -113.85 -17.37"
        stroke="#087f5b" stroke-width="1" fill="none"></path>
    </g>
  </g>
  <mask></mask>
  <g stroke-linecap="round">
    <g
      transform="translate(303.2910514220407 154.6455256911313) rotate(0 101.18953021242942 -29.62936857717378)">
      <path d="M-0.83 0 C32.98 -9.87, 169.23 -49.18, 203.21 -59.26" stroke="#495057"
        stroke-width="1.5" fill="none" stroke-dasharray="8 9"></path>
    </g>
    <g
      transform="translate(303.2910514220407 154.6455256911313) rotate(0 101.18953021242942 -29.62936857717378)">
      <path d="M179.03 -42.49 C187.81 -48.4, 193.72 -54.11, 203.52 -57.91" stroke="#495057"
        stroke-width="1.5" fill="none"></path>
    </g>
    <g
      transform="translate(303.2910514220407 154.6455256911313) rotate(0 101.18953021242942 -29.62936857717378)">
      <path d="M173.28 -62.19 C183.93 -61.62, 191.72 -60.89, 203.52 -57.91" stroke="#495057"
        stroke-width="1.5" fill="none"></path>
    </g>
  </g>
  <mask></mask>
  <g stroke-linecap="round">
    <g
      transform="translate(609.5133546946822 112.39337203583972) rotate(0 -2.721679052915988 -45.613569746012445)">
      <path
        d="M0 0 C-1.45 0.86, -5.35 3.86, -8.73 5.18 C-12.11 6.5, -16.17 7.53, -20.29 7.94 C-24.42 8.35, -29.46 8.29, -33.46 7.64 C-37.46 6.99, -40.86 5.86, -44.31 4.04 C-47.76 2.23, -51.71 -0.63, -54.16 -3.26 C-56.61 -5.9, -57.86 -10.67, -59.01 -11.76 C-60.15 -12.85, -59.5 -10.6, -61.02 -9.82 C-62.55 -9.03, -65.65 -7.55, -68.17 -7.07 C-70.69 -6.59, -73.4 -6.54, -76.16 -6.95 C-78.92 -7.37, -82.55 -8.63, -84.74 -9.58 C-86.92 -10.54, -87.93 -11.4, -89.26 -12.69 C-90.59 -13.98, -92.04 -16.1, -92.74 -17.31 C-93.44 -18.53, -93.44 -19.11, -93.48 -20 C-93.51 -20.88, -92.6 -22.67, -92.94 -22.62 C-93.28 -22.58, -93.59 -20.17, -95.51 -19.72 C-97.43 -19.28, -101.31 -19.2, -104.48 -19.95 C-107.65 -20.69, -112.07 -22.46, -114.54 -24.18 C-117 -25.91, -118.29 -28.21, -119.29 -30.29 C-120.3 -32.37, -120.54 -34.72, -120.58 -36.64 C-120.61 -38.56, -120.34 -40.25, -119.49 -41.82 C-118.65 -43.39, -116.8 -44.83, -115.52 -46.07 C-114.23 -47.3, -113.41 -48.33, -111.78 -49.23 C-110.15 -50.14, -107.84 -51.05, -105.73 -51.5 C-103.61 -51.94, -100.81 -52.07, -99.09 -51.89 C-97.38 -51.7, -95.7 -50.13, -95.46 -50.4 C-95.23 -50.67, -97.53 -51.78, -97.69 -53.52 C-97.84 -55.26, -97.26 -58.38, -96.38 -60.82 C-95.5 -63.26, -94.1 -65.79, -92.41 -68.16 C-90.71 -70.52, -88.54 -73.22, -86.2 -75.03 C-83.86 -76.84, -81.03 -78.06, -78.37 -79.02 C-75.72 -79.98, -73.39 -80.48, -70.26 -80.8 C-67.12 -81.12, -62.66 -81.18, -59.57 -80.94 C-56.48 -80.71, -54.19 -80.18, -51.72 -79.4 C-49.25 -78.62, -46.41 -77.32, -44.77 -76.25 C-43.12 -75.18, -42.34 -72.97, -41.85 -72.95 C-41.36 -72.94, -42.39 -74.7, -41.84 -76.18 C-41.3 -77.65, -40.22 -79.8, -38.58 -81.79 C-36.95 -83.78, -34.21 -86.23, -32.04 -88.12 C-29.86 -90.01, -27.99 -91.55, -25.55 -93.12 C-23.1 -94.68, -20.23 -96.29, -17.39 -97.51 C-14.54 -98.73, -12.19 -99.63, -8.49 -100.44 C-4.8 -101.25, 0.43 -102.29, 4.78 -102.38 C9.13 -102.48, 13.4 -101.81, 17.62 -101.03 C21.85 -100.25, 26.21 -99.24, 30.12 -97.7 C34.04 -96.17, 38.36 -93.5, 41.09 -91.81 C43.82 -90.13, 44.79 -89.09, 46.49 -87.6 C48.2 -86.12, 50.3 -84.42, 51.31 -82.93 C52.31 -81.43, 51.88 -79.01, 52.51 -78.63 C53.15 -78.25, 53.4 -80.05, 55.12 -80.64 C56.85 -81.22, 60.01 -82, 62.85 -82.15 C65.7 -82.3, 69.28 -82.18, 72.18 -81.54 C75.08 -80.89, 77.64 -79.73, 80.24 -78.29 C82.84 -76.84, 85.93 -74.95, 87.77 -72.85 C89.6 -70.75, 90.49 -67.67, 91.27 -65.69 C92.04 -63.72, 92.41 -62.94, 92.43 -61.01 C92.44 -59.07, 91.21 -54.91, 91.36 -54.08 C91.5 -53.24, 92.13 -55.76, 93.31 -56.03 C94.49 -56.29, 96.31 -56.21, 98.46 -55.69 C100.6 -55.18, 103.94 -54.21, 106.2 -52.94 C108.47 -51.66, 110.57 -50.01, 112.03 -48.02 C113.5 -46.03, 114.63 -43.26, 115 -40.98 C115.37 -38.69, 114.93 -36.16, 114.26 -34.31 C113.6 -32.46, 112.03 -31.04, 111.02 -29.88 C110 -28.72, 109.16 -27.79, 108.17 -27.36 C107.17 -26.93, 104.79 -27.63, 105.03 -27.31 C105.27 -27, 108.32 -26.23, 109.59 -25.47 C110.87 -24.71, 112.15 -24.03, 112.69 -22.75 C113.24 -21.47, 113.32 -19.32, 112.86 -17.79 C112.4 -16.26, 111.05 -14.57, 109.93 -13.56 C108.8 -12.54, 107.48 -12.08, 106.1 -11.72 C104.72 -11.36, 103.03 -11.33, 101.65 -11.41 C100.26 -11.48, 99.26 -11.36, 97.82 -12.17 C96.38 -12.98, 93.57 -16.17, 93 -16.27 C92.42 -16.37, 94.49 -14.18, 94.36 -12.8 C94.24 -11.41, 92.84 -9.26, 92.26 -7.98 C91.68 -6.71, 91.92 -6.62, 90.89 -5.15 C89.86 -3.68, 87.66 -0.77, 86.09 0.86 C84.53 2.49, 84.07 3.14, 81.51 4.64 C78.95 6.14, 74.23 8.78, 70.74 9.87 C67.25 10.96, 64.12 11.15, 60.56 11.17 C57 11.18, 53.05 10.71, 49.39 9.95 C45.73 9.19, 41.37 8.09, 38.59 6.59 C35.81 5.1, 33.72 1.49, 32.69 1 C31.66 0.52, 33.54 2.7, 32.39 3.69 C31.23 4.68, 28.23 6.2, 25.76 6.94 C23.28 7.67, 20.21 8.08, 17.55 8.08 C14.89 8.07, 12.35 7.74, 9.8 6.92 C7.25 6.09, 3.89 4.27, 2.25 3.12 C0.62 1.96, 0.38 0.52, 0 0 M0 0 C-1.45 0.86, -5.35 3.86, -8.73 5.18 C-12.11 6.5, -16.17 7.53, -20.29 7.94 C-24.42 8.35, -29.46 8.29, -33.46 7.64 C-37.46 6.99, -40.86 5.86, -44.31 4.04 C-47.76 2.23, -51.71 -0.63, -54.16 -3.26 C-56.61 -5.9, -57.86 -10.67, -59.01 -11.76 C-60.15 -12.85, -59.5 -10.6, -61.02 -9.82 C-62.55 -9.03, -65.65 -7.55, -68.17 -7.07 C-70.69 -6.59, -73.4 -6.54, -76.16 -6.95 C-78.92 -7.37, -82.55 -8.63, -84.74 -9.58 C-86.92 -10.54, -87.93 -11.4, -89.26 -12.69 C-90.59 -13.98, -92.04 -16.1, -92.74 -17.31 C-93.44 -18.53, -93.44 -19.11, -93.48 -20 C-93.51 -20.88, -92.6 -22.67, -92.94 -22.62 C-93.28 -22.58, -93.59 -20.17, -95.51 -19.72 C-97.43 -19.28, -101.31 -19.2, -104.48 -19.95 C-107.65 -20.69, -112.07 -22.46, -114.54 -24.18 C-117 -25.91, -118.29 -28.21, -119.29 -30.29 C-120.3 -32.37, -120.54 -34.72, -120.58 -36.64 C-120.61 -38.56, -120.34 -40.25, -119.49 -41.82 C-118.65 -43.39, -116.8 -44.83, -115.52 -46.07 C-114.23 -47.3, -113.41 -48.33, -111.78 -49.23 C-110.15 -50.14, -107.84 -51.05, -105.73 -51.5 C-103.61 -51.94, -100.81 -52.07, -99.09 -51.89 C-97.38 -51.7, -95.7 -50.13, -95.46 -50.4 C-95.23 -50.67, -97.53 -51.78, -97.69 -53.52 C-97.84 -55.26, -97.26 -58.38, -96.38 -60.82 C-95.5 -63.26, -94.1 -65.79, -92.41 -68.16 C-90.71 -70.52, -88.54 -73.22, -86.2 -75.03 C-83.86 -76.84, -81.03 -78.06, -78.37 -79.02 C-75.72 -79.98, -73.39 -80.48, -70.26 -80.8 C-67.12 -81.12, -62.66 -81.18, -59.57 -80.94 C-56.48 -80.71, -54.19 -80.18, -51.72 -79.4 C-49.25 -78.62, -46.41 -77.32, -44.77 -76.25 C-43.12 -75.18, -42.34 -72.97, -41.85 -72.95 C-41.36 -72.94, -42.39 -74.7, -41.84 -76.18 C-41.3 -77.65, -40.22 -79.8, -38.58 -81.79 C-36.95 -83.78, -34.21 -86.23, -32.04 -88.12 C-29.86 -90.01, -27.99 -91.55, -25.55 -93.12 C-23.1 -94.68, -20.23 -96.29, -17.39 -97.51 C-14.54 -98.73, -12.19 -99.63, -8.49 -100.44 C-4.8 -101.25, 0.43 -102.29, 4.78 -102.38 C9.13 -102.48, 13.4 -101.81, 17.62 -101.03 C21.85 -100.25, 26.21 -99.24, 30.12 -97.7 C34.04 -96.17, 38.36 -93.5, 41.09 -91.81 C43.82 -90.13, 44.79 -89.09, 46.49 -87.6 C48.2 -86.12, 50.3 -84.42, 51.31 -82.93 C52.31 -81.43, 51.88 -79.01, 52.51 -78.63 C53.15 -78.25, 53.4 -80.05, 55.12 -80.64 C56.85 -81.22, 60.01 -82, 62.85 -82.15 C65.7 -82.3, 69.28 -82.18, 72.18 -81.54 C75.08 -80.89, 77.64 -79.73, 80.24 -78.29 C82.84 -76.84, 85.93 -74.95, 87.77 -72.85 C89.6 -70.75, 90.49 -67.67, 91.27 -65.69 C92.04 -63.72, 92.41 -62.94, 92.43 -61.01 C92.44 -59.07, 91.21 -54.91, 91.36 -54.08 C91.5 -53.24, 92.13 -55.76, 93.31 -56.03 C94.49 -56.29, 96.31 -56.21, 98.46 -55.69 C100.6 -55.18, 103.94 -54.21, 106.2 -52.94 C108.47 -51.66, 110.57 -50.01, 112.03 -48.02 C113.5 -46.03, 114.63 -43.26, 115 -40.98 C115.37 -38.69, 114.93 -36.16, 114.26 -34.31 C113.6 -32.46, 112.03 -31.04, 111.02 -29.88 C110 -28.72, 109.16 -27.79, 108.17 -27.36 C107.17 -26.93, 104.79 -27.63, 105.03 -27.31 C105.27 -27, 108.32 -26.23, 109.59 -25.47 C110.87 -24.71, 112.15 -24.03, 112.69 -22.75 C113.24 -21.47, 113.32 -19.32, 112.86 -17.79 C112.4 -16.26, 111.05 -14.57, 109.93 -13.56 C108.8 -12.54, 107.48 -12.08, 106.1 -11.72 C104.72 -11.36, 103.03 -11.33, 101.65 -11.41 C100.26 -11.48, 99.26 -11.36, 97.82 -12.17 C96.38 -12.98, 93.57 -16.17, 93 -16.27 C92.42 -16.37, 94.49 -14.18, 94.36 -12.8 C94.24 -11.41, 92.84 -9.26, 92.26 -7.98 C91.68 -6.71, 91.92 -6.62, 90.89 -5.15 C89.86 -3.68, 87.66 -0.77, 86.09 0.86 C84.53 2.49, 84.07 3.14, 81.51 4.64 C78.95 6.14, 74.23 8.78, 70.74 9.87 C67.25 10.96, 64.12 11.15, 60.56 11.17 C57 11.18, 53.05 10.71, 49.39 9.95 C45.73 9.19, 41.37 8.09, 38.59 6.59 C35.81 5.1, 33.72 1.49, 32.69 1 C31.66 0.52, 33.54 2.7, 32.39 3.69 C31.23 4.68, 28.23 6.2, 25.76 6.94 C23.28 7.67, 20.21 8.08, 17.55 8.08 C14.89 8.07, 12.35 7.74, 9.8 6.92 C7.25 6.09, 3.89 4.27, 2.25 3.12 C0.62 1.96, 0.38 0.52, 0 0"
        stroke="#000000" stroke-width="4" fill="none"></path>
    </g>
  </g>
  <mask></mask>
  <g transform="translate(347.0807587323475 104.09995765118128) rotate(0 36.5 10)">
    <text x="0" y="14" font-family="Virgil, Segoe UI Emoji" font-size="16px" fill="#495057"
      text-anchor="start" style="white-space: pre;" direction="ltr">lazy sync</text>
  </g>
  <g transform="translate(88.43073792502264 126.21009775383084) rotate(0 42.5 20)">
    <text x="0" y="14" font-family="Virgil, Segoe UI Emoji" font-size="16px" fill="#087f5b"
      text-anchor="start" style="white-space: pre;" direction="ltr">realtime</text>
    <text x="0" y="34" font-family="Virgil, Segoe UI Emoji" font-size="16px" fill="#087f5b"
      text-anchor="start" style="white-space: pre;" direction="ltr">interaction</text>
  </g>
  <g stroke-linecap="round">
    <g
      transform="translate(520.9740416701475 109.82129460122235) rotate(0 -108.93858734146306 30.78327422799697)">
      <path d="M0.64 -0.74 C-35.93 9.57, -181.96 51.95, -218.51 62.31" stroke="#495057"
        stroke-width="1.5" fill="none" stroke-dasharray="8 9"></path>
    </g>
    <g
      transform="translate(520.9740416701475 109.82129460122235) rotate(0 -108.93858734146306 30.78327422799697)">
      <path d="M-195.49 44.99 C-201.49 51.47, -212.06 59.27, -218.97 60.52" stroke="#495057"
        stroke-width="1.5" fill="none"></path>
    </g>
    <g
      transform="translate(520.9740416701475 109.82129460122235) rotate(0 -108.93858734146306 30.78327422799697)">
      <path d="M-189.83 64.72 C-198.01 63.83, -210.71 64.24, -218.97 60.52" stroke="#495057"
        stroke-width="1.5" fill="none"></path>
    </g>
  </g>
  <mask></mask>
</svg>