<svg version="1.1" xmlns="http://www.w3.org/2000/svg"
  viewBox="0 0 441.497001557414 382.2900566084546" width="882.994003114828"
  height="764.5801132169092">
  <!-- svg-source:excalidraw -->

  <defs>
    <style class="style-fonts">
      @font-face {
      font-family: "Virgil";
      src: url("https://excalidraw.com/Virgil.woff2");
      }
      @font-face {
      font-family: "Cascadia";
      src: url("https://excalidraw.com/Cascadia.woff2");
      }
    </style>
  </defs>
  <g transform="translate(15.367852546165068 331.8362212969364) rotate(0 19 10)">
    <text x="0" y="14" font-family="Virgil, Segoe UI Emoji" font-size="16px" fill="#000000"
      text-anchor="start" style="white-space: pre;" direction="ltr">User</text>
  </g>
  <g stroke-linecap="round">
    <g
      transform="translate(10.92004077062029 322.23336308088585) rotate(0 28.101611215485264 -24.67002155246189)"
      fill-rule="evenodd">
      <path
        d="M-1.12 -1.82 L3.24 -25.35 L5.66 -31.75 L16.23 -43.51 L24.1 -48.34 L32.04 -47.66 L42.37 -39.66 L54.13 -17.22 L55.55 -8.83 L55 -2.38 L45.4 -1.99 L0.19 -1.85"
        stroke="none" stroke-width="0" fill="#868e96" fill-rule="evenodd"></path>
      <path
        d="M-0.92 0.71 C0.03 -4.81, 0.5 -24.52, 5.18 -32.62 C9.85 -40.73, 20.23 -47.38, 27.14 -47.92 C34.06 -48.47, 42.14 -43.33, 46.68 -35.91 C51.22 -28.5, 62.23 -9.36, 54.37 -3.43 C46.5 2.5, 8.55 -1.02, -0.52 -0.34 M0.8 0.04 C2.16 -5.37, 3.05 -23.03, 7.41 -31.38 C11.77 -39.72, 20.3 -49.42, 26.93 -50.02 C33.57 -50.62, 42.91 -42.81, 47.23 -34.99 C51.56 -27.17, 60.68 -8.66, 52.91 -3.09 C45.14 2.48, 9.34 -2.02, 0.63 -1.56"
        stroke="#000000" stroke-width="1" fill="none"></path>
    </g>
  </g>
  <mask></mask>
  <g stroke-linecap="round"
    transform="translate(24.833084248881278 248.59971044350323) rotate(0 13.91304347826076 12.173913043478308)">
    <path
      d="M12.94 0.39 C15.81 -0.06, 19.38 0.2, 21.64 1.55 C23.9 2.91, 25.65 5.83, 26.51 8.54 C27.36 11.26, 27.9 15.48, 26.74 17.83 C25.59 20.19, 22.27 21.76, 19.57 22.67 C16.87 23.58, 13.37 23.97, 10.55 23.31 C7.74 22.65, 4.29 20.74, 2.68 18.73 C1.06 16.71, 0.51 13.72, 0.85 11.22 C1.2 8.72, 2.47 5.51, 4.76 3.74 C7.04 1.96, 12.66 1.13, 14.56 0.57 C16.47 0.01, 16.13 0.29, 16.19 0.37 M17.12 1.9 C19.76 2.63, 23.85 4.44, 25.62 6.47 C27.38 8.5, 28.15 11.78, 27.71 14.08 C27.26 16.37, 24.97 18.38, 22.94 20.23 C20.92 22.08, 18.52 24.99, 15.56 25.18 C12.6 25.37, 7.68 22.9, 5.16 21.37 C2.65 19.83, 0.83 18.34, 0.46 15.98 C0.08 13.62, 1.44 9.61, 2.91 7.21 C4.39 4.81, 6.69 2.62, 9.32 1.57 C11.95 0.53, 17.27 1.16, 18.72 0.95 C20.16 0.74, 17.99 0.33, 17.99 0.3"
      stroke="none" stroke-width="0" fill="#868e96"></path>
    <path
      d="M11.22 0.04 C13.79 -0.76, 17.68 0.04, 20.19 1.22 C22.7 2.39, 25.09 4.58, 26.27 7.09 C27.44 9.59, 28.11 13.86, 27.23 16.25 C26.35 18.64, 23.49 20.19, 20.98 21.45 C18.47 22.7, 15.08 23.92, 12.17 23.79 C9.27 23.66, 5.5 22.54, 3.56 20.68 C1.62 18.81, 0.83 15.25, 0.53 12.63 C0.23 10, -0.14 6.99, 1.77 4.92 C3.68 2.84, 10.14 0.85, 11.99 0.18 C13.83 -0.49, 12.92 0.55, 12.84 0.88 M9.81 1.89 C12.09 0.83, 14.96 0.19, 17.42 0.86 C19.87 1.53, 22.61 3.58, 24.54 5.89 C26.48 8.2, 29.18 11.95, 29.03 14.73 C28.88 17.5, 25.96 20.9, 23.63 22.54 C21.3 24.17, 18.06 24.72, 15.05 24.53 C12.03 24.34, 7.95 23.02, 5.56 21.4 C3.18 19.78, 1.31 17.11, 0.73 14.79 C0.14 12.48, 0.57 10.02, 2.06 7.54 C3.55 5.05, 8.7 1, 9.65 -0.11 C10.6 -1.21, 7.74 0.62, 7.76 0.89"
      stroke="#000000" stroke-width="1" fill="none"></path>
  </g>
  <g transform="translate(196.45738592554198 114.60701947165967) rotate(0 19 10)">
    <text x="0" y="14" font-family="Virgil, Segoe UI Emoji" font-size="16px" fill="#000000"
      text-anchor="start" style="white-space: pre;" direction="ltr">User</text>
  </g>
  <g stroke-linecap="round">
    <g
      transform="translate(191.18393952661108 97.03634325033818) rotate(0 27.731594260823158 -24.103610019517475)"
      fill-rule="evenodd">
      <path
        d="M0.89 0.89 L4.18 -23.92 L5.97 -32.75 L16.48 -44.34 L27.12 -49.61 L32.83 -48.01 L41.69 -42.23 L55.92 -19.92 L56.06 -10.33 L55.65 -3.88 L45.44 -0.75 L1.05 -0.4"
        stroke="none" stroke-width="0" fill="#868e96" fill-rule="evenodd"></path>
      <path
        d="M-0.05 0.63 C1.1 -4.86, 1.78 -23.57, 6.09 -31.86 C10.41 -40.16, 19.02 -48.66, 25.83 -49.16 C32.64 -49.67, 42.25 -42.48, 46.97 -34.9 C51.7 -27.32, 61.98 -9.65, 54.17 -3.67 C46.36 2.31, 8.97 0.27, 0.11 0.98 M-1.54 -0.08 C-0.47 -5.44, 0.74 -25.85, 5.15 -33.88 C9.56 -41.91, 17.84 -47.71, 24.93 -48.25 C32.02 -48.79, 43.07 -44.57, 47.68 -37.1 C52.3 -29.64, 60.28 -9.72, 52.6 -3.46 C44.92 2.8, 10.59 -0.04, 1.59 0.46"
        stroke="#000000" stroke-width="1" fill="none"></path>
    </g>
  </g>
  <mask></mask>
  <g stroke-linecap="round"
    transform="translate(205.09698300487116 23.40269061295544) rotate(0 13.913043478260988 12.173913043478308)">
    <path
      d="M15.93 0.7 C18.67 0.62, 21.67 1.18, 23.64 2.83 C25.62 4.49, 27.48 8.02, 27.79 10.64 C28.09 13.26, 27.11 16.37, 25.46 18.55 C23.82 20.73, 20.76 23.08, 17.91 23.71 C15.07 24.35, 11.23 23.42, 8.39 22.35 C5.54 21.28, 2.19 19.63, 0.85 17.31 C-0.49 14.99, -0.51 11.02, 0.35 8.45 C1.21 5.87, 3.01 3.06, 6 1.85 C8.99 0.64, 15.82 1.14, 18.3 1.19 C20.78 1.24, 20.99 2.1, 20.88 2.15 M15.36 1.18 C18.18 0.77, 20.4 0.64, 22.64 2.18 C24.88 3.71, 28.32 7.46, 28.79 10.4 C29.26 13.34, 26.97 17.74, 25.43 19.82 C23.9 21.89, 22.14 22.01, 19.56 22.85 C16.98 23.7, 12.98 25.52, 9.94 24.86 C6.89 24.2, 2.94 21.32, 1.31 18.9 C-0.31 16.47, -0.44 13.25, 0.19 10.3 C0.82 7.34, 2.94 2.68, 5.11 1.15 C7.28 -0.38, 11.84 1.37, 13.2 1.13 C14.56 0.9, 13.22 -0.3, 13.26 -0.23"
      stroke="none" stroke-width="0" fill="#868e96"></path>
    <path
      d="M15.84 0.6 C18.68 0.72, 21.58 1.38, 23.58 3.26 C25.59 5.15, 27.43 9.18, 27.87 11.91 C28.3 14.63, 27.85 17.53, 26.2 19.61 C24.55 21.69, 20.95 23.73, 17.99 24.37 C15.02 25.02, 11.22 24.69, 8.43 23.46 C5.64 22.23, 2.48 19.51, 1.26 17 C0.04 14.49, 0.24 10.96, 1.1 8.4 C1.96 5.83, 3.59 2.97, 6.43 1.61 C9.27 0.25, 15.97 0.4, 18.13 0.23 C20.29 0.06, 19.46 0.45, 19.37 0.58 M10.38 1.47 C13.12 0.73, 17.3 0.97, 19.97 2.12 C22.65 3.27, 25.38 6.01, 26.42 8.36 C27.47 10.72, 26.9 13.93, 26.23 16.26 C25.56 18.58, 24.53 21.19, 22.41 22.29 C20.28 23.4, 16.37 23.36, 13.46 22.89 C10.55 22.41, 7.3 21.02, 4.95 19.47 C2.59 17.92, -0.5 16.21, -0.67 13.58 C-0.84 10.94, 2.16 6.08, 3.93 3.66 C5.69 1.25, 8.67 -0.34, 9.95 -0.92 C11.22 -1.5, 11.59 -0.3, 11.58 0.2"
      stroke="#000000" stroke-width="1" fill="none"></path>
  </g>
  <g transform="translate(381.2264246271666 337.4662232447213) rotate(0 19 10)">
    <text x="0" y="14" font-family="Virgil, Segoe UI Emoji" font-size="16px" fill="#000000"
      text-anchor="start" style="white-space: pre;" direction="ltr">User</text>
  </g>
  <g stroke-linecap="round">
    <g
      transform="translate(374.76779304304864 326.3674571357593) rotate(0 27.516265566759103 -24.44794323820264)"
      fill-rule="evenodd">
      <path
        d="M-0.91 -1.3 L5.19 -25.22 L6.15 -32.72 L13.43 -42.23 L25.66 -47.5 L31.25 -46.16 L42.25 -42.7 L55.58 -18.43 L57.46 -8.4 L54.4 -5.18 L45.54 0.3 L-1.29 0.91"
        stroke="none" stroke-width="0" fill="#868e96" fill-rule="evenodd"></path>
      <path
        d="M-0.16 0.36 C0.98 -5.19, 1.43 -24.41, 5.99 -32.4 C10.55 -40.38, 20.64 -46.86, 27.23 -47.52 C33.82 -48.19, 41.03 -43.81, 45.54 -36.38 C50.06 -28.95, 61.76 -8.95, 54.31 -2.92 C46.85 3.11, 10.08 -0.59, 0.83 -0.19 M-1.7 -0.49 C-0.66 -5.96, 0.2 -22.88, 4.99 -31.03 C9.79 -39.18, 20.31 -48.63, 27.06 -49.41 C33.81 -50.19, 41.21 -43.55, 45.51 -35.7 C49.8 -27.85, 60.56 -8.04, 52.81 -2.31 C45.06 3.42, 8.01 -1.96, -0.99 -1.33"
        stroke="#000000" stroke-width="1" fill="none"></path>
    </g>
  </g>
  <mask></mask>
  <g stroke-linecap="round"
    transform="translate(388.68083652131054 252.73380449837657) rotate(0 13.913043478260988 12.173913043478308)">
    <path
      d="M17.34 0.99 C20.24 1.34, 23.27 2.28, 24.95 4.38 C26.62 6.48, 27.67 10.79, 27.39 13.57 C27.12 16.35, 25.3 19.35, 23.31 21.06 C21.32 22.77, 18.27 23.77, 15.47 23.86 C12.68 23.95, 9.15 22.94, 6.54 21.59 C3.92 20.25, 0.6 18.07, -0.23 15.78 C-1.06 13.48, 0.4 10.11, 1.57 7.82 C2.73 5.53, 3.87 3.23, 6.74 2.03 C9.62 0.83, 16.76 0.72, 18.83 0.61 C20.89 0.5, 19.18 1.16, 19.15 1.38 M16.57 -0.36 C19.46 0.25, 22.49 2.97, 24.45 4.95 C26.41 6.93, 28.2 9.08, 28.33 11.51 C28.46 13.95, 27.41 17.35, 25.25 19.57 C23.09 21.79, 18.25 24.09, 15.36 24.84 C12.47 25.59, 10.13 25.42, 7.9 24.08 C5.68 22.73, 3.27 19.33, 2.02 16.8 C0.77 14.26, -0.2 11.17, 0.39 8.85 C0.97 6.52, 2.68 4.29, 5.52 2.84 C8.35 1.4, 15.79 0.72, 17.41 0.18 C19.04 -0.36, 15.35 -0.45, 15.26 -0.42"
      stroke="none" stroke-width="0" fill="#868e96"></path>
    <path
      d="M11.58 -0.56 C14.19 -1.12, 18.58 0.74, 21.3 2.22 C24.01 3.69, 27.1 5.95, 27.85 8.3 C28.6 10.65, 27.11 14.01, 25.8 16.34 C24.48 18.67, 22.27 21.07, 19.94 22.29 C17.62 23.51, 14.67 24.16, 11.84 23.66 C9.01 23.17, 5.07 21.23, 2.95 19.31 C0.83 17.38, -0.96 14.59, -0.88 12.11 C-0.81 9.63, 0.92 6.33, 3.4 4.44 C5.88 2.55, 11.86 1.6, 14 0.76 C16.13 -0.07, 16.13 -0.66, 16.2 -0.55 M14.28 1.34 C17.02 1.33, 22.27 1.13, 24.64 2.94 C27.01 4.75, 28.26 9.57, 28.49 12.2 C28.73 14.83, 27.93 16.95, 26.07 18.73 C24.21 20.52, 20.35 22.13, 17.35 22.88 C14.35 23.64, 11.02 24.48, 8.09 23.29 C5.15 22.1, 1.08 18.16, -0.27 15.73 C-1.62 13.3, -1.24 11, -0.01 8.73 C1.21 6.45, 4.37 3.39, 7.09 2.07 C9.82 0.75, 14.77 1.3, 16.34 0.81 C17.92 0.32, 16.46 -0.79, 16.53 -0.88"
      stroke="#000000" stroke-width="1" fill="none"></path>
  </g>
  <g stroke-linecap="round">
    <g
      transform="translate(250.813616910556 105.99847684796805) rotate(0 67.72379115018293 71.81775779998941)">
      <path d="M1.01 -0.28 C23.34 23.6, 112 119.79, 134.44 143.92" stroke="#087f5b"
        stroke-width="1.5" fill="none" stroke-dasharray="8 9"></path>
    </g>
    <g
      transform="translate(250.813616910556 105.99847684796805) rotate(0 67.72379115018293 71.81775779998941)">
      <path d="M27.22 12.02 C19.01 9.64, 10.95 4.31, 1.07 0.45" stroke="#087f5b" stroke-width="1.5"
        fill="none"></path>
    </g>
    <g
      transform="translate(250.813616910556 105.99847684796805) rotate(0 67.72379115018293 71.81775779998941)">
      <path d="M12.16 25.96 C8.96 18.74, 5.98 8.71, 1.07 0.45" stroke="#087f5b" stroke-width="1.5"
        fill="none"></path>
    </g>
    <g
      transform="translate(250.813616910556 105.99847684796805) rotate(0 67.72379115018293 71.81775779998941)">
      <path d="M107.29 128.77 C117.23 135.21, 127.17 139.14, 134.49 144.65" stroke="#087f5b"
        stroke-width="1.5" fill="none"></path>
    </g>
    <g
      transform="translate(250.813616910556 105.99847684796805) rotate(0 67.72379115018293 71.81775779998941)">
      <path d="M122.35 114.83 C127.28 126.1, 132.14 134.74, 134.49 144.65" stroke="#087f5b"
        stroke-width="1.5" fill="none"></path>
    </g>
  </g>
  <mask></mask>
  <g stroke-linecap="round">
    <g
      transform="translate(183.397750875954 106.04783977432157) rotate(0 -64.09728408661158 71.72655620576239)">
      <path d="M0.51 1.1 C-21.1 24.69, -107.25 118.64, -128.71 142.35" stroke="#087f5b"
        stroke-width="1.5" fill="none" stroke-dasharray="8 9"></path>
    </g>
    <g
      transform="translate(183.397750875954 106.04783977432157) rotate(0 -64.09728408661158 71.72655620576239)">
      <path d="M-9.12 27.86 C-7.88 18.12, -1.86 7.2, -1.08 0.32" stroke="#087f5b" stroke-width="1.5"
        fill="none"></path>
    </g>
    <g
      transform="translate(183.397750875954 106.04783977432157) rotate(0 -64.09728408661158 71.72655620576239)">
      <path d="M-24.26 14 C-17.2 9.42, -5.47 3.74, -1.08 0.32" stroke="#087f5b" stroke-width="1.5"
        fill="none"></path>
    </g>
    <g
      transform="translate(183.397750875954 106.04783977432157) rotate(0 -64.09728408661158 71.72655620576239)">
      <path d="M-115.45 113.64 C-122.46 124.94, -125.08 134.96, -130.29 141.57" stroke="#087f5b"
        stroke-width="1.5" fill="none"></path>
    </g>
    <g
      transform="translate(183.397750875954 106.04783977432157) rotate(0 -64.09728408661158 71.72655620576239)">
      <path d="M-100.29 127.46 C-113.12 133.61, -121.46 138.41, -130.29 141.57" stroke="#087f5b"
        stroke-width="1.5" fill="none"></path>
    </g>
  </g>
  <mask></mask>
  <g stroke-linecap="round">
    <g
      transform="translate(78.08494743580923 316.67788555043455) rotate(0 144.22675581745284 -3.70358810020133)">
      <path d="M1.03 -0.56 C48.96 -1.76, 239.5 -5.67, 287.42 -6.84" stroke="#087f5b"
        stroke-width="1.5" fill="none" stroke-dasharray="8 9"></path>
    </g>
    <g
      transform="translate(78.08494743580923 316.67788555043455) rotate(0 144.22675581745284 -3.70358810020133)">
      <path d="M28.06 -12.73 C21.36 -7.43, 11.95 -6.25, 2.18 -2.14" stroke="#087f5b"
        stroke-width="1.5" fill="none"></path>
    </g>
    <g
      transform="translate(78.08494743580923 316.67788555043455) rotate(0 144.22675581745284 -3.70358810020133)">
      <path d="M28.5 7.78 C21.62 7.13, 12.07 2.35, 2.18 -2.14" stroke="#087f5b" stroke-width="1.5"
        fill="none"></path>
    </g>
    <g
      transform="translate(78.08494743580923 316.67788555043455) rotate(0 144.22675581745284 -3.70358810020133)">
      <path d="M258.53 2.74 C268.01 1.24, 274.84 -3.9, 288.56 -8.42" stroke="#087f5b"
        stroke-width="1.5" fill="none"></path>
    </g>
    <g
      transform="translate(78.08494743580923 316.67788555043455) rotate(0 144.22675581745284 -3.70358810020133)">
      <path d="M258.07 -17.77 C267.75 -13.32, 274.71 -12.5, 288.56 -8.42" stroke="#087f5b"
        stroke-width="1.5" fill="none"></path>
    </g>
  </g>
  <mask></mask>
  <g stroke-linecap="round"
    transform="translate(359.94136737272083 132.62130483365775) rotate(0 11.639221686613382 17.4588325299203)">
    <path
      d="M0 0 C0 0, 0 0, 0 0 M0 0 C0 0, 0 0, 0 0 M0.41 6.15 C1.42 4.66, 2.93 1.84, 4.8 0.47 M-0.47 6.66 C0.71 4.9, 1.73 4.03, 4.71 0.2 M0.49 11.43 C3.11 8.15, 5.21 6.35, 10.84 -1.08 M0 11.65 C2.47 8.81, 5.05 6.33, 10.72 -0.34 M-0.54 19.04 C4.57 15.72, 8.04 10.27, 16.53 0.42 M-0.78 19.02 C4 13.11, 9.83 6.38, 14.82 0.6 M-1.28 23.12 C6.95 13.67, 14.66 5.3, 19.47 -0.02 M1.02 23.19 C6.87 16.1, 12.55 10.75, 21.24 -0.19 M1.91 30.95 C4.12 25.85, 10.35 17.06, 24.7 3.01 M-0.84 30.94 C5.78 24.37, 11.94 17.67, 25.55 1.35 M-0.21 36.25 C8.9 26.5, 15.49 20.74, 23.81 8.31 M0.93 34.7 C7.35 27.47, 14.06 21.47, 25.07 7.85 M6.04 37.64 C15.07 28.49, 21.36 20.15, 23.98 12.43 M6.28 36.67 C10.61 30.33, 15.18 25.97, 25.44 14.63 M13.08 33.81 C16.61 29.37, 20.61 24.34, 24.45 20.11 M11.09 35.53 C16.34 31.56, 19.28 26.66, 24.43 19.67 M17.76 34.66 C18.3 32.39, 22.04 30.47, 24.98 25.71 M16.79 36.27 C19.32 33.61, 21.37 30.15, 25.59 26.28 M22.51 34.92 C23.24 34.86, 23.91 34.14, 25.08 31.95 M22.48 35.48 C22.78 34.62, 23.28 34.2, 24.97 32.16"
      stroke="#868e96" stroke-width="0.5" fill="none"></path>
    <path
      d="M-0.16 -0.58 C7.66 0.83, 16.52 -0.49, 24.7 -1.62 M-0.69 0.57 C4.8 -0.16, 10.12 -0.29, 23.08 -0.86 M23.06 -2 C23.11 10.66, 23.14 21.65, 21.29 34.39 M22.97 -0.9 C23.69 12.39, 23.23 25.04, 22.35 35.45 M22.42 36.64 C16.57 35.42, 7.88 33.17, -0.66 35.11 M23.4 35.12 C16.52 35.98, 8.3 34.09, 0.55 34.86 M1.24 35.37 C-0.66 28.05, -0.92 20.61, -0.78 -0.66 M0.52 35.15 C0.22 26.51, -0.8 17.29, -0.66 -0.67"
      stroke="#000000" stroke-width="1" fill="none"></path>
  </g>
  <g stroke-linecap="round">
    <g
      transform="translate(365.7609782160275 167.53896989349835) rotate(0 11.502171568316044 -11.903621129435294)"
      fill-rule="evenodd">
      <path
        d="M17.19 -28.79 C17.19 -28.79, 17.19 -28.79, 17.19 -28.79 M17.19 -28.79 C17.19 -28.79, 17.19 -28.79, 17.19 -28.79 M17.2 -23.37 C18.4 -25.02, 20.03 -27.56, 22.85 -29.3 M17.23 -22.93 C18.51 -24.65, 20.48 -26.31, 22.78 -29.5 M1.57 1.37 C1.57 1.37, 1.57 1.37, 1.57 1.37 M1.57 1.37 C1.57 1.37, 1.57 1.37, 1.57 1.37 M17.89 -16.18 C19.27 -19.2, 23.19 -23.37, 26.41 -27.12 M16.89 -16.7 C19.37 -19.3, 22.67 -22.77, 26.11 -25.99 M2.64 7.6 C3.84 5.58, 5.32 3.34, 6.07 1.28 M2.3 7.03 C3.24 5.49, 4.87 4.02, 6.84 1.87 M16.72 -10.87 C19.13 -13.47, 21.15 -15.88, 26.16 -21.18 M17.84 -10.52 C19.98 -13.23, 21.53 -15.87, 25.87 -20.79 M6.32 6.71 C8.49 5.41, 10.86 3.42, 12.1 1.14 M7.31 7.56 C9 5.46, 10.19 3.79, 12.45 1.08 M16.21 -3.67 C21.29 -6.92, 24.22 -11.05, 24.92 -15.67 M18.05 -4.94 C20.23 -8.57, 23.88 -11.42, 25.61 -14.32 M10.63 5.98 C18.29 2.73, 22.77 -1.66, 26.46 -8.39 M12.01 6.87 C17.55 2.31, 20.9 -1.55, 26.57 -7.77 M16.65 7.79 C19.75 5.1, 23.53 2.65, 26.26 -3.36 M17.56 6.86 C20.53 3.76, 23.81 0.64, 25.51 -2.68"
        stroke="#868e96" stroke-width="0.5" fill="none"></path>
      <path
        d="M-0.17 0 C0.27 2.5, -0.12 4.72, -0.47 5.41 M0.17 -0.16 C-0.08 1.98, -0.12 4.25, -0.25 5.8 M-2 5.47 C8.63 5.53, 17.57 3.86, 22.75 6.82 M-0.9 6.05 C8.36 5.66, 16.98 4.96, 23.81 6.24 M25 7.07 C23.72 -2.86, 21.47 -13.25, 23.47 -28.44 M23.48 6.81 C24 -4.02, 22.11 -14.35, 23.22 -29.8 M23.41 -29.22 C21.46 -29.26, 19.47 -29.29, 17.27 -29.4 M23.34 -28.98 C21.29 -29.24, 19.07 -29.26, 17.26 -29.29 M17.78 -30.88 C19.34 -21.89, 18.44 -15.4, 18.07 -0.48 M17.19 -29.15 C17.88 -20.94, 18.47 -13.25, 17.03 0.38 M16.92 -0.1 C11.7 -0.54, 3.58 -0.26, 0.23 -1.4 M18.03 -0.34 C11.01 -0.71, 5.93 -0.71, -0.35 -0.7 M0 0 C0 0, 0 0, 0 0 M0 0 C0 0, 0 0, 0 0"
        stroke="#000000" stroke-width="1" fill="none"></path>
    </g>
  </g>
  <mask></mask>
  <g stroke-linecap="round">
    <g
      transform="translate(371.5805890593342 173.35858073680515) rotate(0 11.564719383917236 -11.186363253478987)"
      fill-rule="evenodd">
      <path
        d="M17.19 -28.79 C17.19 -28.79, 17.19 -28.79, 17.19 -28.79 M17.19 -28.79 C17.19 -28.79, 17.19 -28.79, 17.19 -28.79 M17.36 -23.91 C19.45 -26.05, 20.66 -27.41, 22.71 -29.51 M17.79 -23.52 C19.62 -25.15, 21.51 -27.73, 22.51 -29.22 M1.57 1.37 C1.57 1.37, 1.57 1.37, 1.57 1.37 M1.57 1.37 C1.57 1.37, 1.57 1.37, 1.57 1.37 M17.88 -17.2 C20.89 -19.44, 22.74 -23.52, 25.28 -26.57 M17.37 -17.27 C20.06 -19.18, 21.89 -21.86, 26.42 -26.48 M2.56 7.48 C3.79 5.63, 4.82 2.76, 6.12 1.69 M1.99 6.91 C3.21 5.76, 4.49 4.48, 6.7 1.48 M17.95 -11.65 C20.08 -14.39, 22.42 -16.87, 25.97 -21.78 M18.29 -10.77 C20.93 -14.73, 23.63 -18.51, 26.36 -20.83 M6.29 7.24 C8.26 6.42, 9.55 4.11, 12.01 1.46 M7.15 7.74 C8.34 5.63, 9.97 4.37, 11.95 1.51 M18.49 -3.89 C20.46 -5.95, 21.57 -9.95, 24.83 -13.95 M17.22 -4.82 C19.82 -7.48, 23.2 -11.76, 26.18 -14.23 M11.6 8.26 C18.34 2.84, 23.94 -3.18, 25.44 -8.08 M12.49 7.96 C16.34 2.99, 20.89 -0.98, 26.06 -8.34 M18.04 7.2 C21.23 5.06, 24.65 0.31, 25.23 -1.95 M17.11 7.43 C20.32 4.37, 23.53 -0.14, 25.91 -1.92"
        stroke="#868e96" stroke-width="0.5" fill="none"></path>
      <path
        d="M0 0.26 C0.34 1.75, 0.41 3.28, -0.41 6.23 M-0.16 -0.06 C-0.21 1.51, -0.1 2.97, -0.02 5.97 M-0.35 6.28 C7.33 7.29, 13.31 5.53, 24.28 6.86 M0.23 5.98 C7.16 6.62, 13.84 6.56, 23.7 5.45 M24.53 6.3 C23.95 -6.83, 22.77 -15.74, 23.94 -29.17 M24.27 6.74 C23.76 -7.67, 23.79 -19.28, 22.58 -28.39 M23.16 -28.76 C21.47 -28.58, 19.82 -29.28, 17.16 -28.78 M23.4 -29.02 C21.24 -29.16, 19.37 -29.28, 17.26 -29.21 M15.68 -27.23 C16.95 -19.31, 15.86 -10.85, 16.98 -0.62 M17.4 -28.91 C17.84 -17.23, 17.7 -7.35, 17.84 0.68 M17.35 0.67 C11.24 -1.07, 5.98 0.18, -1.4 0.85 M17.12 -0.36 C11.43 0.75, 6.03 -0.24, -0.7 -0.07 M0 0 C0 0, 0 0, 0 0 M0 0 C0 0, 0 0, 0 0"
        stroke="#000000" stroke-width="1" fill="none"></path>
    </g>
  </g>
  <mask></mask>
  <g stroke-linecap="round">
    <g
      transform="translate(365.7609782160275 138.44091567696455) rotate(0 6.16486772898088 0.15530918683344908)">
      <path
        d="M0.51 0.69 C3.14 0.83, 5.85 -0.82, 12.45 -0.28 M-0.12 -0.34 C2.49 -0.05, 4.88 0.02, 11.94 0.17"
        stroke="#000000" stroke-width="1" fill="none"></path>
    </g>
  </g>
  <mask></mask>
  <g stroke-linecap="round">
    <g
      transform="translate(365.7609782160275 150.08013736357805) rotate(0 5.733973452660848 -0.3791502880943085)">
      <path
        d="M0.69 -0.26 C3.98 -0.99, 5.49 0.76, 11.36 -0.8 M-0.34 -0.2 C4.04 -0.48, 8.26 0.32, 11.81 -0.06"
        stroke="#000000" stroke-width="1" fill="none"></path>
    </g>
  </g>
  <mask></mask>
  <g stroke-linecap="round">
    <g
      transform="translate(365.7609782160275 144.26052652027124) rotate(0 5.65942370804305 0.12372119718941121)">
      <path
        d="M-0.26 0.83 C2.55 -0.89, 7.79 -0.34, 10.84 0.66 M-0.2 -0.12 C2.35 0.02, 6.01 0.23, 11.58 -0.58"
        stroke="#000000" stroke-width="1" fill="none"></path>
    </g>
  </g>
  <mask></mask>
  <g stroke-linecap="round">
    <g
      transform="translate(365.7609782160275 155.89974820688485) rotate(0 6.093285094691964 -0.44902958526631664)">
      <path
        d="M0.83 -0.94 C3.19 0.84, 7.74 -0.78, 12.3 -0.64 M-0.12 -0.5 C3.2 0.34, 6.65 -0.02, 11.06 -0.1"
        stroke="#000000" stroke-width="1" fill="none"></path>
    </g>
  </g>
  <mask></mask>
  <g stroke-linecap="round">
    <g
      transform="translate(365.7609782160275 161.71935905019166) rotate(0 2.649455943499106 -0.171024406583399)">
      <path
        d="M-0.47 -0.41 C2.5 -0.18, 3.78 0.29, 5.5 -0.12 M-0.25 -0.02 C1.56 0.09, 2.79 -0.28, 5.77 0.07"
        stroke="#000000" stroke-width="1" fill="none"></path>
    </g>
  </g>
  <mask></mask>
  <g stroke-linecap="round"
    transform="translate(42.66064689285167 137.63669378278382) rotate(0 11.63922168661361 17.4588325299203)">
    <path
      d="M0 0 C0 0, 0 0, 0 0 M0 0 C0 0, 0 0, 0 0 M-0.9 6.03 C1.64 3.22, 4.24 2.26, 5.19 0.49 M-0.05 6.22 C1.31 4.59, 3.54 2.25, 5.19 0.56 M0.36 11.97 C3.62 10.46, 6.91 4.28, 9.25 1.3 M0.25 12.82 C3.03 8.42, 5.63 5.46, 10.93 -0.04 M-1.66 20.38 C5.54 13.36, 10.86 5.09, 17.5 0.05 M0 18.31 C3.84 13.37, 7.51 9.45, 15.14 -0.67 M0.64 22.26 C4.74 17.87, 8.89 12.83, 23 -0.1 M0.49 23.21 C7.65 15.14, 15.14 7.5, 21.93 0.22 M-0.43 31.94 C7.65 19.52, 18.91 11.26, 24.71 2.09 M-0.69 30.57 C4.97 24.46, 11.99 16.97, 24.81 1.56 M-0.79 35.36 C4.3 29.9, 10.36 22.37, 25.17 6.04 M0.18 35.11 C6.53 29.19, 13.04 22.04, 25.75 7.07 M7.17 36.77 C13.36 28.98, 17.77 22.25, 23.12 14.3 M6.18 35.62 C12.83 28.28, 19.5 21.81, 25.69 13.5 M10.44 33.86 C14.18 32.11, 14.95 28.86, 25.98 18.98 M10.99 35.69 C16.01 30.98, 20.73 26.34, 24.4 20.52 M17.3 36.11 C19.25 32.67, 20.05 30.97, 25.85 26.67 M16.64 35.8 C18.19 33.33, 20.59 31.59, 24.63 25.77 M22.26 35.6 C22.77 34.2, 24.03 33.25, 25.09 31.92 M22.21 35.44 C23.33 34.01, 24.36 33.03, 24.83 32.22"
      stroke="#868e96" stroke-width="0.5" fill="none"></path>
    <path
      d="M1.58 1.03 C6.55 -1.27, 12.04 0.97, 21.65 0.98 M0.64 -0.68 C3.7 -0.37, 8.7 -0.4, 23.09 -0.96 M23.33 0.59 C24.11 13.27, 21.76 25.98, 25.22 35.07 M23.54 0.07 C22.63 9.16, 22.78 20.16, 22.87 34.63 M22.2 33.03 C15.17 34.86, 9.36 36.24, 1.08 34.89 M23.38 33.97 C17.94 35.85, 13.66 35.66, 0.7 34.51 M-1.55 32.97 C-1.57 25.12, 0.58 17.16, 0.18 -1.77 M-0.26 35.62 C0.67 24.4, -0.28 14.3, 0.04 -0.44"
      stroke="#000000" stroke-width="1" fill="none"></path>
  </g>
  <g stroke-linecap="round">
    <g
      transform="translate(48.480257736157455 172.55435884262442) rotate(0 11.6556288533111 -12.217569045466178)"
      fill-rule="evenodd">
      <path
        d="M17.19 -28.79 C17.19 -28.79, 17.19 -28.79, 17.19 -28.79 M17.19 -28.79 C17.19 -28.79, 17.19 -28.79, 17.19 -28.79 M16.85 -23.35 C18.49 -24.98, 19.86 -25.16, 22.82 -28.76 M17.23 -23.08 C19.37 -25.31, 21.68 -27.39, 22.95 -28.94 M1.57 1.37 C1.57 1.37, 1.57 1.37, 1.57 1.37 M1.57 1.37 C1.57 1.37, 1.57 1.37, 1.57 1.37 M17.32 -18.02 C20.69 -20.79, 22.67 -23.42, 24.94 -27.27 M17.15 -16.89 C21.11 -20.28, 24.24 -24.06, 25.61 -26.46 M2.33 7.44 C3.2 5.51, 4.43 3.61, 6.72 1.99 M1.93 7.21 C3.68 5.29, 5.74 3.22, 6.44 1.38 M16.75 -11.18 C20.32 -15.48, 22.91 -16.57, 25.43 -20.65 M17.95 -10.93 C21.36 -14.37, 24.82 -18.97, 26.43 -21.17 M7.21 7.57 C8.08 5.05, 10.02 4.49, 12.69 0.69 M7.02 7.13 C8.24 5.84, 9.91 3.77, 12.14 1.25 M18.44 -5.51 C19.93 -7.59, 22.85 -11.79, 24.8 -13.38 M17.92 -4.69 C19.89 -7.81, 23.32 -11.5, 25.8 -14.93 M13.38 8.8 C13.98 2.3, 16.59 1.93, 23.83 -9.72 M11.61 6.54 C16.69 2.27, 22.43 -4.09, 25.34 -8.3 M17.11 6.55 C19.75 3.44, 21.41 1.89, 25.63 -2.76 M18.1 7.79 C19.65 3.91, 21.84 1.88, 26.54 -2.38"
        stroke="#868e96" stroke-width="0.5" fill="none"></path>
      <path
        d="M0.3 0.39 C-0.25 2.14, 0.4 2.87, 0.28 5.24 M-0.2 -0.28 C-0.2 1.56, -0.21 3.44, -0.28 6.09 M0.59 6.4 C8.21 4.05, 15.87 7.76, 23.43 5.32 M0.07 5.01 C7.63 5.1, 17.1 5.35, 22.99 5.9 M21.39 4.89 C22.88 -4.28, 24.25 -14.17, 23.25 -30.83 M22.33 5.44 C23.75 -7.19, 23.56 -20.1, 22.87 -29.69 M22.71 -29.56 C21.17 -28.98, 19.59 -29.09, 16.94 -29.05 M23.48 -28.89 C21.53 -29.18, 19.91 -29.1, 17.33 -29.23 M16.03 -27.48 C16.87 -20.34, 19.1 -11.14, 16.48 1.83 M17.44 -28.83 C16.93 -20.18, 17.95 -10.58, 17.16 0.95 M16.66 -0.45 C11.75 0.56, 10.78 0.29, 0.28 0.92 M17.07 -0.53 C11.75 0.39, 4.98 0.54, 0.44 -0.38 M0 0 C0 0, 0 0, 0 0 M0 0 C0 0, 0 0, 0 0"
        stroke="#000000" stroke-width="1" fill="none"></path>
    </g>
  </g>
  <mask></mask>
  <g stroke-linecap="round">
    <g
      transform="translate(54.299868579465056 178.37396968593134) rotate(0 11.423406535110871 -11.49293614432662)"
      fill-rule="evenodd">
      <path
        d="M17.19 -28.79 C17.19 -28.79, 17.19 -28.79, 17.19 -28.79 M17.19 -28.79 C17.19 -28.79, 17.19 -28.79, 17.19 -28.79 M17.37 -23.39 C18.82 -25.13, 21.72 -27.08, 23.25 -28.6 M17.64 -23.3 C19.28 -24.77, 21.08 -26.72, 23.07 -29.33 M1.57 1.37 C1.57 1.37, 1.57 1.37, 1.57 1.37 M1.57 1.37 C1.57 1.37, 1.57 1.37, 1.57 1.37 M16.04 -16.17 C19.95 -20.93, 23.99 -25.34, 25.13 -25.38 M17.18 -16.24 C20.6 -19.83, 23.61 -23.79, 25.95 -26.85 M2.4 7.11 C3.5 5.21, 4.62 3.28, 6.82 2.28 M2.16 6.97 C3.56 5.79, 4.8 3.88, 6.22 1.8 M17.64 -11.14 C19.78 -15.01, 25.13 -19.44, 26.5 -19.73 M17.89 -10.84 C20.34 -13.11, 21.62 -15.67, 25.98 -21.11 M7.16 7.1 C8 5.6, 10.81 3.83, 11.56 1.09 M6.72 7.26 C8.85 5.45, 10.21 3.16, 12.12 1.68 M16.64 -5.59 C20.35 -8.32, 21.94 -10.54, 27.12 -14.13 M17.46 -5.17 C19.32 -6.62, 20.62 -8.95, 25.57 -15.07 M14.42 5.48 C14.54 1.34, 20.79 -2.74, 24.12 -7.38 M12.16 6.56 C16.12 4.41, 17.97 -0.46, 25.54 -8.3 M16.8 7.08 C18.86 3.61, 22.46 1.36, 25.83 -2.6 M18.04 7 C20.23 2.93, 24.27 0.28, 26.21 -3.02"
        stroke="#868e96" stroke-width="0.5" fill="none"></path>
      <path
        d="M0.39 -0.31 C0.52 2.63, -0.43 4.85, -0.58 5.82 M-0.28 -0.16 C-0.14 1.15, -0.02 2.35, 0.27 6.03 M0.58 5.38 C5.61 4.32, 16.71 5.9, 22.77 6.75 M-0.81 5.38 C4.72 6.77, 10.35 5.51, 23.36 5.84 M22.34 5.63 C23.91 -5.57, 24.55 -19.35, 21.54 -27.47 M22.9 6.57 C23.55 -6.86, 23.94 -21.07, 22.69 -29.16 M22.81 -29.5 C21.97 -29.42, 20.4 -29.67, 17.51 -29.03 M23.48 -29.03 C21.44 -28.79, 19.74 -29.19, 17.33 -29.04 M19.08 -29.58 C17.06 -19.71, 16.93 -14.79, 19.29 0.07 M17.73 -29.73 C17.75 -18.89, 18.52 -9.76, 18.4 -0.67 M17.01 -1.63 C11.46 1.39, 4.5 0.2, 0.92 1.07 M16.93 0.61 C13.9 0.07, 10.2 0.36, -0.38 -0.2 M0 0 C0 0, 0 0, 0 0 M0 0 C0 0, 0 0, 0 0"
        stroke="#000000" stroke-width="1" fill="none"></path>
    </g>
  </g>
  <mask></mask>
  <g stroke-linecap="round">
    <g
      transform="translate(48.480257736157455 143.45630462609074) rotate(0 5.7202189016234115 -0.03692843771079879)">
      <path
        d="M-0.62 0.94 C5.1 -1.03, 9.39 -1.24, 11.64 -0.86 M-0.32 -0.36 C3.91 0, 7.92 0.65, 12.06 0.1"
        stroke="#000000" stroke-width="1" fill="none"></path>
    </g>
  </g>
  <mask></mask>
  <g stroke-linecap="round">
    <g
      transform="translate(48.480257736157455 155.09552631270412) rotate(0 5.6879908632629395 0.19766485606334072)">
      <path
        d="M0.94 0.69 C3.14 0.63, 7.02 0.06, 10.78 0.75 M-0.36 -0.33 C2.59 -0.49, 5.94 0.48, 11.74 0.02"
        stroke="#000000" stroke-width="1" fill="none"></path>
    </g>
  </g>
  <mask></mask>
  <g stroke-linecap="round">
    <g
      transform="translate(48.480257736157455 149.27591546939743) rotate(0 6.026243414153669 -0.3885182642147811)">
      <path
        d="M0.69 -0.95 C4.84 -1.26, 8.54 -0.95, 12.39 -0.79 M-0.33 -0.11 C1.82 0.61, 5.17 0.17, 11.65 0.17"
        stroke="#000000" stroke-width="1" fill="none"></path>
    </g>
  </g>
  <mask></mask>
  <g stroke-linecap="round">
    <g
      transform="translate(48.480257736157455 160.91513715601081) rotate(0 5.431604242364074 -0.2732585667637295)">
      <path
        d="M-0.95 0.57 C1.71 -0.07, 4.89 0.68, 10.85 -1.12 M-0.11 -0.56 C3.39 0.48, 5.81 0.08, 11.81 0.17"
        stroke="#000000" stroke-width="1" fill="none"></path>
    </g>
  </g>
  <mask></mask>
  <g stroke-linecap="round">
    <g
      transform="translate(48.480257736157455 166.73474799931773) rotate(0 2.812858242441507 -0.15590159134052328)">
      <path
        d="M0.28 -0.58 C2.22 -0.38, 4.81 -0.35, 5.26 -0.32 M-0.28 0.27 C1.59 0.06, 2.77 0.1, 5.9 -0.06"
        stroke="#000000" stroke-width="1" fill="none"></path>
    </g>
  </g>
  <mask></mask>
  <g stroke-linecap="round"
    transform="translate(200.17930412686474 325.2288702288929) rotate(0 11.63922168661361 17.4588325299203)">
    <path
      d="M0 0 C0 0, 0 0, 0 0 M0 0 C0 0, 0 0, 0 0 M-0.1 7 C0.47 5.16, 1.66 4.15, 5.37 1.16 M-0.02 6.31 C1.54 4.37, 4.28 2.05, 4.91 0.23 M-0.11 13.55 C4.56 6.35, 8.82 3.19, 12.13 0.77 M-0.25 12.46 C2.14 10.01, 4.7 5.86, 10.56 -0.68 M-0.96 16.47 C5.73 12.01, 10.26 4.65, 16.81 0.11 M0.56 17.48 C5.68 12.44, 12.69 3.75, 16.18 0.11 M1.44 24.77 C4.54 17.79, 9.38 14.23, 20.53 -1.33 M1.19 23.34 C5.78 17.02, 11.99 10.12, 20.97 -0.09 M1.41 30.88 C9.18 22.23, 15.89 11.23, 23.26 1.19 M0.79 30.89 C6.41 22.55, 13.24 14.77, 24.65 1.7 M1.49 37.23 C8.07 26.33, 17.47 15.9, 23.48 6.25 M0.75 36.16 C6.68 28.16, 13.9 20.95, 25.82 6.5 M5.43 34.02 C9.63 32.08, 15.8 24.34, 24.74 13.8 M5.19 35.3 C10.07 31.35, 14.44 25.92, 25.79 14.01 M11.22 37.15 C17.79 28, 20.97 22.78, 25.42 18.32 M11.6 36 C14.85 31.38, 17.77 27.96, 23.87 21.23 M17.93 36.89 C20.24 31.43, 22.3 30.41, 24.62 25.28 M16.16 36 C18.66 33.39, 20.42 30.65, 24.73 25.93 M22.13 35.18 C23.25 34.52, 24.26 33.1, 25.2 32.65 M22.29 35.25 C23.26 34.12, 24.58 32.74, 24.83 32.41"
      stroke="#868e96" stroke-width="0.5" fill="none"></path>
    <path
      d="M-0.11 0.33 C3.91 -0.64, 10.67 0.66, 21.52 -0.34 M-0.14 0.76 C5.87 -0.53, 13.66 -0.82, 23.65 -0.91 M22.26 1.44 C23.41 12.09, 23.62 27.51, 22.14 34.36 M22.97 0.39 C23.89 7.51, 22.24 15.66, 23.97 33.97 M21.98 32.93 C17.28 33.94, 13.62 36.58, -1.97 34.16 M22.82 34.55 C16.12 34.68, 9.27 34.11, 0.02 34.54 M1.38 36.49 C1.43 24.17, -1.56 13.57, 0.92 1.31 M-0.46 34.19 C-0.19 23.07, 0.41 12.09, 0.19 0.63"
      stroke="#000000" stroke-width="1" fill="none"></path>
  </g>
  <g stroke-linecap="round">
    <g
      transform="translate(205.99891497017143 360.1465352887335) rotate(0 11.725078454630193 -12.075964729045324)"
      fill-rule="evenodd">
      <path
        d="M17.19 -28.79 C17.19 -28.79, 17.19 -28.79, 17.19 -28.79 M17.19 -28.79 C17.19 -28.79, 17.19 -28.79, 17.19 -28.79 M17.86 -23.09 C18.99 -25.14, 21.49 -27.93, 22.32 -29.4 M17.29 -23.14 C19.39 -25.29, 21.25 -27.9, 22.82 -29.07 M1.57 1.37 C1.57 1.37, 1.57 1.37, 1.57 1.37 M1.57 1.37 C1.57 1.37, 1.57 1.37, 1.57 1.37 M18.53 -18.01 C20.18 -20.16, 22.18 -22.96, 25.07 -27.25 M17.83 -17.08 C19.13 -18.64, 21 -21.18, 25.23 -26.82 M1.37 6.55 C4.14 5.31, 4.88 3.55, 6.55 1.17 M1.82 6.96 C3.59 5.39, 4.83 3.97, 6.62 2.06 M18.9 -10.48 C19.47 -14.82, 22.61 -16.8, 25 -21.93 M18.15 -10.96 C19.65 -13.62, 21.93 -17.04, 26.89 -20.93 M7.69 8.02 C7.87 5.67, 10.79 2.94, 11.84 0.83 M7.15 7.34 C8.48 5.5, 9.72 3.67, 12.24 1.62 M17.06 -4.84 C21.18 -7.66, 22.82 -9.82, 27.2 -13.24 M17.29 -4.98 C20.4 -7.41, 22.73 -11.7, 26.4 -15.14 M14.18 7.42 C17.82 1.01, 23.14 -2.85, 26.5 -6.84 M11.94 7.12 C16.85 1.34, 21.51 -3.98, 26.08 -8.18 M17.5 6.1 C20.1 4.29, 20.26 2.57, 26.06 -2.45 M17.67 7.45 C19.18 4.38, 21.84 3.23, 25.57 -2.06"
        stroke="#868e96" stroke-width="0.5" fill="none"></path>
      <path
        d="M0.1 -0.35 C-0.13 1.7, 0.24 2.63, -0.1 5.7 M0.22 -0.18 C-0.24 2.45, -0.32 4.61, -0.26 6.07 M1.44 5.85 C6.24 6.18, 15.8 4.8, 22.72 4.55 M0.39 6.73 C4.25 5.15, 9.14 6.58, 22.33 5.02 M21.3 4.94 C22.66 -5.36, 25.3 -19.67, 22.52 -29.47 M22.91 5.22 C23.15 -4.91, 22.58 -13.8, 22.9 -29.32 M23.74 -28.69 C21.29 -29.52, 19.33 -28.79, 17.84 -29.01 M23.07 -29.24 C21.77 -29.09, 20.51 -29.07, 17.64 -29.37 M16.97 -30.88 C16.44 -23.63, 18.44 -16.79, 18.63 1.37 M17.77 -29.8 C16.51 -22.2, 17.22 -14.04, 17.87 -0.55 M18.77 -1.24 C12.92 -1.41, 8.94 0.88, 1.74 1.6 M17.27 -0.66 C14.23 0.94, 10.42 -0.06, -0.29 0.55 M0 0 C0 0, 0 0, 0 0 M0 0 C0 0, 0 0, 0 0"
        stroke="#000000" stroke-width="1" fill="none"></path>
    </g>
  </g>
  <mask></mask>
  <g stroke-linecap="round">
    <g
      transform="translate(211.81852581347812 365.9661461320404) rotate(0 11.668272200846332 -12.036700645254143)"
      fill-rule="evenodd">
      <path
        d="M17.19 -28.79 C17.19 -28.79, 17.19 -28.79, 17.19 -28.79 M17.19 -28.79 C17.19 -28.79, 17.19 -28.79, 17.19 -28.79 M17.63 -23.67 C19.43 -24.99, 20.49 -27.4, 22.61 -28.54 M17.58 -23.32 C19.43 -25.38, 20.83 -27.04, 22.94 -29.31 M1.57 1.37 C1.57 1.37, 1.57 1.37, 1.57 1.37 M1.57 1.37 C1.57 1.37, 1.57 1.37, 1.57 1.37 M16.05 -16.13 C18.29 -18.56, 19.89 -21.96, 25.15 -27.29 M16.98 -17.09 C19.65 -19.48, 21.33 -21.64, 25.59 -26.44 M1.51 7.67 C2.95 5.85, 3.86 4.75, 6.01 1.84 M1.92 7.22 C3.7 5.09, 5.63 3.23, 6.89 1.77 M18.33 -11.99 C19.76 -14.7, 23.53 -18.63, 25.23 -21.27 M17.85 -11.52 C20.13 -14.23, 21.65 -15.73, 26.23 -20.7 M7.61 6.59 C9.29 5.37, 10.61 2.27, 11.7 1.22 M6.93 7.34 C7.93 5.77, 8.95 4.81, 12.49 1.36 M17.32 -3.56 C20.27 -7.69, 23.88 -9.83, 27.26 -14 M17.18 -4.56 C21.45 -8.98, 23.86 -12.01, 25.36 -14.1 M13.04 7.53 C16.89 2.51, 23.26 -3.3, 27 -7.3 M12.74 6.71 C15.65 2.92, 19.01 -0.72, 25.66 -8.85 M16.35 7.82 C18.51 4.05, 20.76 3.29, 26.14 -3.23 M17.7 6.92 C19.96 4.1, 24.14 -0.03, 26.53 -1.89"
        stroke="#868e96" stroke-width="0.5" fill="none"></path>
      <path
        d="M-0.35 -0.16 C0.13 2.21, -0.51 3.89, -0.12 6.32 M-0.18 -0.2 C0.19 1.08, 0.1 2.46, 0.25 5.91 M0.03 4.39 C4.99 6.11, 8.37 5.09, 22.01 4.11 M0.91 5.07 C5.25 4.88, 12.68 4.78, 22.48 6.19 M22.4 4.99 C24.09 -0.69, 21.54 -11.57, 22.91 -29.47 M22.67 5.62 C22.54 -4.77, 23.46 -14.21, 23.06 -29.19 M23.69 -29.4 C20.61 -29.61, 19.14 -28.67, 17.54 -29.59 M23.14 -29.35 C21.68 -29.39, 20.07 -28.96, 17.18 -29.38 M15.68 -30.4 C17.07 -16.87, 17.98 -4.87, 18.83 -0.65 M16.75 -30.06 C16.45 -20.47, 16.82 -10.94, 16.91 -0.14 M16.22 0.45 C12.13 1.59, 10.53 1.87, 1.6 -1.32 M16.79 0.69 C13.67 0.76, 8.03 -0.33, 0.55 0.19 M0 0 C0 0, 0 0, 0 0 M0 0 C0 0, 0 0, 0 0"
        stroke="#000000" stroke-width="1" fill="none"></path>
    </g>
  </g>
  <mask></mask>
  <g stroke-linecap="round">
    <g
      transform="translate(205.99891497017143 331.0484810721998) rotate(0 6.124566635177189 -0.1845987651087171)">
      <path
        d="M-0.31 0.26 C3.87 -0.95, 6.65 -0.18, 12.65 -0.77 M-0.4 0.4 C2.77 0.29, 6.14 0.58, 11.81 -0.56"
        stroke="#000000" stroke-width="1" fill="none"></path>
    </g>
  </g>
  <mask></mask>
  <g stroke-linecap="round">
    <g
      transform="translate(205.99891497017143 342.6877027588132) rotate(0 5.670827719468434 -0.062338492416358804)">
      <path
        d="M0.26 0.44 C2.66 -0.17, 7.12 1.04, 10.87 -0.16 M0.4 -0.56 C4.59 -0.45, 9.25 0.25, 11.08 -0.3"
        stroke="#000000" stroke-width="1" fill="none"></path>
    </g>
  </g>
  <mask></mask>
  <g stroke-linecap="round">
    <g
      transform="translate(205.99891497017143 336.8680919155065) rotate(0 5.458782467166657 -0.07157468758020968)">
      <path
        d="M0.44 -1.02 C2.6 -0.27, 6.59 -0.8, 11.48 0.88 M-0.56 0.22 C2.24 0.43, 5.7 -0.64, 11.34 0.42"
        stroke="#000000" stroke-width="1" fill="none"></path>
    </g>
  </g>
  <mask></mask>
  <g stroke-linecap="round">
    <g
      transform="translate(205.99891497017143 348.5073136021199) rotate(0 5.748036155726595 -0.21210811847936384)">
      <path
        d="M-1.02 -0.2 C2.93 0.96, 5.59 -0.2, 12.52 -0.73 M0.22 -0.53 C3.2 0.28, 4.83 -0.18, 12.06 0.01"
        stroke="#000000" stroke-width="1" fill="none"></path>
    </g>
  </g>
  <mask></mask>
  <g stroke-linecap="round">
    <g
      transform="translate(205.99891497017143 354.3269244454268) rotate(0 2.779437016782822 -0.07222319770227159)">
      <path
        d="M-0.1 -0.12 C2.38 -0.33, 3.67 0.49, 5.46 -0.4 M-0.26 0.25 C2.23 -0.3, 4.14 0.19, 5.82 -0.21"
        stroke="#000000" stroke-width="1" fill="none"></path>
    </g>
  </g>
  <mask></mask>
  <g stroke-linecap="round" transform="translate(300.2446296712101 10) rotate(0 30 30)">
    <path
      d="M5.2 13.8 C5.2 13.8, 5.2 13.8, 5.2 13.8 M5.2 13.8 C5.2 13.8, 5.2 13.8, 5.2 13.8 M2.11 21.95 C8.17 15.08, 13.86 6.74, 22.84 1.18 M2.94 20.95 C9.57 15.07, 13.45 10.89, 20.7 2.21 M3.13 32.36 C7.63 24.04, 12.97 16.66, 27.59 3.01 M0.53 29.97 C8.64 22.39, 14.45 14.84, 26.92 1.06 M4.75 36.47 C13.82 21.17, 24.65 9.79, 29.74 1.79 M3.61 33.89 C12.06 24.18, 21.02 14.07, 31.79 1.75 M3.67 36.99 C17.52 27.05, 25.86 13.43, 35.41 -0.29 M4.72 39.2 C14.36 29.07, 22.21 18.17, 37.12 1.51 M5.71 42.01 C19.95 28.5, 33.47 10.91, 42.54 0.49 M7.11 43.06 C18.92 28.31, 32.48 12.1, 42.22 1.36 M9.46 47.9 C16.55 34.58, 30.09 24.48, 46.49 5.5 M7.99 47.64 C17.09 34.69, 26.61 23.92, 45.05 3.64 M9.92 49.68 C16.78 43.83, 23.11 34.82, 46.9 8.37 M9.7 51.94 C18.41 41.33, 26.68 32.69, 48.65 8.07 M10.13 55.4 C21.97 39.91, 36.57 25.2, 50.15 11.4 M10.9 55.62 C22.36 43.41, 32.29 30.1, 51.15 9.56 M15.43 57.49 C24.43 49.03, 30.36 37.92, 54.21 14.4 M16.4 55.77 C24.57 45.28, 32.35 36.45, 54.17 12.59 M20.5 56.95 C27.6 46.15, 38.23 38.48, 54.95 14.1 M19.8 58.52 C27.55 50.45, 35.33 41.27, 56.73 15.92 M23.57 57.66 C34.67 46.21, 47.39 31.84, 57.8 19 M23.17 58.82 C32.81 49.09, 43.22 37.94, 58.44 18.97 M27.4 60.27 C37.96 50.66, 46.02 39.52, 61.38 23.78 M27.72 59.76 C39.6 47.67, 51.38 34.09, 60.7 23.64 M36.21 58.57 C44.22 48.13, 55.15 36.03, 60.35 31.34 M36.18 58.39 C42.71 48.73, 51.76 39.84, 61.13 29.81 M42.75 55.68 C47.75 50.74, 51.55 47.35, 59.83 37.78 M41.48 57.27 C45.78 51.85, 50.57 46.34, 59.53 37.72"
      stroke="#12b886" stroke-width="0.5" fill="none"></path>
    <path
      d="M41.49 1.64 C47.56 3.69, 54.59 10.71, 57.5 16.5 C60.4 22.28, 60.64 29.95, 58.93 36.32 C57.23 42.68, 52.47 50.85, 47.27 54.69 C42.07 58.53, 34.05 59.71, 27.72 59.34 C21.39 58.97, 13.76 56.93, 9.27 52.48 C4.78 48.04, 1.44 39.15, 0.78 32.68 C0.12 26.21, 2.02 18.96, 5.32 13.66 C8.61 8.36, 14.17 2.77, 20.54 0.87 C26.9 -1.02, 39.73 1.6, 43.53 2.29 C47.33 2.99, 43.74 4.4, 43.33 5.02 M22.17 0.21 C28.09 -1.67, 36.04 0.59, 41.68 3.23 C47.31 5.87, 52.82 10.37, 55.98 16.05 C59.14 21.74, 61.96 31.18, 60.63 37.35 C59.31 43.52, 53.17 49.37, 48.03 53.08 C42.89 56.78, 36.44 59.59, 29.78 59.57 C23.12 59.55, 13.17 57.21, 8.08 52.98 C2.99 48.76, 0.02 40.74, -0.75 34.21 C-1.51 27.68, -0.24 19.08, 3.48 13.81 C7.21 8.54, 18.57 4.66, 21.61 2.59 C24.65 0.51, 21.56 1.04, 21.71 1.35"
      stroke="#000000" stroke-width="1" fill="none"></path>
  </g>
  <g stroke-linecap="round">
    <g
      transform="translate(327.2006121983536 27.656799956151872) rotate(299.4109972382423 4.195951872432715 10.434213223312327)"
      fill-rule="evenodd">
      <path
        d="M-1.55 -1.94 L-0.52 8.85 L18.94 9.85 L19.07 21.11 L-7.49 19.18 L-9.02 0.32 L-0.27 1.82"
        stroke="none" stroke-width="0" fill="#ffffff" fill-rule="evenodd"></path>
      <path
        d="M0.81 -1 C-0.1 2.09, -0.82 5.42, 0.12 9.74 M-0.36 -0.31 C-0.22 2.85, 0.2 4.67, 0.24 10.03 M-1.3 8.49 C5.51 8.63, 8.73 8.91, 16.38 9.2 M0.47 9.55 C6.08 10.91, 12.97 10.1, 17.35 10.92 M17.29 10.5 C16.88 12.96, 18.01 16.42, 18.05 19.73 M17.47 9.54 C18.14 12.77, 17.96 16.91, 18.04 19.99 M17.48 19.92 C10.33 19.39, 1.44 17.91, -9.66 21.87 M18.47 20.79 C9.54 20.29, 2 20.36, -9.77 19.52 M-9.65 18.08 C-10.33 11.04, -7.52 3.26, -10.07 1.73 M-8.77 19.07 C-8.28 16.34, -8.69 10.43, -8.54 -0.78 M-9.14 -0.44 C-6.49 -0.33, -2.04 -0.29, -0.41 -0.15 M-8.57 -0.29 C-5.37 0.36, -2.52 -0.27, -0.05 0.11 M0 0 C0 0, 0 0, 0 0 M0 0 C0 0, 0 0, 0 0"
        stroke="#000000" stroke-width="1" fill="none"></path>
    </g>
  </g>
  <mask></mask>
</svg>