<svg version="1.1" xmlns="http://www.w3.org/2000/svg" viewBox="0 0 325.87109375 294.75390625"
  width="651.7421875" height="589.5078125">
  <!-- svg-source:excalidraw -->

  <defs>
    <style class="style-fonts">
      @font-face {
      font-family: "Virgil";
      src: url("https://excalidraw.com/Virgil.woff2");
      }
      @font-face {
      font-family: "Cascadia";
      src: url("https://excalidraw.com/Cascadia.woff2");
      }
    </style>
  </defs>
  <g stroke-linecap="round" transform="translate(10 19.45703125) rotate(0 31 28.5)">
    <path
      d="M17.41 3.56 C22.89 0.91, 33.11 -0.7, 39.46 0.82 C45.81 2.35, 51.62 7.58, 55.5 12.71 C59.38 17.84, 63.31 25.54, 62.75 31.6 C62.2 37.65, 56.99 44.7, 52.15 49.04 C47.31 53.39, 40.26 57.05, 33.72 57.68 C27.19 58.3, 18.44 56.42, 12.94 52.79 C7.44 49.16, 2.34 41.8, 0.7 35.9 C-0.94 30.01, -0.21 23.14, 3.12 17.41 C6.46 11.68, 16.98 4.38, 20.68 1.52 C24.39 -1.34, 25.05 -0.3, 25.37 0.27 M43.52 1.75 C49.33 3.61, 55.67 9.38, 58.65 14.84 C61.63 20.3, 62.74 28.42, 61.39 34.5 C60.03 40.58, 56.14 47.61, 50.54 51.31 C44.93 55.01, 34.57 56.93, 27.77 56.68 C20.96 56.44, 14.48 54.23, 9.69 49.86 C4.89 45.49, -0.03 36.74, -0.98 30.47 C-1.94 24.2, 0.34 17.06, 3.96 12.24 C7.58 7.43, 14.18 3.16, 20.73 1.56 C27.28 -0.04, 39.74 2.47, 43.27 2.65 C46.8 2.82, 42.15 2.02, 41.92 2.6"
      stroke="#000000" stroke-width="1" fill="none"></path>
  </g>
  <g transform="translate(21.5 37.95703125) rotate(0 19.5 10)">
    <text x="19.5" y="14" font-family="Virgil, Segoe UI Emoji" font-size="16px" fill="#000000"
      text-anchor="middle" style="white-space: pre;" direction="ltr">Deck</text>
  </g>
  <g stroke-linecap="round" transform="translate(155.87109375 10.2890625) rotate(0 80 29.5)">
    <path
      d="M92.85 0.93 C104.64 1.3, 119.44 3.32, 129.37 6.1 C139.31 8.88, 147.47 13.58, 152.45 17.59 C157.43 21.61, 159.84 25.66, 159.24 30.2 C158.64 34.74, 154.9 40.69, 148.83 44.81 C142.77 48.92, 133.47 52.53, 122.87 54.88 C112.27 57.24, 97.57 58.62, 85.24 58.94 C72.92 59.26, 60.08 58.69, 48.92 56.81 C37.76 54.92, 26.21 51.18, 18.31 47.61 C10.41 44.05, 4.06 39.94, 1.51 35.42 C-1.05 30.91, -0.6 25.01, 2.97 20.53 C6.53 16.05, 14.12 11.73, 22.88 8.53 C31.64 5.32, 43.02 2.63, 55.54 1.33 C68.07 0.02, 89.92 0.68, 98.02 0.69 C106.12 0.71, 104.21 0.82, 104.15 1.42 M68.54 -0.54 C80.06 -1.79, 96.82 -0.49, 108.72 0.98 C120.62 2.45, 131.69 4.92, 139.93 8.27 C148.18 11.62, 155.28 16.45, 158.17 21.07 C161.07 25.7, 160.06 31.59, 157.29 36.02 C154.53 40.45, 149.39 44.39, 141.59 47.64 C133.78 50.88, 122.03 53.56, 110.46 55.49 C98.88 57.41, 84.6 59.56, 72.12 59.18 C59.65 58.81, 46.24 56.01, 35.62 53.21 C25.01 50.42, 14.33 46.26, 8.43 42.4 C2.52 38.53, 0.09 34.14, 0.18 30.02 C0.28 25.9, 3.6 21.86, 8.99 17.66 C14.38 13.46, 22.68 7.67, 32.53 4.84 C42.37 2.01, 61.89 1.19, 68.08 0.69 C74.27 0.19, 69.36 1.51, 69.68 1.84"
      stroke="#000000" stroke-width="1" fill="none"></path>
  </g>
  <g transform="translate(163.87109375 29.7890625) rotate(0 72 10)">
    <text x="72" y="14" font-family="Virgil, Segoe UI Emoji" font-size="16px" fill="#000000"
      text-anchor="middle" style="white-space: pre;" direction="ltr">deck_collaborator</text>
  </g>
  <g stroke-linecap="round"
    transform="translate(16.453125 122.51953125) rotate(0 30.271484375 26.11328125)">
    <path
      d="M31.1 0.49 C37.58 0.4, 46.9 2.6, 51.68 6.34 C56.45 10.09, 59.01 17.25, 59.75 22.95 C60.49 28.66, 59.55 35.92, 56.13 40.57 C52.71 45.22, 45.62 49.12, 39.23 50.83 C32.84 52.53, 23.81 52.99, 17.78 50.78 C11.76 48.57, 6.02 42.62, 3.05 37.57 C0.09 32.52, -1.44 25.98, 0.01 20.48 C1.45 14.98, 6.4 7.79, 11.74 4.55 C17.09 1.3, 28.33 1.81, 32.08 1.02 C35.83 0.24, 34.01 -0.32, 34.23 -0.18 M44.25 3.19 C50.41 4.85, 56.16 9.22, 58.93 14.22 C61.69 19.22, 62.77 27.77, 60.82 33.2 C58.87 38.62, 52.89 43.74, 47.22 46.77 C41.56 49.8, 33.29 51.83, 26.85 51.38 C20.41 50.93, 12.98 47.79, 8.59 44.07 C4.2 40.36, 0.92 34.8, 0.51 29.1 C0.09 23.39, 2.38 14.71, 6.1 9.84 C9.82 4.98, 16.57 0.89, 22.83 -0.09 C29.08 -1.08, 40.21 3.46, 43.65 3.94 C47.08 4.43, 43.51 2.68, 43.43 2.81"
      stroke="#000000" stroke-width="1" fill="none"></path>
  </g>
  <g transform="translate(28.724609375 138.6328125) rotate(0 18 10)">
    <text x="18" y="14" font-family="Virgil, Segoe UI Emoji" font-size="16px" fill="#000000"
      text-anchor="middle" style="white-space: pre;" direction="ltr">slide</text>
  </g>
  <g stroke-linecap="round" transform="translate(14.92578125 233.75390625) rotate(0 45 25.5)">
    <path
      d="M41.92 0.93 C50.23 0.33, 62.26 2.22, 69.76 4.6 C77.26 6.98, 83.88 10.67, 86.92 15.23 C89.96 19.79, 90.12 26.97, 88.02 31.97 C85.92 36.96, 81.03 42.02, 74.3 45.21 C67.56 48.4, 56.32 50.68, 47.6 51.12 C38.89 51.56, 29.32 50.59, 22.02 47.84 C14.72 45.08, 7.27 39.33, 3.8 34.58 C0.34 29.83, -0.75 24.21, 1.25 19.34 C3.24 14.46, 8.25 8.4, 15.79 5.34 C23.33 2.29, 40.45 1.68, 46.46 1 C52.47 0.33, 51.72 0.97, 51.84 1.27 M37.7 0.11 C46.2 -0.77, 58.08 0.68, 65.94 3.01 C73.79 5.33, 81.07 9.51, 84.83 14.06 C88.58 18.6, 89.78 25.61, 88.46 30.3 C87.13 34.98, 82.59 38.81, 76.89 42.14 C71.18 45.47, 63 49.08, 54.22 50.28 C45.44 51.48, 32.41 51.46, 24.22 49.37 C16.04 47.27, 9.34 42.17, 5.13 37.72 C0.93 33.26, -2.34 27.85, -1.01 22.65 C0.32 17.44, 6.98 10.43, 13.1 6.48 C19.22 2.53, 31.6 -0.16, 35.7 -1.07 C39.79 -1.99, 37.51 0.11, 37.68 0.98"
      stroke="#000000" stroke-width="1" fill="none"></path>
  </g>
  <g transform="translate(20.42578125 249.25390625) rotate(0 39.5 10)">
    <text x="39.5" y="14" font-family="Virgil, Segoe UI Emoji" font-size="16px" fill="#000000"
      text-anchor="middle" style="white-space: pre;" direction="ltr">component</text>
  </g>
  <g stroke-linecap="round">
    <g
      transform="translate(36.72454618431743 78.59772313005942) rotate(0 -0.32958336903345753 20.916700177232485)">
      <path
        d="M0.21 -0.69 C0.16 6.25, 0.37 35.25, 0.51 42.52 M-1.13 1.57 C-1.36 8.07, -0.46 34.14, -0.13 40.74"
        stroke="#000000" stroke-width="1" fill="none"></path>
    </g>
    <g
      transform="translate(36.72454618431743 78.59772313005942) rotate(0 -0.32958336903345753 20.916700177232485)">
      <path
        d="M-9.22 22.36 C-3.91 30.38, -0.28 34.79, -0.88 42.69 M-8.7 21.79 C-5.49 28.47, -3.15 35.57, -0.76 40.65"
        stroke="#000000" stroke-width="1" fill="none"></path>
    </g>
    <g
      transform="translate(36.72454618431743 78.59772313005942) rotate(0 -0.32958336903345753 20.916700177232485)">
      <path
        d="M5.09 21.79 C5.13 30.04, 3.48 34.67, -0.88 42.69 M5.61 21.21 C3.79 28.12, 1.1 35.42, -0.76 40.65"
        stroke="#000000" stroke-width="1" fill="none"></path>
    </g>
  </g>
  <mask></mask>
  <g stroke-linecap="round">
    <g
      transform="translate(41.80338943058268 178.4166988444315) rotate(0 0.8002394359317577 26.332733638805905)">
      <path
        d="M0.93 0.25 C1.16 8.99, 1.32 44.51, 1.64 53.33 M-0.04 -0.66 C-0.03 7.64, 0.03 42.88, 0.45 51.5"
        stroke="#000000" stroke-width="1" fill="none"></path>
    </g>
    <g
      transform="translate(41.80338943058268 178.4166988444315) rotate(0 0.8002394359317577 26.332733638805905)">
      <path
        d="M-8.69 26.12 C-4.93 35.91, -2.13 40.93, 0.97 51.56 M-9.19 26.9 C-5.2 35.02, -2.9 44.26, 0.44 50.72"
        stroke="#000000" stroke-width="1" fill="none"></path>
    </g>
    <g
      transform="translate(41.80338943058268 178.4166988444315) rotate(0 0.8002394359317577 26.332733638805905)">
      <path
        d="M9.37 25.73 C7.36 35.79, 4.4 40.93, 0.97 51.56 M8.87 26.52 C6.52 34.68, 2.49 44.06, 0.44 50.72"
        stroke="#000000" stroke-width="1" fill="none"></path>
    </g>
  </g>
  <mask></mask>
  <g stroke-linecap="round">
    <g
      transform="translate(75.320865318095 40.721859038672164) rotate(0 37.94449881278183 -0.18063215029320645)">
      <path
        d="M-0.31 -1.12 C12.59 -1.4, 63.76 -1.26, 76.2 -0.97 M1.73 0.91 C14.65 0.69, 63.23 0.47, 75.73 0.07"
        stroke="#000000" stroke-width="1" fill="none"></path>
    </g>
    <g
      transform="translate(75.320865318095 40.721859038672164) rotate(0 37.94449881278183 -0.18063215029320645)">
      <path
        d="M45.85 12.3 C51.71 7.1, 59.9 4.69, 76.5 -0.92 M47.39 9.84 C55.93 6.72, 65.62 4.95, 75.12 -0.06"
        stroke="#000000" stroke-width="1" fill="none"></path>
    </g>
    <g
      transform="translate(75.320865318095 40.721859038672164) rotate(0 37.94449881278183 -0.18063215029320645)">
      <path
        d="M45.51 -8.22 C51.56 -9.3, 59.82 -7.59, 76.5 -0.92 M47.05 -10.68 C55.49 -7.5, 65.29 -2.96, 75.12 -0.06"
        stroke="#000000" stroke-width="1" fill="none"></path>
    </g>
  </g>
  <mask></mask>
  <g transform="translate(52.19140625 79.7265625) rotate(0 3 10)">
    <text x="0" y="14" font-family="Virgil, Segoe UI Emoji" font-size="16px" fill="#000000"
      text-anchor="start" style="white-space: pre;" direction="ltr">1</text>
  </g>
  <g transform="translate(51.484375 101.83984375) rotate(0 5 10)">
    <text x="0" y="14" font-family="Virgil, Segoe UI Emoji" font-size="16px" fill="#000000"
      text-anchor="start" style="white-space: pre;" direction="ltr">*</text>
  </g>
  <g transform="translate(60.19140625 175.7265625) rotate(0 3 10)">
    <text x="0" y="14" font-family="Virgil, Segoe UI Emoji" font-size="16px" fill="#000000"
      text-anchor="start" style="white-space: pre;" direction="ltr">1</text>
  </g>
  <g transform="translate(59.984375 207.36328125) rotate(0 5 10)">
    <text x="0" y="14" font-family="Virgil, Segoe UI Emoji" font-size="16px" fill="#000000"
      text-anchor="start" style="white-space: pre;" direction="ltr">*</text>
  </g>
  <g transform="translate(79.19140625 10.7265625) rotate(0 3 10)">
    <text x="0" y="14" font-family="Virgil, Segoe UI Emoji" font-size="16px" fill="#000000"
      text-anchor="start" style="white-space: pre;" direction="ltr">1</text>
  </g>
  <g transform="translate(128.80859375 10) rotate(0 5 10)">
    <text x="0" y="14" font-family="Virgil, Segoe UI Emoji" font-size="16px" fill="#000000"
      text-anchor="start" style="white-space: pre;" direction="ltr">*</text>
  </g>
</svg>