<svg version="1.1" xmlns="http://www.w3.org/2000/svg" viewBox="0 0 445.015625 203.06640625"
  width="890.03125" height="406.1328125">
  <!-- svg-source:excalidraw -->

  <defs>
    <style class="style-fonts">
      @font-face {
      font-family: "Virgil";
      src: url("https://excalidraw.com/Virgil.woff2");
      }
      @font-face {
      font-family: "Cascadia";
      src: url("https://excalidraw.com/Cascadia.woff2");
      }
    </style>
  </defs>
  <g stroke-linecap="round"
    transform="translate(231.71484375 10) rotate(0 37.76953125 33.134765625)">
    <path
      d="M21.56 4.1 C27.6 0.9, 37.26 -1.32, 44.44 -0.31 C51.62 0.7, 59.41 5.12, 64.65 10.14 C69.88 15.15, 74.83 23.43, 75.84 29.77 C76.84 36.11, 74.36 42.73, 70.65 48.19 C66.94 53.66, 60.4 59.58, 53.59 62.57 C46.79 65.55, 37.07 67.25, 29.82 66.08 C22.57 64.92, 14.92 60.35, 10.08 55.59 C5.25 50.82, 1.73 43.77, 0.79 37.49 C-0.14 31.21, -0.22 23.94, 4.47 17.9 C9.17 11.86, 23.53 4.22, 28.97 1.24 C34.41 -1.73, 37.1 -0.35, 37.12 0.04 M31.63 -0.99 C38.42 -2.17, 48.99 -0.02, 55.74 3.38 C62.49 6.78, 68.91 13.38, 72.13 19.43 C75.35 25.47, 76.35 33.19, 75.08 39.66 C73.81 46.12, 69.9 53.66, 64.51 58.2 C59.13 62.74, 49.95 66.07, 42.78 66.9 C35.61 67.72, 28.15 66.4, 21.48 63.14 C14.81 59.88, 6.46 53.26, 2.74 47.33 C-0.97 41.4, -2.01 33.68, -0.8 27.57 C0.4 21.46, 4.58 15.04, 9.95 10.68 C15.32 6.32, 27.69 2.82, 31.41 1.4 C35.14 -0.01, 32.24 1.78, 32.29 2.2"
      stroke="#000000" stroke-width="1" fill="none"></path>
  </g>
  <g transform="translate(244.484375 33.134765625) rotate(0 25 10)">
    <text x="25" y="14" font-family="Virgil, Segoe UI Emoji" font-size="16px" fill="#000000"
      text-anchor="middle" style="white-space: pre;" direction="ltr">Server</text>
  </g>
  <g stroke-linecap="round" transform="translate(64.3125 111.625) rotate(0 29.3984375 19.875)">
    <path
      d="M34.69 -0.07 C40.79 0.48, 48.58 3.35, 52.48 6.69 C56.37 10.02, 58.12 15.69, 58.05 19.92 C57.99 24.15, 56.01 28.67, 52.07 32.06 C48.13 35.46, 40.75 39.48, 34.43 40.29 C28.12 41.1, 19.74 39.24, 14.18 36.92 C8.62 34.6, 2.99 30.49, 1.07 26.37 C-0.85 22.25, 0.34 16.21, 2.68 12.2 C5.01 8.19, 8.99 4.26, 15.08 2.32 C21.18 0.38, 34.28 0.44, 39.24 0.55 C44.2 0.66, 44.82 2.65, 44.85 2.99 M28.31 1.41 C33.84 0.88, 41.1 0.21, 46.06 2.67 C51.03 5.13, 56.54 12, 58.11 16.19 C59.68 20.38, 58.5 24.04, 55.49 27.83 C52.48 31.62, 45.93 37.17, 40.06 38.94 C34.18 40.7, 26.22 39.75, 20.23 38.43 C14.24 37.11, 7.41 34.34, 4.12 31 C0.83 27.66, -0.25 22.59, 0.49 18.38 C1.23 14.17, 3.91 8.65, 8.58 5.73 C13.24 2.81, 25.18 1.62, 28.47 0.85 C31.76 0.08, 28.29 0.89, 28.31 1.09"
      stroke="#000000" stroke-width="1" fill="none"></path>
  </g>
  <g transform="translate(72.7109375 121.5) rotate(0 21 10)">
    <text x="21" y="14" font-family="Virgil, Segoe UI Emoji" font-size="16px" fill="#000000"
      text-anchor="middle" style="white-space: pre;" direction="ltr">client</text>
  </g>
  <g stroke-linecap="round">
    <g
      transform="translate(79.90749744768436 112.74182999193346) rotate(0 -22.20080781309366 -4.216775576693891)">
      <path
        d="M0.79 -0.14 C-6.49 -3.94, -41.29 -25.07, -44.26 -22.5 C-47.22 -19.92, -21.55 8.78, -17.01 15.3 M-0.26 -1.27 C-7.59 -5.43, -41.97 -27.12, -44.95 -24.23 C-47.92 -21.34, -22.73 9.05, -18.1 16.06"
        stroke="#c92a2a" stroke-width="1" fill="none"></path>
    </g>
    <g
      transform="translate(79.90749744768436 112.74182999193346) rotate(0 -22.20080781309366 -4.216775576693891)">
      <path
        d="M-38.71 3.53 C-32.15 4.87, -30.08 8.1, -17.69 16.52 M-39.04 2.17 C-32.09 7.12, -25.33 11.34, -19.08 16.9"
        stroke="#c92a2a" stroke-width="1" fill="none"></path>
    </g>
    <g
      transform="translate(79.90749744768436 112.74182999193346) rotate(0 -22.20080781309366 -4.216775576693891)">
      <path
        d="M-25.36 -6.43 C-22.1 -2.54, -23.34 3.17, -17.69 16.52 M-25.7 -7.8 C-23.14 0.52, -20.75 8, -19.08 16.9"
        stroke="#c92a2a" stroke-width="1" fill="none"></path>
    </g>
  </g>
  <mask></mask>
  <g transform="translate(10 67.2265625) rotate(0 28 10)">
    <text x="0" y="14" font-family="Virgil, Segoe UI Emoji" font-size="16px" fill="#c92a2a"
      text-anchor="start" style="white-space: pre;" direction="ltr">1. write</text>
  </g>
  <g mask="url(#mask-HIm789-Jrad6dLxVDhfGj)" stroke-linecap="round">
    <g
      transform="translate(125.0334151858251 125.91748319305742) rotate(0 54.49966554236312 -34.87631442119101)">
      <path
        d="M-1.15 -0.46 C17.15 -12.06, 91.88 -57.77, 110.15 -69.29 M0.45 -1.75 C18.66 -13.21, 91.97 -56.8, 109.79 -67.94"
        stroke="#5f3dc4" stroke-width="1" fill="none"></path>
    </g>
    <g
      transform="translate(125.0334151858251 125.91748319305742) rotate(0 54.49966554236312 -34.87631442119101)">
      <path
        d="M90.26 -42.64 C96.58 -53.04, 102.33 -59.8, 108.12 -66.16 M90.48 -45.52 C96.66 -50.66, 100.94 -57.48, 109.26 -68.59"
        stroke="#5f3dc4" stroke-width="1" fill="none"></path>
    </g>
    <g
      transform="translate(125.0334151858251 125.91748319305742) rotate(0 54.49966554236312 -34.87631442119101)">
      <path
        d="M79.6 -60.18 C89.49 -64.67, 98.77 -65.64, 108.12 -66.16 M79.82 -63.05 C88.76 -63.52, 95.89 -65.65, 109.26 -68.59"
        stroke="#5f3dc4" stroke-width="1" fill="none"></path>
    </g>
  </g>
  <mask id="mask-HIm789-Jrad6dLxVDhfGj">
    <rect x="0" y="0" fill="#fff" width="334.04907116468166" height="294.85114747510954"></rect>
    <rect x="150.54124317525338" y="81.45065105203139" fill="#000" width="58" height="20"
      opacity="1"></rect>
  </mask>
  <g
    transform="translate(150.54124317525338 81.45065105203139) rotate(0 28.99183755293484 9.59051771983502)">
    <text x="29" y="14" font-family="Virgil, Segoe UI Emoji" font-size="16px" fill="#5f3dc4"
      text-anchor="middle" style="white-space: pre;" direction="ltr">2. push</text>
  </g>
  <g stroke-linecap="round"
    transform="translate(197.1328125 150.390625) rotate(0 29.3984375 19.875)">
    <path
      d="M36.26 0.89 C42.04 1.73, 48.34 4.97, 51.97 8.31 C55.61 11.65, 58.27 16.85, 58.05 20.92 C57.84 25, 55.02 29.74, 50.68 32.77 C46.34 35.8, 38.15 38.44, 32.01 39.1 C25.86 39.75, 18.97 39.08, 13.82 36.72 C8.67 34.35, 2.88 28.98, 1.1 24.91 C-0.68 20.83, 0.6 16.09, 3.15 12.27 C5.69 8.45, 10.47 3.89, 16.36 1.97 C22.24 0.04, 34.48 0.73, 38.44 0.74 C42.41 0.75, 40.26 1.55, 40.13 2.01 M33.05 0.95 C38.75 0.86, 46.55 2.43, 51.08 5.43 C55.61 8.42, 59.95 14.66, 60.22 18.92 C60.5 23.18, 56.89 27.56, 52.73 31.01 C48.57 34.46, 41.57 38.46, 35.26 39.63 C28.95 40.79, 20.14 40.03, 14.86 37.99 C9.58 35.95, 5.82 31.57, 3.59 27.37 C1.36 23.17, -0.25 16.85, 1.47 12.79 C3.2 8.73, 8.68 5.03, 13.93 3.01 C19.18 0.98, 29.72 0.8, 32.98 0.63 C36.23 0.46, 33.27 1.64, 33.47 1.97"
      stroke="#000000" stroke-width="1" fill="none"></path>
  </g>
  <g transform="translate(205.53125 160.265625) rotate(0 21 10)">
    <text x="21" y="14" font-family="Virgil, Segoe UI Emoji" font-size="16px" fill="#000000"
      text-anchor="middle" style="white-space: pre;" direction="ltr">client</text>
  </g>
  <g stroke-linecap="round"
    transform="translate(286.390625 153.31640625) rotate(0 29.3984375 19.875)">
    <path
      d="M32.4 0.08 C38.3 0.44, 46.49 3.57, 50.93 6.64 C55.37 9.71, 58.52 14.27, 59.03 18.5 C59.54 22.73, 57.82 28.39, 54.01 32.01 C50.2 35.62, 42.34 39.33, 36.19 40.18 C30.03 41.03, 22.58 39.27, 17.07 37.11 C11.57 34.95, 5.85 31, 3.18 27.22 C0.5 23.44, -0.71 18.37, 1.04 14.44 C2.78 10.52, 7.97 6.17, 13.63 3.69 C19.3 1.2, 31.35 -0.09, 35.05 -0.48 C38.74 -0.86, 35.92 0.99, 35.8 1.39 M33.03 -0.54 C38.84 -0.76, 44.62 1.39, 48.79 4.34 C52.96 7.28, 57.11 12.49, 58.05 17.11 C58.99 21.74, 57.96 28.56, 54.43 32.07 C50.91 35.58, 43.15 37, 36.89 38.16 C30.63 39.33, 22.68 40.92, 16.88 39.05 C11.08 37.19, 4.83 31.05, 2.1 26.98 C-0.63 22.92, -1.4 18.77, 0.47 14.66 C2.35 10.55, 8.18 4.61, 13.34 2.31 C18.51 0.01, 28.59 1.37, 31.46 0.88 C34.34 0.4, 30.75 -0.62, 30.57 -0.6"
      stroke="#000000" stroke-width="1" fill="none"></path>
  </g>
  <g transform="translate(294.7890625 163.19140625) rotate(0 21 10)">
    <text x="21" y="14" font-family="Virgil, Segoe UI Emoji" font-size="16px" fill="#000000"
      text-anchor="middle" style="white-space: pre;" direction="ltr">client</text>
  </g>
  <g stroke-linecap="round" transform="translate(376.21875 129.328125) rotate(0 29.3984375 19.875)">
    <path
      d="M34.55 -0.15 C40.51 0.17, 47.38 2.83, 51.53 6.27 C55.68 9.72, 59.26 16.28, 59.46 20.52 C59.66 24.77, 56.83 28.51, 52.74 31.74 C48.66 34.96, 41.29 39.15, 34.94 39.88 C28.58 40.61, 20.27 38.45, 14.64 36.11 C9 33.77, 3.32 29.57, 1.13 25.85 C-1.07 22.12, -0.87 17.56, 1.46 13.76 C3.79 9.97, 8.75 5.22, 15.1 3.08 C21.45 0.94, 35.03 0.88, 39.55 0.9 C44.07 0.92, 42.39 2.8, 42.2 3.2 M17.67 1.3 C23.17 -0.56, 31.92 1.03, 38.01 2.1 C44.1 3.16, 50.85 4.56, 54.21 7.68 C57.56 10.8, 59.06 16.42, 58.15 20.8 C57.25 25.18, 53.05 30.68, 48.76 33.95 C44.46 37.23, 38.61 40.07, 32.37 40.45 C26.12 40.84, 16.66 38.6, 11.28 36.25 C5.89 33.89, 1.49 30.52, 0.05 26.33 C-1.4 22.15, -0.4 15.32, 2.61 11.14 C5.62 6.95, 15.58 2.58, 18.11 1.22 C20.65 -0.14, 17.95 2.63, 17.84 2.97"
      stroke="#000000" stroke-width="1" fill="none"></path>
  </g>
  <g transform="translate(384.6171875 139.203125) rotate(0 21 10)">
    <text x="21" y="14" font-family="Virgil, Segoe UI Emoji" font-size="16px" fill="#000000"
      text-anchor="middle" style="white-space: pre;" direction="ltr">client</text>
  </g>
  <g stroke-linecap="round">
    <g transform="translate(260.4765625 80.1796875) rotate(0 -12.182116722133742 34.45245878730435)">
      <path
        d="M0.22 0.62 C-3.62 12.13, -19.71 57.82, -23.92 69.01 M-1.12 -0.1 C-4.99 11.11, -20.42 55.95, -24.58 67.47"
        stroke="#2b8a3e" stroke-width="1" fill="none"></path>
    </g>
    <g transform="translate(260.4765625 80.1796875) rotate(0 -12.182116722133742 34.45245878730435)">
      <path
        d="M-23.89 38.38 C-23.02 43.3, -25.05 51.26, -25.88 66.74 M-25.59 38.08 C-24.12 47.03, -24.12 56.09, -25.07 67.04"
        stroke="#2b8a3e" stroke-width="1" fill="none"></path>
    </g>
    <g transform="translate(260.4765625 80.1796875) rotate(0 -12.182116722133742 34.45245878730435)">
      <path
        d="M-4.53 45.19 C-8.03 48.61, -14.43 55.02, -25.88 66.74 M-6.23 44.88 C-10.88 51.59, -17.03 58.48, -25.07 67.04"
        stroke="#2b8a3e" stroke-width="1" fill="none"></path>
    </g>
  </g>
  <mask></mask>
  <g stroke-linecap="round">
    <g transform="translate(282.40625 78.8984375) rotate(0 14.453219527187912 34.95983540692367)">
      <path
        d="M0.48 -0.07 C5.47 11.48, 24.86 58.33, 29.64 70.12 M-0.73 -1.15 C4.21 10.43, 24.31 58.93, 29.21 71.07"
        stroke="#2b8a3e" stroke-width="1" fill="none"></path>
    </g>
    <g transform="translate(282.40625 78.8984375) rotate(0 14.453219527187912 34.95983540692367)">
      <path
        d="M8.9 50.52 C12.88 55.75, 19.37 60.01, 30.06 72.37 M9.02 48.94 C15.24 54.87, 22.03 61.89, 28.95 71.64"
        stroke="#2b8a3e" stroke-width="1" fill="none"></path>
    </g>
    <g transform="translate(282.40625 78.8984375) rotate(0 14.453219527187912 34.95983540692367)">
      <path
        d="M27.89 42.73 C26.69 50.19, 27.94 56.59, 30.06 72.37 M28 41.16 C28.47 49.36, 29.47 58.75, 28.95 71.64"
        stroke="#2b8a3e" stroke-width="1" fill="none"></path>
    </g>
  </g>
  <mask></mask>
  <g stroke-linecap="round">
    <g transform="translate(300.36328125 62.78125) rotate(0 42.11623016435192 34.9973571792664)">
      <path
        d="M1.13 0.43 C15.06 12.29, 70.03 58.92, 83.96 70.38 M0.27 -0.39 C14.01 11.15, 69.01 56.63, 83.04 68.37"
        stroke="#2b8a3e" stroke-width="1" fill="none"></path>
    </g>
    <g transform="translate(300.36328125 62.78125) rotate(0 42.11623016435192 34.9973571792664)">
      <path
        d="M55.52 58.29 C64.46 62.7, 71.93 65.74, 82.91 66.57 M54.01 58.19 C64.94 60.8, 73.26 64.26, 83.26 67.69"
        stroke="#2b8a3e" stroke-width="1" fill="none"></path>
    </g>
    <g transform="translate(300.36328125 62.78125) rotate(0 42.11623016435192 34.9973571792664)">
      <path
        d="M68.63 42.51 C73.1 52.3, 76.21 60.59, 82.91 66.57 M67.13 42.41 C73.49 50.37, 77.35 59.2, 83.26 67.69"
        stroke="#2b8a3e" stroke-width="1" fill="none"></path>
    </g>
  </g>
  <mask></mask>
  <g transform="translate(269.8203125 85.05859375) rotate(0 60 10)">
    <text x="0" y="14" font-family="Virgil, Segoe UI Emoji" font-size="16px" fill="#2b8a3e"
      text-anchor="start" style="white-space: pre;" direction="ltr">3. rebroadcast</text>
  </g>
</svg>