<svg version="1.1" xmlns="http://www.w3.org/2000/svg" viewBox="0 0 319.6557070070976 221.91901077488137" width="639.3114140141952" height="443.83802154976274">
  <!-- svg-source:excalidraw -->
  
  <defs>
    <style class="style-fonts">
      @font-face {
        font-family: "Virgil";
        src: url("https://excalidraw.com/Virgil.woff2");
      }
      @font-face {
        font-family: "Cascadia";
        src: url("https://excalidraw.com/Cascadia.woff2");
      }
    </style>
  </defs>
  <g stroke-linecap="round" transform="translate(24.022127344221417 41.88253100626173) rotate(0 24.146484375 22.99609375)"><path d="M15.99 0.74 C20.62 -1.55, 27.01 -1.36, 31.96 0.18 C36.91 1.72, 43.12 5.58, 45.68 9.98 C48.24 14.38, 48.23 21.63, 47.31 26.58 C46.4 31.53, 43.98 36.41, 40.21 39.67 C36.43 42.93, 29.67 45.99, 24.65 46.15 C19.63 46.31, 14.07 43.78, 10.09 40.65 C6.12 37.51, 2.09 32.05, 0.78 27.34 C-0.53 22.64, -0.47 16.84, 2.24 12.41 C4.96 7.99, 13.93 2.86, 17.07 0.79 C20.21 -1.28, 20.83 -0.28, 21.08 0 M22.06 0.96 C26.97 0.15, 33.39 2.17, 37.48 4.79 C41.56 7.41, 45.02 12.24, 46.56 16.68 C48.1 21.12, 48.54 26.83, 46.71 31.43 C44.89 36.02, 40.17 41.72, 35.61 44.27 C31.05 46.82, 24.49 47.76, 19.36 46.74 C14.23 45.72, 7.83 42.36, 4.84 38.16 C1.85 33.97, 1.1 26.63, 1.41 21.56 C1.72 16.5, 3.63 11.1, 6.68 7.77 C9.72 4.44, 17.28 2.62, 19.67 1.58 C22.06 0.55, 20.82 1.65, 21.01 1.58" stroke="#087f5b" stroke-width="1" fill="none"></path></g><g stroke-linecap="round" transform="translate(175.8678304692212 31.9684685062617) rotate(0 24.146484375 22.99609375)"><path d="M13.31 2.26 C17.37 0.1, 24.7 0.66, 29.67 1.84 C34.64 3.01, 40.01 5.39, 43.14 9.29 C46.26 13.2, 48.86 20.28, 48.42 25.27 C47.98 30.26, 44.23 35.65, 40.52 39.24 C36.81 42.84, 31.28 46.4, 26.15 46.85 C21.01 47.31, 13.97 45.1, 9.69 41.96 C5.41 38.83, 1.62 33, 0.45 28.05 C-0.71 23.09, 0.21 16.59, 2.71 12.24 C5.21 7.89, 13.21 3.72, 15.46 1.94 C17.71 0.17, 16.15 1.36, 16.21 1.61 M23.62 0.38 C28.6 -0.44, 35.74 1.05, 39.84 4 C43.95 6.94, 47.35 13.1, 48.26 18.05 C49.17 23.01, 47.59 29.3, 45.3 33.73 C43 38.15, 38.96 42.74, 34.48 44.6 C30 46.45, 23.31 46.13, 18.41 44.85 C13.51 43.57, 8.19 40.98, 5.08 36.93 C1.97 32.88, -0.73 25.89, -0.25 20.55 C0.24 15.21, 3.89 8.3, 7.97 4.87 C12.06 1.44, 21.6 0.79, 24.24 -0.03 C26.88 -0.84, 24.24 -0.46, 23.8 -0.03" stroke="#087f5b" stroke-width="1" fill="none"></path></g><g stroke-linecap="round" transform="translate(245.2467367192212 144.1442497562617) rotate(0 24.146484375 22.99609375)"><path d="M33.54 0.74 C38.24 2.24, 44.27 6.81, 46.52 11.38 C48.76 15.95, 48.28 23.27, 47.01 28.16 C45.74 33.04, 42.92 37.7, 38.91 40.7 C34.9 43.69, 27.98 46.32, 22.96 46.14 C17.95 45.96, 12.55 43, 8.81 39.61 C5.06 36.21, 1.45 30.52, 0.49 25.76 C-0.46 21, 0.51 15.14, 3.1 11.03 C5.68 6.91, 10.75 2.68, 16.02 1.08 C21.29 -0.51, 31.54 1.21, 34.72 1.44 C37.9 1.67, 35.41 2.01, 35.13 2.46 M29.51 1.69 C34.1 2.35, 39.38 5.8, 42.55 9.42 C45.72 13.04, 48.56 18.44, 48.54 23.41 C48.51 28.39, 45.84 35.31, 42.42 39.25 C38.99 43.19, 33.16 46.32, 27.96 47.06 C22.76 47.8, 15.44 46.57, 11.21 43.67 C6.98 40.78, 4.09 34.51, 2.57 29.69 C1.05 24.86, 0.6 18.98, 2.08 14.71 C3.57 10.44, 6.97 6.3, 11.47 4.08 C15.98 1.87, 26.26 2.17, 29.1 1.42 C31.94 0.68, 28.57 -0.42, 28.54 -0.39" stroke="#087f5b" stroke-width="1" fill="none"></path></g><g stroke-linecap="round" transform="translate(100.95376796922119 145.8317497562617) rotate(0 24.146484375 22.99609375)"><path d="M32.03 2.59 C36.7 3.88, 41.76 7.14, 44.43 11.31 C47.1 15.48, 49.01 22.69, 48.05 27.61 C47.09 32.52, 42.72 37.59, 38.66 40.81 C34.59 44.03, 28.81 46.97, 23.66 46.91 C18.51 46.86, 11.7 44.02, 7.75 40.49 C3.8 36.96, 0.6 30.78, -0.04 25.73 C-0.68 20.67, 1.15 14.18, 3.9 10.16 C6.66 6.14, 11.25 2.77, 16.5 1.59 C21.75 0.41, 31.8 2.53, 35.4 3.09 C39.01 3.64, 38.22 4.54, 38.12 4.93 M33.65 0.79 C38.34 2.11, 43.36 7.38, 45.68 11.81 C47.99 16.24, 48.4 22.48, 47.54 27.37 C46.67 32.25, 44.19 38.01, 40.49 41.09 C36.8 44.17, 30.5 45.7, 25.38 45.84 C20.25 45.99, 13.99 45.06, 9.75 41.96 C5.51 38.86, 0.96 32.57, -0.07 27.26 C-1.09 21.95, 0.68 14.44, 3.58 10.12 C6.48 5.79, 12.37 2.85, 17.33 1.31 C22.3 -0.23, 31.12 0.76, 33.39 0.89 C35.66 1.01, 31.43 1.62, 30.95 2.08" stroke="#087f5b" stroke-width="1" fill="none"></path></g><g stroke-linecap="round"><g transform="translate(271.3258382817212 123.9997185062617) rotate(0 -2.703371144061748 43.74753703591264)"><path d="M0.03 0.85 C-3.9 1.12, -17.14 -2.23, -24.07 2.05 C-30.99 6.33, -39.19 14.97, -41.53 26.53 C-43.86 38.08, -46.21 61.17, -38.07 71.4 C-29.92 81.63, -5.07 88.37, 7.34 87.9 C19.76 87.42, 32.37 80.31, 36.41 68.52 C40.46 56.74, 37.74 28.68, 31.62 17.19 C25.5 5.7, 5.05 2.61, -0.33 -0.42" stroke="#000000" stroke-width="1.5" fill="none" stroke-dasharray="1.5 7"></path></g></g><mask></mask><g stroke-linecap="round"><g transform="translate(210.4469320317212 11.0114372562617) rotate(0 -8.530282218614502 42.02824702435913)"><path d="M0.54 -0.72 C-5.94 0.28, -30.87 0.11, -39.83 6.56 C-48.8 13, -51.53 27.01, -53.23 37.95 C-54.94 48.89, -57.33 64.49, -50.07 72.2 C-42.81 79.91, -23.89 87.66, -9.65 84.23 C4.59 80.8, 28.93 61.41, 35.37 51.61 C41.81 41.8, 34.93 34.17, 29 25.4 C23.07 16.63, 4.6 3.33, -0.21 -1.01" stroke="#000000" stroke-width="1.5" fill="none" stroke-dasharray="1.5 7"></path></g></g><mask></mask><g stroke-linecap="round"><g transform="translate(136.4781820317212 132.1950310062617) rotate(0 -10.470356955621469 37.87018230787174)"><path d="M0.94 0.44 C-4.79 1.25, -26.29 -1.31, -35.1 4.82 C-43.91 10.94, -50.61 26.67, -51.91 37.21 C-53.2 47.75, -49.68 61.7, -42.87 68.06 C-36.07 74.43, -22.15 75.24, -11.08 75.39 C0 75.55, 16.8 76.43, 23.56 69.02 C30.33 61.61, 33.41 42.38, 29.53 30.92 C25.64 19.45, 5.11 5.36, 0.24 0.23" stroke="#000000" stroke-width="1.5" fill="none" stroke-dasharray="1.5 7"></path></g></g><mask></mask><g stroke-linecap="round"><g transform="translate(89.07583828172142 51.16768725626173) rotate(0 -39.306889008053076 13.594296538548193)"><path d="M0.46 0.91 C-3.22 -3.13, -13.03 -20.27, -22.54 -24.44 C-32.04 -28.6, -47.51 -27.39, -56.59 -24.09 C-65.66 -20.79, -73.59 -13.49, -77 -4.63 C-80.4 4.22, -79.06 19.43, -77 29.03 C-74.95 38.64, -72.65 49.69, -64.67 52.98 C-56.69 56.28, -38.82 52.72, -29.13 48.8 C-19.44 44.87, -11.32 37.6, -6.52 29.42 C-1.72 21.23, -1.28 4.63, -0.33 -0.3" stroke="#000000" stroke-width="1.5" fill="none" stroke-dasharray="1.5 7"></path></g></g><mask></mask></svg>