<svg version="1.1" xmlns="http://www.w3.org/2000/svg" viewBox="0 0 437.64453125 251.298828125" width="875.2890625" height="502.59765625">
  <!-- svg-source:excalidraw -->
  
  <defs>
    <style class="style-fonts">
      @font-face {
        font-family: "Virgil";
        src: url("https://excalidraw.com/Virgil.woff2");
      }
      @font-face {
        font-family: "Cascadia";
        src: url("https://excalidraw.com/Cascadia.woff2");
      }
    </style>
  </defs>
  <g stroke-linecap="round" transform="translate(69.0771484375 13.625000000000028) rotate(0 24.146484375 22.99609375)"><path d="M32.89 1.97 C37.77 3.45, 43.89 7.19, 46.45 11.35 C49.02 15.51, 49.61 21.86, 48.27 26.94 C46.93 32.01, 42.73 38.53, 38.4 41.78 C34.07 45.03, 27.38 46.67, 22.28 46.44 C17.18 46.21, 11.56 43.7, 7.8 40.4 C4.05 37.11, 0.47 31.58, -0.24 26.67 C-0.95 21.77, 0.6 15.38, 3.54 10.99 C6.47 6.6, 11.88 1.64, 17.36 0.32 C22.85 -1, 33 2.23, 36.45 3.07 C39.89 3.91, 38.46 5.13, 38.04 5.36 M21.93 -1.17 C27.1 -2.07, 35.38 0.74, 39.55 3.6 C43.73 6.45, 46.11 11.01, 46.96 15.98 C47.81 20.94, 46.78 28.7, 44.65 33.41 C42.53 38.12, 38.78 42.37, 34.23 44.23 C29.69 46.1, 22.57 46.16, 17.37 44.58 C12.17 42.99, 5.89 38.67, 3.02 34.71 C0.14 30.74, -0.45 25.44, 0.12 20.79 C0.69 16.15, 2.8 10.51, 6.45 6.85 C10.09 3.19, 19.16 -0.15, 21.97 -1.15 C24.79 -2.14, 23.05 0.55, 23.35 0.89" stroke="#087f5b" stroke-width="1" fill="none"></path></g><g transform="translate(86.2236328125 24.12109375000003) rotate(0 7 12.5)"><text x="7" y="18" font-family="Virgil, Segoe UI Emoji" font-size="20px" fill="#087f5b" text-anchor="middle" style="white-space: pre;" direction="ltr">A</text></g><g stroke-linecap="round" transform="translate(169.42161341471638 11.01953125) rotate(0 24.146484375 22.99609375)"><path d="M19.84 1.33 C24.58 0.33, 30.62 1.28, 34.94 3.44 C39.26 5.6, 43.64 9.93, 45.74 14.3 C47.84 18.67, 49 24.93, 47.54 29.65 C46.09 34.38, 41.47 40.05, 37 42.65 C32.53 45.25, 25.8 46.05, 20.71 45.24 C15.63 44.44, 9.89 41.39, 6.49 37.83 C3.08 34.27, 0.6 28.66, 0.29 23.89 C-0.01 19.12, 0.68 13.15, 4.65 9.24 C8.62 5.32, 20.07 1.9, 24.1 0.39 C28.14 -1.11, 28.97 -0.1, 28.86 0.2 M20.28 1.57 C24.9 0.72, 32.61 1.05, 36.92 3.33 C41.23 5.61, 44.47 10.42, 46.12 15.25 C47.77 20.07, 48.64 27.61, 46.81 32.28 C44.99 36.94, 40 41.27, 35.16 43.24 C30.33 45.2, 23.12 45.17, 17.81 44.07 C12.5 42.96, 6.28 40.49, 3.31 36.61 C0.34 32.72, -0.61 25.71, -0.01 20.76 C0.6 15.8, 3.53 10.13, 6.92 6.88 C10.3 3.63, 17.79 2.07, 20.3 1.26 C22.8 0.45, 21.93 1.62, 21.93 2.01" stroke="#c92a2a" stroke-width="1" fill="none"></path></g><g transform="translate(185.56809778971638 21.515625) rotate(0 8 12.5)"><text x="8" y="18" font-family="Virgil, Segoe UI Emoji" font-size="20px" fill="#c92a2a" text-anchor="middle" style="white-space: pre;" direction="ltr">B</text></g><g stroke-linecap="round" transform="translate(267.3486328125 10) rotate(0 24.146484375 22.99609375)"><path d="M15.58 0.89 C20.14 -1.43, 26.97 -1.67, 31.68 0.02 C36.4 1.71, 41.27 6.65, 43.86 11.01 C46.45 15.38, 47.78 21.35, 47.24 26.21 C46.69 31.08, 44.27 36.79, 40.57 40.18 C36.86 43.57, 30.19 46.31, 25.01 46.56 C19.82 46.81, 13.43 44.87, 9.45 41.68 C5.48 38.5, 2.2 32.25, 1.18 27.45 C0.17 22.65, 0.58 17.16, 3.36 12.88 C6.15 8.59, 15.13 3.85, 17.9 1.76 C20.67 -0.33, 19.95 0.16, 19.97 0.34 M31.38 0.03 C36.18 0.87, 40.52 4.06, 43.11 8.24 C45.7 12.42, 47.18 19.95, 46.92 25.12 C46.67 30.29, 45 35.92, 41.57 39.28 C38.13 42.63, 31.69 45.02, 26.33 45.27 C20.97 45.51, 13.65 43.38, 9.42 40.72 C5.19 38.06, 2.31 33.79, 0.96 29.32 C-0.38 24.85, -0.72 18.59, 1.34 13.9 C3.39 9.2, 8.35 3.27, 13.3 1.12 C18.26 -1.02, 28.07 1.28, 31.06 1.03 C34.05 0.79, 31.33 -0.61, 31.24 -0.35" stroke="#364fc7" stroke-width="1" fill="none"></path></g><g transform="translate(284.4951171875 20.49609375) rotate(0 7 12.5)"><text x="7" y="18" font-family="Virgil, Segoe UI Emoji" font-size="20px" fill="#364fc7" text-anchor="middle" style="white-space: pre;" direction="ltr">C</text></g><g stroke-linecap="round" transform="translate(350.33196531646445 11.201886852216205) rotate(0 24.146484375 22.99609375)"><path d="M18.01 1.07 C22.54 -0.46, 29.54 0.06, 34.38 2.11 C39.22 4.16, 44.85 8.73, 47.06 13.36 C49.27 17.99, 49.22 25.11, 47.63 29.87 C46.03 34.64, 41.83 39.34, 37.48 41.96 C33.13 44.58, 26.69 46.07, 21.54 45.58 C16.4 45.1, 10.31 42.52, 6.6 39.04 C2.88 35.56, -0.53 29.65, -0.75 24.7 C-0.97 19.75, 1.66 13.51, 5.3 9.35 C8.93 5.19, 18.43 1.23, 21.06 -0.25 C23.69 -1.74, 21.2 -0.11, 21.09 0.44 M21.43 -0.46 C26.31 -1.61, 32.38 -0.06, 36.82 2.86 C41.25 5.79, 46.45 12.18, 48.04 17.09 C49.63 22.01, 48.74 28.11, 46.35 32.36 C43.97 36.61, 38.7 40.44, 33.73 42.59 C28.75 44.73, 21.41 46.41, 16.5 45.22 C11.6 44.02, 6.99 39.51, 4.29 35.43 C1.59 31.35, 0.04 25.34, 0.31 20.74 C0.57 16.14, 2.19 11.04, 5.87 7.83 C9.56 4.63, 19.97 2.52, 22.43 1.5 C24.9 0.47, 20.73 1.63, 20.64 1.7" stroke="#e67700" stroke-width="1" fill="none"></path></g><g transform="translate(365.97844969146445 21.697980602216205) rotate(0 8.5 12.5)"><text x="8.5" y="18" font-family="Virgil, Segoe UI Emoji" font-size="20px" fill="#e67700" text-anchor="middle" style="white-space: pre;" direction="ltr">D</text></g><g stroke-linecap="round"><g transform="translate(93.66015625 60.666015625) rotate(0 0.5959050202673097 74.62189015038311)"><path d="M0.78 -0.37 C0.96 24.67, 0.67 124.68, 0.36 149.61" stroke="#087f5b" stroke-width="1.5" fill="none" stroke-dasharray="8 9"></path></g><g transform="translate(93.66015625 60.666015625) rotate(0 0.5959050202673097 74.62189015038311)"><path d="M-10.33 123.22 C-7.88 127.52, -6.15 136.39, -0.21 147.77" stroke="#087f5b" stroke-width="1.5" fill="none"></path></g><g transform="translate(93.66015625 60.666015625) rotate(0 0.5959050202673097 74.62189015038311)"><path d="M10.19 123.36 C7.72 127.76, 4.52 136.6, -0.21 147.77" stroke="#087f5b" stroke-width="1.5" fill="none"></path></g></g><mask></mask><g transform="translate(2.5 101.880859375) rotate(270 20 12.5)"><text x="0" y="18" font-family="Virgil, Segoe UI Emoji" font-size="20px" fill="#000000" text-anchor="start" style="white-space: pre;" direction="ltr">time</text></g><g stroke-linecap="round"><g transform="translate(44.0234375 98.142578125) rotate(0 0.5244246948511773 24.460668029319493)"><path d="M-0.5 0.4 C-0.05 8.34, 1 39.94, 1.55 48.07 M1.44 -0.43 C1.78 7.62, 0.16 41.42, 0.32 49.35" stroke="#000000" stroke-width="1" fill="none"></path></g><g transform="translate(44.0234375 98.142578125) rotate(0 0.5244246948511773 24.460668029319493)"><path d="M-6.9 25.5 C-6.66 32.36, -3.17 37.64, -1.63 50.66 M-6.94 25.66 C-5.69 32.68, -3.29 38.74, 1.03 50.01" stroke="#000000" stroke-width="1" fill="none"></path></g><g transform="translate(44.0234375 98.142578125) rotate(0 0.5244246948511773 24.460668029319493)"><path d="M9.73 25.81 C6.52 32.53, 6.58 37.76, -1.63 50.66 M9.68 25.97 C6.77 33.05, 5.02 39.03, 1.03 50.01" stroke="#000000" stroke-width="1" fill="none"></path></g></g><mask></mask><g stroke-linecap="round"><g transform="translate(192.93456244669233 59.629465395789055) rotate(0 -0.3326138782203998 74.70323827107464)"><path d="M0.34 -0.63 C0.01 24.4, -0.65 124.8, -1.01 150.04" stroke="#c92a2a" stroke-width="1.5" fill="none" stroke-dasharray="8 9"></path></g><g transform="translate(192.93456244669233 59.629465395789055) rotate(0 -0.3326138782203998 74.70323827107464)"><path d="M-12.04 121.6 C-6.91 131.17, -1.81 145.1, 0.92 150.87" stroke="#c92a2a" stroke-width="1.5" fill="none"></path></g><g transform="translate(192.93456244669233 59.629465395789055) rotate(0 -0.3326138782203998 74.70323827107464)"><path d="M8.48 121.8 C5.72 131.35, 2.94 145.21, 0.92 150.87" stroke="#c92a2a" stroke-width="1.5" fill="none"></path></g></g><mask></mask><g stroke-linecap="round"><g transform="translate(294.5821080996202 57.67230362284036) rotate(0 -0.5964318227838703 74.62975787768586)"><path d="M-0.79 0.5 C-1.01 25.22, -0.49 123.9, -0.35 148.76" stroke="#364fc7" stroke-width="1.5" fill="none" stroke-dasharray="8 9"></path></g><g transform="translate(294.5821080996202 57.67230362284036) rotate(0 -0.5964318227838703 74.62975787768586)"><path d="M-9.92 121.07 C-6.75 132.62, -1.3 140.24, -1.32 149.91" stroke="#364fc7" stroke-width="1.5" fill="none"></path></g><g transform="translate(294.5821080996202 57.67230362284036) rotate(0 -0.5964318227838703 74.62975787768586)"><path d="M10.6 120.96 C5.94 132.41, 3.56 140.07, -1.32 149.91" stroke="#364fc7" stroke-width="1.5" fill="none"></path></g></g><mask></mask><g stroke-linecap="round"><g transform="translate(376.86081453193856 58.19660309122449) rotate(0 -0.16969248826535477 74.94379305999009)"><path d="M-0.31 0.31 C-0.5 25.26, 0.09 124.6, 0 149.58" stroke="#e67700" stroke-width="1.5" fill="none" stroke-dasharray="8 9"></path></g><g transform="translate(376.86081453193856 58.19660309122449) rotate(0 -0.16969248826535477 74.94379305999009)"><path d="M-9.79 122.4 C-6.45 132.09, -1.41 142.72, -0.98 149.88" stroke="#e67700" stroke-width="1.5" fill="none"></path></g><g transform="translate(376.86081453193856 58.19660309122449) rotate(0 -0.16969248826535477 74.94379305999009)"><path d="M10.73 122.37 C5.99 132.01, 2.95 142.66, -0.98 149.88" stroke="#e67700" stroke-width="1.5" fill="none"></path></g></g><mask></mask><g transform="translate(69.27734375 215.884765625) rotate(0 29 12.5)"><text x="0" y="18" font-family="Virgil, Segoe UI Emoji" font-size="20px" fill="#087f5b" text-anchor="start" style="white-space: pre;" direction="ltr">t=100</text></g><g transform="translate(171.24609375 216.298828125) rotate(0 22 12.5)"><text x="0" y="18" font-family="Virgil, Segoe UI Emoji" font-size="20px" fill="#c92a2a" text-anchor="start" style="white-space: pre;" direction="ltr">t=10</text></g><g transform="translate(266.0625 214.759765625) rotate(0 25.5 12.5)"><text x="0" y="18" font-family="Virgil, Segoe UI Emoji" font-size="20px" fill="#364fc7" text-anchor="start" style="white-space: pre;" direction="ltr">t=50</text></g><g transform="translate(349.64453125 215.455078125) rotate(0 39 12.5)"><text x="0" y="18" font-family="Virgil, Segoe UI Emoji" font-size="20px" fill="#e67700" text-anchor="start" style="white-space: pre;" direction="ltr">t=9000</text></g></svg>