<svg version="1.1" xmlns="http://www.w3.org/2000/svg" viewBox="0 0 440.26658641482345 232.6916555046996" width="880.5331728296469" height="465.3833110093992">
  <!-- svg-source:excalidraw -->
  
  <defs>
    <style class="style-fonts">
      @font-face {
        font-family: "Virgil";
        src: url("https://excalidraw.com/Virgil.woff2");
      }
      @font-face {
        font-family: "Cascadia";
        src: url("https://excalidraw.com/Cascadia.woff2");
      }
    </style>
  </defs>
  <g stroke-linecap="round" transform="translate(100.7188007858581 13.625000000000057) rotate(0 24.146484375 22.99609375)"><path d="M26.77 1.04 C31.49 1.41, 37.79 4.62, 41.25 7.98 C44.72 11.33, 47.12 16.49, 47.57 21.16 C48.01 25.83, 46.91 31.94, 43.91 36 C40.9 40.06, 34.74 44.16, 29.54 45.5 C24.33 46.84, 17.35 46.16, 12.68 44.06 C8.01 41.96, 3.38 37.55, 1.52 32.91 C-0.35 28.27, -0.06 21.01, 1.5 16.22 C3.06 11.42, 6.2 6.8, 10.89 4.12 C15.57 1.44, 26.38 0.75, 29.59 0.14 C32.8 -0.47, 30.22 -0.04, 30.14 0.48 M33.56 3.06 C38.29 4.53, 43.56 9.02, 45.75 12.96 C47.94 16.91, 48.01 22.13, 46.72 26.74 C45.43 31.36, 41.71 37.36, 38.01 40.63 C34.3 43.91, 29.36 46.71, 24.48 46.39 C19.61 46.07, 12.75 42.24, 8.74 38.71 C4.74 35.18, 1.37 29.72, 0.47 25.21 C-0.42 20.71, 0.57 15.56, 3.37 11.69 C6.17 7.82, 12.48 3.58, 17.27 1.98 C22.06 0.37, 29.3 2.08, 32.1 2.06 C34.89 2.03, 34.16 1.69, 34.04 1.84" stroke="#087f5b" stroke-width="1" fill="none"></path></g><g transform="translate(117.8652851608581 24.121093750000057) rotate(0 7 12.5)"><text x="7" y="18" font-family="Virgil, Segoe UI Emoji" font-size="20px" fill="#087f5b" text-anchor="middle" style="white-space: pre;" direction="ltr">A</text></g><g stroke-linecap="round" transform="translate(201.06326576307538 11.01953125) rotate(0 24.146484375 22.99609375)"><path d="M24.5 0.72 C29.35 0.36, 35.63 2.3, 39.63 5.35 C43.63 8.4, 47.69 14.04, 48.5 19.03 C49.31 24.03, 47.42 30.91, 44.5 35.31 C41.59 39.71, 36 43.77, 31.03 45.42 C26.05 47.06, 19.28 47.14, 14.65 45.18 C10.03 43.22, 5.64 38.09, 3.28 33.65 C0.92 29.22, -0.61 23.43, 0.48 18.57 C1.56 13.71, 4.93 7.63, 9.78 4.51 C14.64 1.39, 25.25 0, 29.59 -0.15 C33.94 -0.29, 35.69 3.12, 35.86 3.65 M30.86 1.71 C35.42 2.27, 40.21 5.17, 42.91 9.01 C45.61 12.84, 47.19 19.59, 47.06 24.72 C46.94 29.84, 45.54 36.46, 42.16 39.74 C38.78 43.03, 32.07 44.29, 26.77 44.44 C21.48 44.59, 14.78 43.11, 10.42 40.64 C6.05 38.17, 1.81 34.04, 0.58 29.6 C-0.65 25.15, 0.96 18.49, 3.04 13.98 C5.13 9.48, 8.32 4.77, 13.1 2.55 C17.87 0.32, 28.92 0.95, 31.68 0.61 C34.44 0.27, 30.11 0.21, 29.64 0.48" stroke="#c92a2a" stroke-width="1" fill="none"></path></g><g transform="translate(217.20975013807538 21.515625) rotate(0 8 12.5)"><text x="8" y="18" font-family="Virgil, Segoe UI Emoji" font-size="20px" fill="#c92a2a" text-anchor="middle" style="white-space: pre;" direction="ltr">B</text></g><g stroke-linecap="round" transform="translate(298.9902851608581 10) rotate(0 24.146484375 22.99609375)"><path d="M33.7 1.6 C38.43 3.07, 44.21 7.94, 46.48 12.53 C48.76 17.11, 48.87 24.11, 47.35 29.09 C45.84 34.07, 41.7 39.45, 37.41 42.4 C33.11 45.34, 26.56 47.32, 21.58 46.77 C16.59 46.22, 11.1 42.68, 7.51 39.11 C3.92 35.54, 0.47 30.29, 0.04 25.34 C-0.4 20.39, 2.03 13.68, 4.87 9.43 C7.71 5.18, 11.65 0.74, 17.06 -0.17 C22.48 -1.09, 33.6 3.02, 37.35 3.94 C41.11 4.87, 39.8 5.08, 39.59 5.37 M34.22 1.71 C38.47 3.4, 43 9.04, 45.33 13.81 C47.66 18.58, 49.46 25.81, 48.2 30.33 C46.93 34.84, 42.25 38.53, 37.75 40.92 C33.25 43.31, 26.47 44.94, 21.2 44.67 C15.93 44.39, 9.54 42.59, 6.13 39.28 C2.72 35.97, 1.1 29.78, 0.75 24.8 C0.41 19.82, 0.82 13.51, 4.04 9.43 C7.27 5.35, 15.01 1.61, 20.1 0.34 C25.19 -0.93, 32.23 1.52, 34.56 1.83 C36.89 2.14, 33.98 1.94, 34.06 2.21" stroke="#364fc7" stroke-width="1" fill="none"></path></g><g transform="translate(316.1367695358581 20.49609375) rotate(0 7 12.5)"><text x="7" y="18" font-family="Virgil, Segoe UI Emoji" font-size="20px" fill="#364fc7" text-anchor="middle" style="white-space: pre;" direction="ltr">C</text></g><g stroke-linecap="round" transform="translate(381.97361766482345 11.201886852216262) rotate(0 24.146484375 22.99609375)"><path d="M32.98 0.65 C37.79 2.12, 42.63 7.22, 45.02 11.73 C47.41 16.23, 48.32 22.69, 47.34 27.67 C46.36 32.64, 42.94 38.53, 39.13 41.57 C35.32 44.6, 29.58 45.98, 24.47 45.87 C19.36 45.76, 12.4 44.13, 8.46 40.9 C4.52 37.67, 1.83 31.58, 0.83 26.51 C-0.18 21.43, -0.18 14.54, 2.44 10.43 C5.06 6.32, 10.98 3.17, 16.53 1.85 C22.07 0.52, 32.21 2.05, 35.71 2.48 C39.21 2.9, 37.66 4.03, 37.51 4.4 M30.11 0.62 C35.25 1.93, 42.33 6.95, 45.44 10.91 C48.55 14.87, 49.52 19.72, 48.75 24.36 C47.97 28.99, 44.73 34.98, 40.8 38.71 C36.87 42.44, 30.24 46.14, 25.16 46.72 C20.08 47.29, 14.57 45.17, 10.32 42.15 C6.07 39.12, 0.74 33.54, -0.34 28.57 C-1.42 23.6, 1.43 16.91, 3.82 12.32 C6.21 7.73, 9.6 3.06, 14 1.04 C18.41 -0.98, 27.24 0.35, 30.23 0.22 C33.22 0.09, 31.74 -0.01, 31.95 0.26" stroke="#e67700" stroke-width="1" fill="none"></path></g><g transform="translate(397.62010203982345 21.697980602216262) rotate(0 8.5 12.5)"><text x="8.5" y="18" font-family="Virgil, Segoe UI Emoji" font-size="20px" fill="#e67700" text-anchor="middle" style="white-space: pre;" direction="ltr">D</text></g><g stroke-linecap="round"><g transform="translate(120.70532737109806 61.64316544392756) rotate(0 1.0501164655047432 74.2368250490951)"><path d="M0.85 -0.83 C0.88 24.16, 1.22 124.39, 1.25 149.3" stroke="#087f5b" stroke-width="1.5" fill="none" stroke-dasharray="8 9"></path></g><g transform="translate(120.70532737109806 61.64316544392756) rotate(0 1.0501164655047432 74.2368250490951)"><path d="M-10.46 119.99 C-4.34 130.41, -1.43 143.12, 0.13 150.39" stroke="#087f5b" stroke-width="1.5" fill="none"></path></g><g transform="translate(120.70532737109806 61.64316544392756) rotate(0 1.0501164655047432 74.2368250490951)"><path d="M10.07 119.94 C8.23 130.53, 3.18 143.25, 0.13 150.39" stroke="#087f5b" stroke-width="1.5" fill="none"></path></g></g><mask></mask><g transform="translate(2.5 100.21142809930461) rotate(270 20 12.5)"><text x="0" y="18" font-family="Virgil, Segoe UI Emoji" font-size="20px" fill="#000000" text-anchor="start" style="white-space: pre;" direction="ltr">time</text></g><g stroke-linecap="round"><g transform="translate(44.0234375 96.47314684930461) rotate(0 1.3297936725336967 24.828767511975002)"><path d="M-0.68 0.53 C-0.64 8.74, 0.65 40.54, 1.13 48.43 M1.16 -0.24 C1.5 8.23, 3.29 41.72, 3.34 49.9" stroke="#000000" stroke-width="1" fill="none"></path></g><g transform="translate(44.0234375 96.47314684930461) rotate(0 1.3297936725336967 24.828767511975002)"><path d="M-4.86 25.79 C-2.74 36, -0.27 45.23, 2.49 51.63 M-5.36 27.84 C-2.97 34.3, -0.42 43.48, 3.85 50.66" stroke="#000000" stroke-width="1" fill="none"></path></g><g transform="translate(44.0234375 96.47314684930461) rotate(0 1.3297936725336967 24.828767511975002)"><path d="M11.76 25.23 C7.71 35.55, 4.01 44.99, 2.49 51.63 M11.26 27.28 C7.89 33.92, 4.69 43.3, 3.85 50.66" stroke="#000000" stroke-width="1" fill="none"></path></g></g><mask></mask><g stroke-linecap="round"><g transform="translate(223.98305619662642 59.48100533411173) rotate(0 0.14743927103882015 70.29072681197306)"><path d="M0.53 -0.94 C0.62 22.76, -0.02 117.69, -0.24 141.52" stroke="#c92a2a" stroke-width="1.5" fill="none" stroke-dasharray="8 9"></path></g><g transform="translate(223.98305619662642 59.48100533411173) rotate(0 0.14743927103882015 70.29072681197306)"><path d="M-11.85 113.04 C-7.9 118.62, -4.72 125.42, 1.49 142.45" stroke="#c92a2a" stroke-width="1.5" fill="none"></path></g><g transform="translate(223.98305619662642 59.48100533411173) rotate(0 0.14743927103882015 70.29072681197306)"><path d="M8.67 113.19 C7.88 118.83, 6.32 125.59, 1.49 142.45" stroke="#c92a2a" stroke-width="1.5" fill="none"></path></g></g><mask></mask><g stroke-linecap="round"><g transform="translate(326.2578533450669 57.668358331868205) rotate(0 -0.7331132899232671 74.62492552542017)"><path d="M-0.94 -0.13 C-0.91 24.68, -0.68 124.44, -0.53 149.38" stroke="#364fc7" stroke-width="1.5" fill="none" stroke-dasharray="8 9"></path></g><g transform="translate(326.2578533450669 57.668358331868205) rotate(0 -0.7331132899232671 74.62492552542017)"><path d="M-11.12 121.45 C-9.38 129.24, -6.59 136.72, 0.4 149.14" stroke="#364fc7" stroke-width="1.5" fill="none"></path></g><g transform="translate(326.2578533450669 57.668358331868205) rotate(0 -0.7331132899232671 74.62492552542017)"><path d="M9.41 121.37 C6.16 129.02, 3.96 136.52, 0.4 149.14" stroke="#364fc7" stroke-width="1.5" fill="none"></path></g></g><mask></mask><g stroke-linecap="round"><g transform="translate(408.5024669228824 58.196592392786386) rotate(0 -0.644537208083193 75.1714472362066)"><path d="M-0.13 0.13 C-0.41 25.33, -1.01 125.13, -1.16 150.21" stroke="#e67700" stroke-width="1.5" fill="none" stroke-dasharray="8 9"></path></g><g transform="translate(408.5024669228824 58.196592392786386) rotate(0 -0.644537208083193 75.1714472362066)"><path d="M-11.03 120.84 C-6.91 130.82, -2.8 142.32, -1.4 150.1" stroke="#e67700" stroke-width="1.5" fill="none"></path></g><g transform="translate(408.5024669228824 58.196592392786386) rotate(0 -0.644537208083193 75.1714472362066)"><path d="M9.49 120.96 C6.55 130.88, 3.61 142.34, -1.4 150.1" stroke="#e67700" stroke-width="1.5" fill="none"></path></g></g><mask></mask><g transform="translate(71.85903255339827 202.6916555046996) rotate(0 20 10)"><text x="0" y="14" font-family="Virgil, Segoe UI Emoji" font-size="16px" fill="#087f5b" text-anchor="start" style="white-space: pre;" direction="ltr">t=70</text></g><g transform="translate(76.51817952975807 67.62133587278754) rotate(0 17.5 10)"><text x="0" y="14" font-family="Virgil, Segoe UI Emoji" font-size="16px" fill="#087f5b" text-anchor="start" style="white-space: pre;" direction="ltr">t=10</text></g><g transform="translate(76.08755222201398 118.46372853546177) rotate(0 21 10)"><text x="0" y="14" font-family="Virgil, Segoe UI Emoji" font-size="16px" fill="#087f5b" text-anchor="start" style="white-space: pre;" direction="ltr">t=20</text></g><g transform="translate(179.16581092092792 67.82659381652081) rotate(0 15 10)"><text x="0" y="14" font-family="Virgil, Segoe UI Emoji" font-size="16px" fill="#c92a2a" text-anchor="start" style="white-space: pre;" direction="ltr">t=5</text></g><g transform="translate(175.54870982358807 113.43718955782174) rotate(0 17.5 10)"><text x="0" y="14" font-family="Virgil, Segoe UI Emoji" font-size="16px" fill="#c92a2a" text-anchor="start" style="white-space: pre;" direction="ltr">t=10</text></g><g transform="translate(178.22162437975612 154.6096524268504) rotate(0 20.5 10)"><text x="0" y="14" font-family="Virgil, Segoe UI Emoji" font-size="16px" fill="#c92a2a" text-anchor="start" style="white-space: pre;" direction="ltr">t=50</text></g><g transform="translate(176.80306392417924 193.22551357449333) rotate(0 20 10)"><text x="0" y="14" font-family="Virgil, Segoe UI Emoji" font-size="16px" fill="#c92a2a" text-anchor="start" style="white-space: pre;" direction="ltr">t=70</text></g><g transform="translate(284.78055992095005 66.45820752496707) rotate(0 15.5 10)"><text x="0" y="14" font-family="Virgil, Segoe UI Emoji" font-size="16px" fill="#364fc7" text-anchor="start" style="white-space: pre;" direction="ltr">t=0</text></g><g transform="translate(276.82111299174676 118.45916724782342) rotate(0 20.5 10)"><text x="0" y="14" font-family="Virgil, Segoe UI Emoji" font-size="16px" fill="#364fc7" text-anchor="start" style="white-space: pre;" direction="ltr">t=50</text></g><g transform="translate(277.05601930513103 184.0413609143493) rotate(0 20.5 10)"><text x="0" y="14" font-family="Virgil, Segoe UI Emoji" font-size="16px" fill="#364fc7" text-anchor="start" style="white-space: pre;" direction="ltr">t=90</text></g><g transform="translate(368.5668525527781 67.72852613229259) rotate(0 17 10)"><text x="0" y="14" font-family="Virgil, Segoe UI Emoji" font-size="16px" fill="#e67700" text-anchor="start" style="white-space: pre;" direction="ltr">t=15</text></g><g transform="translate(359.4762062892223 169.45436304638804) rotate(0 22.5 10)"><text x="0" y="14" font-family="Virgil, Segoe UI Emoji" font-size="16px" fill="#e67700" text-anchor="start" style="white-space: pre;" direction="ltr">t=150</text></g><g transform="translate(88.87346144761204 90.70468534515607) rotate(0 7 10)"><text x="0" y="14" font-family="Virgil, Segoe UI Emoji" font-size="16px" fill="#087f5b" text-anchor="start" style="white-space: pre;" direction="ltr">...</text></g><g transform="translate(87.55226455755974 151.40534786079587) rotate(0 7 10)"><text x="0" y="14" font-family="Virgil, Segoe UI Emoji" font-size="16px" fill="#087f5b" text-anchor="start" style="white-space: pre;" direction="ltr">...</text></g><g transform="translate(187.80252492059526 88.46642038078772) rotate(0 7 10)"><text x="0" y="14" font-family="Virgil, Segoe UI Emoji" font-size="16px" fill="#c92a2a" text-anchor="start" style="white-space: pre;" direction="ltr">...</text></g><g transform="translate(190.9794617608195 128.48715812109214) rotate(0 7 10)"><text x="0" y="14" font-family="Virgil, Segoe UI Emoji" font-size="16px" fill="#c92a2a" text-anchor="start" style="white-space: pre;" direction="ltr">...</text></g><g transform="translate(188.65776635281736 170.4145140942946) rotate(0 7 10)"><text x="0" y="14" font-family="Virgil, Segoe UI Emoji" font-size="16px" fill="#c92a2a" text-anchor="start" style="white-space: pre;" direction="ltr">...</text></g><g transform="translate(292.4270601289659 90.06059041044756) rotate(0 7 10)"><text x="0" y="14" font-family="Virgil, Segoe UI Emoji" font-size="16px" fill="#364fc7" text-anchor="start" style="white-space: pre;" direction="ltr">...</text></g><g transform="translate(292.64144064797483 147.20440194572626) rotate(0 7 10)"><text x="0" y="14" font-family="Virgil, Segoe UI Emoji" font-size="16px" fill="#364fc7" text-anchor="start" style="white-space: pre;" direction="ltr">...</text></g><g transform="translate(374.988647029852 114.06208596429786) rotate(0 7 10)"><text x="0" y="14" font-family="Virgil, Segoe UI Emoji" font-size="16px" fill="#e67700" text-anchor="start" style="white-space: pre;" direction="ltr">...</text></g></svg>