<svg version="1.1" xmlns="http://www.w3.org/2000/svg" viewBox="0 0 366.57419966877274 242.97487956101133" width="733.1483993375455" height="485.94975912202267">
  <!-- svg-source:excalidraw -->
  
  <defs>
    <style class="style-fonts">
      @font-face {
        font-family: "Virgil";
        src: url("https://excalidraw.com/Virgil.woff2");
      }
      @font-face {
        font-family: "Cascadia";
        src: url("https://excalidraw.com/Cascadia.woff2");
      }
    </style>
  </defs>
  <g stroke-linecap="round" transform="translate(22.786484733074985 18.090331041086472) rotate(0 24.146484375 22.99609375)"><path d="M13.07 1.93 C17.1 -0.22, 24.35 -0.36, 29.38 1.03 C34.4 2.41, 40.1 6.44, 43.23 10.23 C46.37 14.03, 48.57 18.87, 48.21 23.8 C47.84 28.73, 44.8 36.11, 41.04 39.8 C37.28 43.48, 30.56 45.52, 25.64 45.91 C20.72 46.3, 15.54 44.98, 11.53 42.13 C7.53 39.28, 3.11 33.6, 1.61 28.78 C0.12 23.97, -0.01 17.97, 2.57 13.23 C5.15 8.49, 14.19 2.4, 17.07 0.33 C19.96 -1.74, 19.68 0.47, 19.87 0.83 M32.87 0.59 C37.19 1.61, 40.83 6.11, 43.55 10.19 C46.27 14.27, 49.56 20.23, 49.19 25.07 C48.81 29.92, 45.32 35.64, 41.32 39.24 C37.33 42.83, 30.71 46.57, 25.22 46.64 C19.73 46.72, 12.41 42.73, 8.36 39.71 C4.31 36.68, 1.87 33.27, 0.89 28.49 C-0.08 23.71, -0.07 15.71, 2.5 11.03 C5.08 6.34, 11.62 1.94, 16.34 0.36 C21.07 -1.21, 28.37 1.13, 30.87 1.58 C33.37 2.04, 31.48 3.02, 31.34 3.08" stroke="#c92a2a" stroke-width="1" fill="none"></path></g><g stroke-linecap="round" transform="translate(208.75328160807499 42.06298729108647) rotate(0 24.146484375 22.99609375)"><path d="M19.37 0.79 C24.14 -0.48, 31.7 0.91, 36.25 3.2 C40.79 5.49, 44.8 9.8, 46.64 14.52 C48.49 19.25, 49.12 26.95, 47.31 31.53 C45.5 36.1, 40.43 39.46, 35.78 41.99 C31.13 44.51, 24.53 47.41, 19.4 46.66 C14.27 45.92, 8.18 41.48, 4.99 37.51 C1.81 33.53, 0.34 27.55, 0.3 22.82 C0.26 18.09, 0.96 12.92, 4.76 9.13 C8.55 5.33, 19.46 1.52, 23.09 0.06 C26.71 -1.4, 26.45 0.12, 26.48 0.37 M30.39 2.03 C35.58 3.24, 41.92 6.84, 44.98 10.66 C48.04 14.48, 49.59 19.98, 48.74 24.94 C47.89 29.9, 43.43 37.13, 39.89 40.43 C36.34 43.72, 32.26 44.29, 27.45 44.73 C22.64 45.18, 15.72 45.6, 11.03 43.12 C6.34 40.64, 0.68 34.91, -0.67 29.87 C-2.02 24.82, 0.31 17.55, 2.93 12.85 C5.56 8.15, 10.69 3.87, 15.07 1.66 C19.45 -0.55, 26.42 -0.4, 29.22 -0.4 C32.01 -0.4, 31.53 1.3, 31.84 1.63" stroke="#087f5b" stroke-width="1" fill="none"></path></g><g stroke-linecap="round" transform="translate(278.253281608075 154.11767479108647) rotate(0 24.146484375 22.99609375)"><path d="M32.7 0.94 C37.23 2.09, 41.28 6.02, 44 10.33 C46.71 14.65, 49.52 21.99, 48.99 26.83 C48.46 31.67, 45.02 36.2, 40.82 39.37 C36.62 42.53, 29.06 45.55, 23.78 45.82 C18.51 46.09, 13.07 44, 9.15 40.99 C5.24 37.99, 1.36 32.78, 0.31 27.81 C-0.75 22.84, 0.35 15.65, 2.84 11.19 C5.33 6.72, 10.08 2.54, 15.24 1.02 C20.4 -0.49, 30.63 2.02, 33.83 2.08 C37.02 2.14, 34.61 1.17, 34.41 1.38 M18.78 -0.64 C23.48 -1.93, 31.95 1, 36.43 3.44 C40.91 5.89, 43.9 9.51, 45.65 14.02 C47.41 18.54, 48.25 25.85, 46.97 30.53 C45.69 35.21, 42.57 39.64, 37.96 42.12 C33.35 44.61, 24.63 45.94, 19.29 45.44 C13.95 44.94, 9.22 42.73, 5.93 39.1 C2.63 35.47, -0.27 28.54, -0.46 23.66 C-0.66 18.77, 1.55 13.84, 4.77 9.8 C7.99 5.75, 16.66 0.66, 18.88 -0.61 C21.1 -1.88, 17.73 1.45, 18.08 2.18" stroke="#087f5b" stroke-width="1" fill="none"></path></g><g stroke-linecap="round" transform="translate(133.96031285807499 155.80517479108647) rotate(0 24.146484375 22.99609375)"><path d="M32.02 2.41 C36.9 4.08, 43.46 8.34, 46.13 12.65 C48.79 16.96, 49.31 23.69, 48.02 28.27 C46.73 32.84, 42.3 37.03, 38.39 40.09 C34.48 43.15, 29.54 46.55, 24.57 46.62 C19.61 46.7, 12.57 43.92, 8.6 40.54 C4.63 37.15, 1.49 31.31, 0.76 26.29 C0.03 21.28, 1.65 14.64, 4.22 10.44 C6.79 6.24, 11.05 2.32, 16.2 1.11 C21.34 -0.1, 31.39 2.73, 35.06 3.2 C38.73 3.67, 38.39 3.74, 38.21 3.93 M24.35 0.45 C29.2 0.3, 36.62 3.06, 40.52 6.49 C44.42 9.93, 47.25 16.08, 47.73 21.06 C48.22 26.04, 46.18 32.55, 43.43 36.37 C40.68 40.19, 35.98 42.68, 31.22 43.98 C26.45 45.27, 19.44 45.75, 14.84 44.14 C10.25 42.53, 6 38.67, 3.65 34.31 C1.3 29.95, -0.09 23.07, 0.74 17.96 C1.56 12.85, 4.31 6.88, 8.6 3.67 C12.9 0.46, 23.86 -1, 26.49 -1.3 C29.12 -1.6, 24.69 1.52, 24.37 1.89" stroke="#087f5b" stroke-width="1" fill="none"></path></g><g stroke-linecap="round"><g transform="translate(273.6635887729583 178.22927818485115) rotate(0 -41.45461740144083 -0.8801310438210663)"><path d="M-0.59 0.03 C-14.74 -0.26, -70.48 -1.65, -84.22 -1.79 M1.31 -1.01 C-12.55 -1.16, -67.86 -1.01, -82.03 -0.75" stroke="#087f5b" stroke-width="1" fill="none"></path></g><g transform="translate(273.6635887729583 178.22927818485115) rotate(0 -41.45461740144083 -0.8801310438210663)"><path d="M-28.96 7.98 C-20.33 6.66, -8.39 1.64, 0.44 1.97 M-28.26 8.92 C-19.26 6.32, -10.49 3.2, -0.41 -0.08" stroke="#087f5b" stroke-width="1" fill="none"></path></g><g transform="translate(273.6635887729583 178.22927818485115) rotate(0 -41.45461740144083 -0.8801310438210663)"><path d="M-28.49 -12.53 C-20.05 -6.46, -8.27 -4.09, 0.44 1.97 M-27.79 -11.6 C-18.9 -7.27, -10.29 -3.46, -0.41 -0.08" stroke="#087f5b" stroke-width="1" fill="none"></path></g><g transform="translate(273.6635887729583 178.22927818485115) rotate(0 -41.45461740144083 -0.8801310438210663)"><path d="M-53.89 -12.93 C-65.65 -7.27, -74.07 -5.03, -81.01 1.19 M-53.19 -12 C-63.22 -7.28, -73.53 -3.61, -81.85 -0.85" stroke="#087f5b" stroke-width="1" fill="none"></path></g><g transform="translate(273.6635887729583 178.22927818485115) rotate(0 -41.45461740144083 -0.8801310438210663)"><path d="M-53.7 7.59 C-65.51 5.85, -74 0.7, -81.01 1.19 M-53 8.52 C-63.15 6.31, -73.52 3.06, -81.85 -0.85" stroke="#087f5b" stroke-width="1" fill="none"></path></g></g><mask></mask><g stroke-linecap="round"><g transform="translate(240.36634260500728 89.1433751329923) rotate(0 15.761431313156663 35.33673771119162)"><path d="M-0.11 -0.5 C5.09 11.36, 25.63 59.06, 31.07 71.05 M-1.63 -1.82 C3.93 10.25, 27.57 60.05, 33.16 72.49" stroke="#087f5b" stroke-width="1" fill="none"></path></g><g transform="translate(240.36634260500728 89.1433751329923) rotate(0 15.761431313156663 35.33673771119162)"><path d="M19.68 19.29 C14.31 15.42, 9 7.53, 0.43 -1.87 M19.79 21.19 C15.55 15.98, 9.88 9.78, 0.44 -0.98" stroke="#087f5b" stroke-width="1" fill="none"></path></g><g transform="translate(240.36634260500728 89.1433751329923) rotate(0 15.761431313156663 35.33673771119162)"><path d="M0.86 27.47 C0.92 21.25, 1.03 11.01, 0.43 -1.87 M0.97 29.36 C1.78 21.87, 1.22 13.46, 0.44 -0.98" stroke="#087f5b" stroke-width="1" fill="none"></path></g><g transform="translate(240.36634260500728 89.1433751329923) rotate(0 15.761431313156663 35.33673771119162)"><path d="M11.15 49.25 C17.76 57.8, 24.48 62.3, 33.7 71.12 M11.26 51.15 C18.55 57.46, 24.22 62.92, 33.71 72.01" stroke="#087f5b" stroke-width="1" fill="none"></path></g><g transform="translate(240.36634260500728 89.1433751329923) rotate(0 15.761431313156663 35.33673771119162)"><path d="M29.77 40.62 C31.01 51.64, 32.37 58.62, 33.7 71.12 M29.88 42.52 C32.17 51.23, 32.79 59.03, 33.71 72.01" stroke="#087f5b" stroke-width="1" fill="none"></path></g></g><mask></mask><g stroke-linecap="round"><g transform="translate(164.94273473307499 151.22704979108647) rotate(0 23.98673489801581 -32.54752151522786)"><path d="M-0.37 -0.92 C7.73 -12.09, 40.32 -55.49, 48.34 -66.3 M1.64 1.21 C9.57 -9.84, 39.16 -53.95, 47.25 -64.88" stroke="#087f5b" stroke-width="1" fill="none"></path></g><g transform="translate(164.94273473307499 151.22704979108647) rotate(0 23.98673489801581 -32.54752151522786)"><path d="M6.7 -30.12 C5.64 -23.05, 4.06 -11.78, 0.76 -1.66 M7.51 -30.05 C7.03 -21.18, 3.69 -14.89, 0.18 -1.78" stroke="#087f5b" stroke-width="1" fill="none"></path></g><g transform="translate(164.94273473307499 151.22704979108647) rotate(0 23.98673489801581 -32.54752151522786)"><path d="M23.16 -17.86 C17.41 -14.28, 11.21 -6.44, 0.76 -1.66 M23.97 -17.8 C19 -12.07, 11.28 -9.05, 0.18 -1.78" stroke="#087f5b" stroke-width="1" fill="none"></path></g><g transform="translate(164.94273473307499 151.22704979108647) rotate(0 23.98673489801581 -32.54752151522786)"><path d="M37.93 -36.36 C41.11 -45.42, 44.12 -50.32, 48.38 -65.61 M38.74 -36.29 C42.13 -42.9, 43.15 -51.98, 47.8 -65.73" stroke="#087f5b" stroke-width="1" fill="none"></path></g><g transform="translate(164.94273473307499 151.22704979108647) rotate(0 23.98673489801581 -32.54752151522786)"><path d="M21.13 -48.14 C29.09 -53.85, 36.81 -55.45, 48.38 -65.61 M21.94 -48.08 C29.9 -51.66, 35.4 -57.61, 47.8 -65.73" stroke="#087f5b" stroke-width="1" fill="none"></path></g></g><mask></mask><g stroke-linecap="round"><g transform="translate(219.61070348307499 13.977049791086472) rotate(0 10.021859569752905 108.9252320308241)"><path d="M0.92 -1.15 C-3.82 2.17, -17.5 8.92, -27.26 20.72 C-37.01 32.52, -45.69 54.06, -57.63 69.63 C-69.57 85.2, -89.68 94.41, -98.89 114.14 C-108.1 133.87, -124.55 171.61, -112.9 188.01 C-101.25 204.4, -60.98 207.77, -29 212.5 C2.98 217.23, 51.41 222.17, 78.98 216.37 C106.55 210.57, 132.03 195.34, 136.41 177.68 C140.79 160.02, 118.16 130.67, 105.26 110.39 C92.36 90.1, 76.42 74.45, 59.02 55.98 C41.63 37.51, 10.81 8.77, 0.9 -0.43" stroke="#000000" stroke-width="1.5" fill="none" stroke-dasharray="1.5 7"></path></g></g><mask></mask><g stroke-linecap="round"><g transform="translate(11.052109733074985 20.988768541086472) rotate(0 34.724319624043915 21.086790977977216)"><path d="M0.27 0.54 C11.9 7.65, 58.6 35.59, 70.5 42.4 M-1.05 -0.23 C10.37 6.6, 57.47 33.69, 69.57 40.86" stroke="#c92a2a" stroke-width="1" fill="none"></path></g></g><mask></mask><g stroke-linecap="round"><g transform="translate(76.54039098307499 9.293456041086472) rotate(0 -30.910756839439273 31.730326582025725)"><path d="M1.2 1.15 C-9.25 11.17, -52.33 51.11, -63.02 61.32 M0.36 0.71 C-9.65 11.42, -49.93 52.78, -60.65 62.75" stroke="#c92a2a" stroke-width="1" fill="none"></path></g></g><mask></mask><g stroke-linecap="round"><g transform="translate(71.51574147842803 49.27486831742107) rotate(0 16.036870349235983 10.730251558400923)"><path d="M-1.11 0.47 C4.6 3.83, 27.4 17.09, 33.18 20.71 M0.51 -0.32 C6.2 3.12, 27.04 18.37, 32.5 21.79" stroke="#c92a2a" stroke-width="1" fill="none"></path></g></g><mask></mask><g stroke-linecap="round"><g transform="translate(100.70054723307499 82.52392479108647) rotate(0 13.70566036585717 -6.874966921247534)"><path d="M0.44 1.1 C4.98 -0.87, 23.49 -10.33, 28.19 -12.89 M-0.78 0.63 C3.53 -1.63, 22.56 -12.49, 27.4 -14.85" stroke="#c92a2a" stroke-width="1" fill="none"></path></g></g><mask></mask><g stroke-linecap="round"><g transform="translate(107.39195348307499 63.97704979108647) rotate(0 8.680349885299734 10.466722552208239)"><path d="M-0.25 -0.3 C2.59 3.37, 14.98 18.67, 17.61 22.44 M1.82 -1.51 C4.54 1.8, 14.56 17.07, 17.25 20.71" stroke="#c92a2a" stroke-width="1" fill="none"></path></g></g><mask></mask></svg>