<svg version="1.1" xmlns="http://www.w3.org/2000/svg" viewBox="0 0 265.21484375 285.2783203125" width="530.4296875" height="570.556640625">
  <!-- svg-source:excalidraw -->
  
  <defs>
    <style class="style-fonts">
      @font-face {
        font-family: "Virgil";
        src: url("https://excalidraw.com/Virgil.woff2");
      }
      @font-face {
        font-family: "Cascadia";
        src: url("https://excalidraw.com/Cascadia.woff2");
      }
    </style>
  </defs>
  <g stroke-linecap="round" transform="translate(88.5419921875 12.60546875) rotate(0 24.146484375 22.99609375)"><path d="M15.18 2.41 C19.35 0.21, 25.78 -0.51, 30.69 1 C35.6 2.51, 41.63 7.36, 44.65 11.48 C47.68 15.59, 49.69 20.8, 48.84 25.69 C47.99 30.58, 43.36 37.47, 39.55 40.81 C35.74 44.15, 31.06 45.53, 25.95 45.73 C20.84 45.93, 13.03 44.94, 8.89 42.03 C4.74 39.11, 2.19 33.11, 1.08 28.24 C-0.04 23.37, -0.73 17.37, 2.19 12.81 C5.11 8.26, 15.01 2.98, 18.58 0.91 C22.16 -1.17, 23.62 -0.07, 23.64 0.35 M19.03 1.49 C23.78 0.28, 32.09 -0.73, 36.74 1.75 C41.38 4.23, 45.02 11.48, 46.92 16.38 C48.83 21.27, 49.99 26.72, 48.17 31.13 C46.34 35.54, 40.56 40.66, 35.98 42.84 C31.4 45.02, 25.76 44.81, 20.71 44.19 C15.65 43.56, 8.86 42.86, 5.64 39.09 C2.43 35.32, 1.31 26.78, 1.43 21.57 C1.55 16.36, 3.25 11.54, 6.38 7.83 C9.51 4.11, 17.67 0.3, 20.22 -0.72 C22.76 -1.74, 21.7 1.39, 21.65 1.71" stroke="#087f5b" stroke-width="1" fill="none"></path></g><g transform="translate(105.6884765625 23.1015625) rotate(0 7 12.5)"><text x="7" y="18" font-family="Virgil, Segoe UI Emoji" font-size="20px" fill="#087f5b" text-anchor="middle" style="white-space: pre;" direction="ltr">A</text></g><g stroke-linecap="round" transform="translate(188.8134765625 10) rotate(0 24.146484375 22.99609375)"><path d="M33.66 0.73 C38.19 2.15, 42.76 7.45, 45.24 12.05 C47.72 16.65, 49.62 23.62, 48.54 28.31 C47.46 32.99, 42.8 37.07, 38.77 40.16 C34.73 43.26, 29.47 46.94, 24.33 46.88 C19.19 46.82, 11.8 43.12, 7.94 39.8 C4.07 36.48, 1.81 31.87, 1.14 26.97 C0.48 22.07, 1.29 14.8, 3.94 10.41 C6.58 6.02, 11.85 1.96, 17 0.63 C22.15 -0.71, 31.75 2.09, 34.84 2.38 C37.92 2.66, 35.62 2.07, 35.5 2.33 M30.28 0.84 C35.02 1.7, 38.54 4.77, 41.71 8.82 C44.89 12.87, 49.27 20.24, 49.35 25.15 C49.43 30.06, 45.88 34.68, 42.22 38.28 C38.56 41.87, 32.77 45.98, 27.4 46.71 C22.02 47.44, 14.1 45.17, 9.97 42.64 C5.85 40.12, 4.23 36.18, 2.65 31.58 C1.07 26.98, -1.15 19.83, 0.5 15.03 C2.14 10.23, 7.92 4.97, 12.52 2.79 C17.12 0.6, 25.17 2.33, 28.07 1.91 C30.98 1.5, 30.09 -0.03, 29.95 0.3" stroke="#c92a2a" stroke-width="1" fill="none"></path></g><g transform="translate(204.9599609375 20.49609375) rotate(0 8 12.5)"><text x="8" y="18" font-family="Virgil, Segoe UI Emoji" font-size="20px" fill="#c92a2a" text-anchor="middle" style="white-space: pre;" direction="ltr">B</text></g><g stroke-linecap="round"><g transform="translate(113.125 59.525390625) rotate(0 30.77181411497304 55.75789385922255)"><path d="M1.06 0.17 C11.3 18.58, 50.74 92.63, 60.48 111.34" stroke="#087f5b" stroke-width="1.5" fill="none" stroke-dasharray="8 9"></path></g><g transform="translate(113.125 59.525390625) rotate(0 30.77181411497304 55.75789385922255)"><path d="M38.53 92.62 C41.64 95.27, 48.43 101.42, 62.02 110.45" stroke="#087f5b" stroke-width="1.5" fill="none"></path></g><g transform="translate(113.125 59.525390625) rotate(0 30.77181411497304 55.75789385922255)"><path d="M56.68 83.04 C55.81 87.99, 58.57 96.27, 62.02 110.45" stroke="#087f5b" stroke-width="1.5" fill="none"></path></g></g><mask></mask><g transform="translate(2.5 117.908203125) rotate(270 20 12.5)"><text x="0" y="18" font-family="Virgil, Segoe UI Emoji" font-size="20px" fill="#000000" text-anchor="start" style="white-space: pre;" direction="ltr">time</text></g><g stroke-linecap="round"><g transform="translate(44.0234375 114.169921875) rotate(0 0.8822849984971981 24.595467316322015)"><path d="M0.85 -1.03 C1 7.05, 1.59 40.22, 1.94 48.64 M-0.16 1.05 C-0.28 9.32, 0.46 42.46, 0.92 50.22" stroke="#000000" stroke-width="1" fill="none"></path></g><g transform="translate(44.0234375 114.169921875) rotate(0 0.8822849984971981 24.595467316322015)"><path d="M-9.94 27.49 C-4.51 37.83, 0.45 44.24, -0.68 51.76 M-7.36 28.24 C-4.31 35.91, -0.59 44.71, 1.33 50.41" stroke="#000000" stroke-width="1" fill="none"></path></g><g transform="translate(44.0234375 114.169921875) rotate(0 0.8822849984971981 24.595467316322015)"><path d="M6.67 26.87 C5.65 37.58, 4.16 44.23, -0.68 51.76 M9.26 27.62 C5.82 35.46, 3.07 44.5, 1.33 50.41" stroke="#000000" stroke-width="1" fill="none"></path></g></g><mask></mask><g stroke-linecap="round"><g transform="translate(212.3533137368122 58.61053033893245) rotate(0 -17.337149539252323 55.00592041866261)"><path d="M-1.03 -0.13 C-6.66 18.09, -28.35 92, -33.65 110.14" stroke="#c92a2a" stroke-width="1.5" fill="none" stroke-dasharray="8 9"></path></g><g transform="translate(212.3533137368122 58.61053033893245) rotate(0 -17.337149539252323 55.00592041866261)"><path d="M-35.78 80.33 C-33.3 91.17, -35.04 97.43, -32.11 111.93" stroke="#c92a2a" stroke-width="1.5" fill="none"></path></g><g transform="translate(212.3533137368122 58.61053033893245) rotate(0 -17.337149539252323 55.00592041866261)"><path d="M-16.09 86.1 C-19.84 94.96, -27.77 99.41, -32.11 111.93" stroke="#c92a2a" stroke-width="1.5" fill="none"></path></g></g><mask></mask><g transform="translate(79.765625 103.626953125) rotate(0 29 12.5)"><text x="0" y="18" font-family="Virgil, Segoe UI Emoji" font-size="20px" fill="#087f5b" text-anchor="start" style="white-space: pre;" direction="ltr">t=100</text></g><g transform="translate(211.21484375 96.365234375) rotate(0 22 12.5)"><text x="0" y="18" font-family="Virgil, Segoe UI Emoji" font-size="20px" fill="#c92a2a" text-anchor="start" style="white-space: pre;" direction="ltr">t=10</text></g><g stroke-linecap="round"><g transform="translate(161.64054261798174 191.7080078125) rotate(0 -21.289858874576794 30.283767235949284)"><path d="M-0.63 0.19 C-7.55 10.35, -35.15 50.44, -41.95 60.38" stroke="#087f5b" stroke-width="1.5" fill="none" stroke-dasharray="8 9"></path></g><g transform="translate(161.64054261798174 191.7080078125) rotate(0 -21.289858874576794 30.283767235949284)"><path d="M-34.14 30.39 C-37.14 38.94, -40.06 44.83, -42.29 61.78" stroke="#087f5b" stroke-width="1.5" fill="none"></path></g><g transform="translate(161.64054261798174 191.7080078125) rotate(0 -21.289858874576794 30.283767235949284)"><path d="M-17.22 42 C-24.65 47.39, -32.04 50.21, -42.29 61.78" stroke="#087f5b" stroke-width="1.5" fill="none"></path></g></g><mask></mask><g stroke-linecap="round"><g transform="translate(178.435546875 175.3718189481354) rotate(0 19.361161091565236 36.08107248415769)"><path d="M-0.21 -1.16 C6.11 11.08, 32.39 61.03, 38.94 73.32" stroke="#c92a2a" stroke-width="1.5" fill="none" stroke-dasharray="8 9"></path></g><g transform="translate(178.435546875 175.3718189481354) rotate(0 19.361161091565236 36.08107248415769)"><path d="M14.75 54.11 C25.27 62.15, 32.63 67, 38.47 73.6" stroke="#c92a2a" stroke-width="1.5" fill="none"></path></g><g transform="translate(178.435546875 175.3718189481354) rotate(0 19.361161091565236 36.08107248415769)"><path d="M32.89 44.52 C36.41 56.22, 36.77 64.77, 38.47 73.6" stroke="#c92a2a" stroke-width="1.5" fill="none"></path></g></g><mask></mask><g transform="translate(61.025390625 238.2197265625) rotate(0 29 12.5)"><text x="0" y="18" font-family="Virgil, Segoe UI Emoji" font-size="20px" fill="#087f5b" text-anchor="start" style="white-space: pre;" direction="ltr">t=120</text></g><g transform="translate(194.091796875 250.2783203125) rotate(0 28 12.5)"><text x="0" y="18" font-family="Virgil, Segoe UI Emoji" font-size="20px" fill="#c92a2a" text-anchor="start" style="white-space: pre;" direction="ltr">t=105</text></g><g transform="translate(112.611328125 161.3056640625) rotate(0 29 12.5)"><text x="0" y="18" font-family="Virgil, Segoe UI Emoji" font-size="20px" fill="#087f5b" text-anchor="start" style="white-space: pre;" direction="ltr">t=100</text></g><g transform="translate(174.32820688077345 161.5179998509018) rotate(0 36.5 12.5)"><text x="0" y="18" font-family="Virgil, Segoe UI Emoji" font-size="20px" fill="#c92a2a" text-anchor="start" style="white-space: pre;" direction="ltr">, t=100</text></g></svg>