<svg version="1.1" xmlns="http://www.w3.org/2000/svg" viewBox="0 0 446.35288958045203 310.67443671725323" width="892.7057791609041" height="621.3488734345065">
  <!-- svg-source:excalidraw -->
  
  <defs>
    <style class="style-fonts">
      @font-face {
        font-family: "Virgil";
        src: url("https://excalidraw.com/Virgil.woff2");
      }
      @font-face {
        font-family: "Cascadia";
        src: url("https://excalidraw.com/Cascadia.woff2");
      }
    </style>
  </defs>
  <g stroke-linecap="round" transform="translate(69.56064492718224 12.73090416005914) rotate(0 24.146484375 22.99609375)"><path d="M29.6 -0.19 C34.54 0.48, 40.88 5.56, 43.95 9.56 C47.02 13.57, 48.45 19.15, 48.02 23.83 C47.59 28.5, 44.88 34.07, 41.38 37.64 C37.87 41.21, 32 44.48, 27.01 45.26 C22.02 46.03, 15.94 44.96, 11.46 42.29 C6.98 39.62, 1.82 34, 0.13 29.24 C-1.55 24.48, -0.74 18.32, 1.33 13.74 C3.39 9.15, 6.77 3.52, 12.54 1.74 C18.3 -0.04, 31.48 2.35, 35.92 3.05 C40.35 3.76, 39.3 5.72, 39.15 5.98 M22.68 -1.34 C27.24 -1.82, 33.98 2.33, 38.15 5.49 C42.33 8.65, 46.64 12.94, 47.71 17.62 C48.78 22.31, 47.11 28.91, 44.56 33.59 C42.01 38.28, 37.18 43.68, 32.42 45.71 C27.67 47.75, 20.95 47.7, 16.01 45.78 C11.07 43.86, 5.56 38.59, 2.79 34.2 C0.01 29.8, -1.35 24.35, -0.64 19.43 C0.06 14.51, 2.92 8.12, 7.02 4.7 C11.11 1.29, 21.17 -0.48, 23.92 -1.07 C26.66 -1.65, 23.5 0.79, 23.49 1.19" stroke="#087f5b" stroke-width="1" fill="none"></path></g><g transform="translate(86.70712930218224 23.22699791005914) rotate(0 7 12.5)"><text x="7" y="18" font-family="Virgil, Segoe UI Emoji" font-size="20px" fill="#087f5b" text-anchor="middle" style="white-space: pre;" direction="ltr">A</text></g><g stroke-linecap="round" transform="translate(171.3191090723376 10) rotate(0 24.146484375 22.99609375)"><path d="M35.29 2.81 C39.78 4.67, 44.01 9.09, 45.94 13.35 C47.87 17.61, 48.27 23.65, 46.86 28.34 C45.45 33.04, 41.62 38.58, 37.48 41.49 C33.34 44.4, 27.29 46.33, 22.02 45.81 C16.75 45.3, 9.6 42, 5.85 38.41 C2.09 34.82, -0.19 29.21, -0.49 24.26 C-0.79 19.3, 0.8 12.53, 4.05 8.69 C7.3 4.84, 13.39 1.94, 19 1.2 C24.61 0.47, 33.83 3.22, 37.71 4.29 C41.59 5.35, 42.42 7.12, 42.29 7.61 M28.68 1.28 C33.61 2.17, 40.19 4.81, 43.29 8.6 C46.39 12.38, 47.65 18.74, 47.27 23.98 C46.88 29.21, 44.46 36.22, 40.99 40 C37.52 43.78, 31.56 46.44, 26.42 46.65 C21.29 46.85, 14.54 44.12, 10.18 41.24 C5.82 38.36, 1.8 34.08, 0.27 29.35 C-1.26 24.62, -1.24 17.5, 1.02 12.86 C3.27 8.22, 9.03 3.44, 13.82 1.51 C18.6 -0.42, 27.06 1.5, 29.74 1.26 C32.43 1.01, 29.99 -0.07, 29.91 0.04" stroke="#c92a2a" stroke-width="1" fill="none"></path></g><g transform="translate(187.4655934473376 20.49609375) rotate(0 8 12.5)"><text x="8" y="18" font-family="Virgil, Segoe UI Emoji" font-size="20px" fill="#c92a2a" text-anchor="middle" style="white-space: pre;" direction="ltr">B</text></g><g stroke-linecap="round" transform="translate(267.3486328125 16.864654433168027) rotate(0 24.146484375 22.99609375)"><path d="M14.96 1.37 C19.23 -0.88, 26.29 -1.3, 31.21 0.2 C36.13 1.7, 41.62 6.01, 44.49 10.36 C47.36 14.7, 49.28 21.38, 48.41 26.25 C47.53 31.12, 43.27 36.35, 39.26 39.57 C35.25 42.8, 29.43 45.5, 24.32 45.61 C19.22 45.71, 12.49 43.13, 8.65 40.23 C4.8 37.32, 2.32 32.9, 1.23 28.18 C0.15 23.46, -1.14 16.55, 2.15 11.92 C5.43 7.29, 17.14 2.15, 20.94 0.39 C24.73 -1.36, 24.93 1.06, 24.92 1.38 M13.58 1.91 C17.82 -0.52, 24.16 -0.84, 29.02 0.67 C33.88 2.18, 39.69 6.84, 42.74 10.98 C45.8 15.12, 47.73 21.01, 47.36 25.49 C46.98 29.97, 44.09 34.54, 40.5 37.84 C36.9 41.15, 30.9 44.83, 25.79 45.31 C20.67 45.79, 13.8 43.56, 9.79 40.71 C5.79 37.86, 2.97 32.61, 1.75 28.21 C0.53 23.81, 0.39 18.8, 2.47 14.32 C4.55 9.85, 12.28 3.44, 14.24 1.36 C16.19 -0.72, 14.09 1.23, 14.22 1.86" stroke="#364fc7" stroke-width="1" fill="none"></path></g><g transform="translate(284.4951171875 27.360748183168027) rotate(0 7 12.5)"><text x="7" y="18" font-family="Virgil, Segoe UI Emoji" font-size="20px" fill="#364fc7" text-anchor="middle" style="white-space: pre;" direction="ltr">C</text></g><g stroke-linecap="round" transform="translate(350.33196531646445 18.066541285384233) rotate(0 24.146484375 22.99609375)"><path d="M29.56 -0.26 C34.41 0.56, 40.36 4.84, 43.53 8.99 C46.71 13.14, 49.1 19.71, 48.59 24.62 C48.09 29.53, 44.26 34.96, 40.51 38.44 C36.75 41.92, 31.12 45.04, 26.04 45.5 C20.97 45.96, 14.1 43.82, 10.04 41.2 C5.97 38.58, 3.09 34.41, 1.64 29.77 C0.2 25.14, -0.77 17.96, 1.38 13.39 C3.53 8.82, 9.25 4.15, 14.54 2.35 C19.84 0.55, 29.5 2.45, 33.14 2.59 C36.79 2.74, 36.71 3.08, 36.42 3.21 M29 0.66 C33.68 1.82, 39.67 6.83, 42.73 10.96 C45.79 15.09, 47.73 20.99, 47.36 25.46 C46.99 29.94, 44.11 34.52, 40.52 37.83 C36.92 41.13, 30.93 44.82, 25.81 45.31 C20.69 45.79, 13.82 43.56, 9.81 40.72 C5.8 37.87, 2.98 32.63, 1.75 28.23 C0.53 23.84, 0.39 18.82, 2.46 14.34 C4.54 9.87, 9.55 3.79, 14.21 1.37 C18.87 -1.05, 27.74 -0.26, 30.42 -0.18 C33.1 -0.1, 30.67 1.52, 30.29 1.86" stroke="#e67700" stroke-width="1" fill="none"></path></g><g transform="translate(365.97844969146445 28.562635035384233) rotate(0 8.5 12.5)"><text x="8.5" y="18" font-family="Virgil, Segoe UI Emoji" font-size="20px" fill="#e67700" text-anchor="middle" style="white-space: pre;" direction="ltr">D</text></g><g transform="translate(2.5 108.74551380816803) rotate(270 20 12.5)"><text x="0" y="18" font-family="Virgil, Segoe UI Emoji" font-size="20px" fill="#000000" text-anchor="start" style="white-space: pre;" direction="ltr">time</text></g><g stroke-linecap="round"><g transform="translate(44.0234375 105.00723255816803) rotate(0 1.3699114468563494 24.565113159231842)"><path d="M-0.32 -0.61 C-0.26 7.49, 0.63 40.06, 0.92 48.33 M1.72 1.68 C2.07 10, 3.26 42.21, 3.02 49.74" stroke="#000000" stroke-width="1" fill="none"></path></g><g transform="translate(44.0234375 105.00723255816803) rotate(0 1.3699114468563494 24.565113159231842)"><path d="M-6.51 25.06 C-2.97 33.86, 1.13 42.8, 1.11 48.57 M-6.31 27.71 C-2.98 31.87, -1.59 39.1, 3.08 49.65" stroke="#000000" stroke-width="1" fill="none"></path></g><g transform="translate(44.0234375 105.00723255816803) rotate(0 1.3699114468563494 24.565113159231842)"><path d="M10.11 24.91 C7.85 33.72, 6.14 42.71, 1.11 48.57 M10.31 27.56 C9.57 31.67, 6.88 38.93, 3.08 49.65" stroke="#000000" stroke-width="1" fill="none"></path></g></g><mask></mask><g stroke-linecap="round"><g transform="translate(92.81224211469544 63.41114060559316) rotate(0 26.073105808592118 21.98261650803504)"><path d="M0.01 -0.75 C8.68 6.82, 43.52 37.04, 52.13 44.72" stroke="#087f5b" stroke-width="1.5" fill="none" stroke-dasharray="8 9"></path></g><g transform="translate(92.81224211469544 63.41114060559316) rotate(0 26.073105808592118 21.98261650803504)"><path d="M22.92 33.46 C31.04 36.16, 40.74 40.9, 50.6 43.04" stroke="#087f5b" stroke-width="1.5" fill="none"></path></g><g transform="translate(92.81224211469544 63.41114060559316) rotate(0 26.073105808592118 21.98261650803504)"><path d="M36.45 18.03 C40.25 25.56, 45.72 35.12, 50.6 43.04" stroke="#087f5b" stroke-width="1.5" fill="none"></path></g></g><mask></mask><g stroke-linecap="round"><g transform="translate(188.62646082537094 59.53299075822693) rotate(0 -23.134681353346195 24.012383767989007)"><path d="M-1.13 0.05 C-8.63 8.17, -37.7 39.71, -45.13 47.97" stroke="#c92a2a" stroke-width="1.5" fill="none" stroke-dasharray="8 9"></path></g><g transform="translate(188.62646082537094 59.53299075822693) rotate(0 -23.134681353346195 24.012383767989007)"><path d="M-33.63 19.76 C-38.03 26.64, -38.59 37.41, -45.45 46.77" stroke="#c92a2a" stroke-width="1.5" fill="none"></path></g><g transform="translate(188.62646082537094 59.53299075822693) rotate(0 -23.134681353346195 24.012383767989007)"><path d="M-18.47 33.59 C-27.15 36.34, -32.09 43.11, -45.45 46.77" stroke="#c92a2a" stroke-width="1.5" fill="none"></path></g></g><mask></mask><g stroke-linecap="round"><g transform="translate(143.90539680625943 108.4623987777941) rotate(0 42.89352985445839 29.546594452159084)"><path d="M0.04 -0.29 C14.5 9.58, 71.37 49.32, 85.75 59.38" stroke="#c92a2a" stroke-width="1.5" fill="none" stroke-dasharray="8 9"></path></g><g transform="translate(143.90539680625943 108.4623987777941) rotate(0 42.89352985445839 29.546594452159084)"><path d="M56.29 52.13 C63.53 54.71, 70.98 53.96, 85.12 58.24" stroke="#c92a2a" stroke-width="1.5" fill="none"></path></g><g transform="translate(143.90539680625943 108.4623987777941) rotate(0 42.89352985445839 29.546594452159084)"><path d="M68.04 35.31 C72.76 41.54, 77.66 44.43, 85.12 58.24" stroke="#c92a2a" stroke-width="1.5" fill="none"></path></g></g><mask></mask><g stroke-linecap="round"><g transform="translate(285.9484551571627 66.86573615838373) rotate(0 -26.449262434078037 49.59653361435362)"><path d="M-0.27 0.87 C-8.93 17.31, -43.57 82.15, -52.63 98.33" stroke="#364fc7" stroke-width="1.5" fill="none" stroke-dasharray="8 9"></path></g><g transform="translate(285.9484551571627 66.86573615838373) rotate(0 -26.449262434078037 49.59653361435362)"><path d="M-46.7 70.59 C-50.25 74.51, -52.03 81.8, -53.4 97.86" stroke="#364fc7" stroke-width="1.5" fill="none"></path></g><g transform="translate(285.9484551571627 66.86573615838373) rotate(0 -26.449262434078037 49.59653361435362)"><path d="M-28.68 80.41 C-36.61 81.89, -42.8 86.77, -53.4 97.86" stroke="#364fc7" stroke-width="1.5" fill="none"></path></g></g><mask></mask><g stroke-linecap="round"><g transform="translate(232.14350617327455 166.8491611945673) rotate(0 23.283741060181228 23.934153960584105)"><path d="M1.05 -0.14 C8.81 7.8, 38.26 39.78, 45.52 48.01" stroke="#364fc7" stroke-width="1.5" fill="none" stroke-dasharray="8 9"></path></g><g transform="translate(232.14350617327455 166.8491611945673) rotate(0 23.283741060181228 23.934153960584105)"><path d="M18.77 35.87 C23.62 37.08, 31.2 40.12, 45.82 48.79" stroke="#364fc7" stroke-width="1.5" fill="none"></path></g><g transform="translate(232.14350617327455 166.8491611945673) rotate(0 23.283741060181228 23.934153960584105)"><path d="M33.98 22.1 C35.7 26.33, 40.09 32.25, 45.82 48.79" stroke="#364fc7" stroke-width="1.5" fill="none"></path></g></g><mask></mask><g stroke-linecap="round"><g transform="translate(371.16699210748266 63.72072833162969) rotate(0 0.6148379768515042 81.29434514116794)"><path d="M1.14 0.82 C1.02 27.89, 0.49 134.73, 0.09 161.77" stroke="#e67700" stroke-width="1.5" fill="none" stroke-dasharray="8 9"></path></g><g transform="translate(371.16699210748266 63.72072833162969) rotate(0 0.6148379768515042 81.29434514116794)"><path d="M-8.55 135.4 C-7.82 143.56, -1.94 154.99, 0.36 161.04" stroke="#e67700" stroke-width="1.5" fill="none"></path></g><g transform="translate(371.16699210748266 63.72072833162969) rotate(0 0.6148379768515042 81.29434514116794)"><path d="M11.97 135.59 C5.09 143.87, 3.36 155.23, 0.36 161.04" stroke="#e67700" stroke-width="1.5" fill="none"></path></g></g><mask></mask><g stroke-linecap="round"><g transform="translate(127.70415632224513 137.5781352959486) rotate(0 -14.099501116970032 36.58478476733295)"><path d="M0.58 -0.76 C-4.37 11.56, -23.87 61.37, -28.78 73.93" stroke="#087f5b" stroke-width="1.5" fill="none" stroke-dasharray="8 9"></path></g><g transform="translate(127.70415632224513 137.5781352959486) rotate(0 -14.099501116970032 36.58478476733295)"><path d="M-29.34 42.41 C-29.32 53.57, -28.41 64.64, -27.2 75.52" stroke="#087f5b" stroke-width="1.5" fill="none"></path></g><g transform="translate(127.70415632224513 137.5781352959486) rotate(0 -14.099501116970032 36.58478476733295)"><path d="M-10.23 49.89 C-17.4 58.33, -23.7 66.57, -27.2 75.52" stroke="#087f5b" stroke-width="1.5" fill="none"></path></g></g><mask></mask><g stroke-linecap="round"><g transform="translate(228.04062794243328 171.9182710752201) rotate(0 -20.085261585149283 26.331346973727612)"><path d="M-0.79 0.06 C-7.55 8.98, -32.94 43.74, -39.38 52.61" stroke="#c92a2a" stroke-width="1.5" fill="none" stroke-dasharray="8 9"></path></g><g transform="translate(228.04062794243328 171.9182710752201) rotate(0 -20.085261585149283 26.331346973727612)"><path d="M-30.97 22.08 C-34.98 33.46, -37.23 48.43, -39.96 53.4" stroke="#c92a2a" stroke-width="1.5" fill="none"></path></g><g transform="translate(228.04062794243328 171.9182710752201) rotate(0 -20.085261585149283 26.331346973727612)"><path d="M-14.39 34.17 C-24.91 40.63, -33.76 50.78, -39.96 53.4" stroke="#c92a2a" stroke-width="1.5" fill="none"></path></g></g><mask></mask><g transform="translate(56.08692590198734 59.35997223409183) rotate(0 17.5 10)"><text x="0" y="14" font-family="Virgil, Segoe UI Emoji" font-size="16px" fill="#087f5b" text-anchor="start" style="white-space: pre;" direction="ltr">t=10</text></g><g transform="translate(192.92265443867973 58.69937378906556) rotate(0 15 10)"><text x="0" y="14" font-family="Virgil, Segoe UI Emoji" font-size="16px" fill="#c92a2a" text-anchor="start" style="white-space: pre;" direction="ltr">t=5</text></g><g transform="translate(291.5992705664298 65.81270186132505) rotate(0 15.5 10)"><text x="0" y="14" font-family="Virgil, Segoe UI Emoji" font-size="16px" fill="#364fc7" text-anchor="start" style="white-space: pre;" direction="ltr">t=0</text></g><g transform="translate(392.273730679849 60.11793424464281) rotate(0 17 10)"><text x="0" y="14" font-family="Virgil, Segoe UI Emoji" font-size="16px" fill="#e67700" text-anchor="start" style="white-space: pre;" direction="ltr">t=15</text></g><g transform="translate(93.17185507206159 103.56647964528904) rotate(0 17.5 10)"><text x="0" y="14" font-family="Virgil, Segoe UI Emoji" font-size="16px" fill="#087f5b" text-anchor="start" style="white-space: pre;" direction="ltr">t=10</text></g><g transform="translate(164.4469500855448 101.01671985536086) rotate(0 17.5 10)"><text x="0" y="14" font-family="Virgil, Segoe UI Emoji" font-size="16px" fill="#c92a2a" text-anchor="start" style="white-space: pre;" direction="ltr">t=10</text></g><g transform="translate(175.48029050901096 156.34513891051168) rotate(0 20.5 10)"><text x="0" y="14" font-family="Virgil, Segoe UI Emoji" font-size="16px" fill="#c92a2a" text-anchor="start" style="white-space: pre;" direction="ltr">t=50</text></g><g transform="translate(243.27458405072684 155.50814262884478) rotate(0 20.5 10)"><text x="0" y="14" font-family="Virgil, Segoe UI Emoji" font-size="16px" fill="#364fc7" text-anchor="start" style="white-space: pre;" direction="ltr">t=50</text></g><g transform="translate(391.35288958045203 211.552683843242) rotate(0 22.5 10)"><text x="0" y="14" font-family="Virgil, Segoe UI Emoji" font-size="16px" fill="#e67700" text-anchor="start" style="white-space: pre;" direction="ltr">t=150</text></g><g transform="translate(163.3554345881671 228.9631187594425) rotate(0 20 10)"><text x="0" y="14" font-family="Virgil, Segoe UI Emoji" font-size="16px" fill="#c92a2a" text-anchor="start" style="white-space: pre;" direction="ltr">t=70</text></g><g transform="translate(259.2587878317013 219.83370155096057) rotate(0 20.5 10)"><text x="0" y="14" font-family="Virgil, Segoe UI Emoji" font-size="16px" fill="#364fc7" text-anchor="start" style="white-space: pre;" direction="ltr">t=90</text></g><g transform="translate(53.70759442365488 203.75288198138648) rotate(0 21 10)"><text x="0" y="14" font-family="Virgil, Segoe UI Emoji" font-size="16px" fill="#087f5b" text-anchor="start" style="white-space: pre;" direction="ltr">t=20</text></g><g stroke-linecap="round"><g transform="translate(100.7670189650321 212.92322438787807) rotate(0 17.048999525606405 33.20612433091823)"><path d="M-0.55 -0.64 C5.11 10.38, 28.46 55.53, 34.65 67.05" stroke="#087f5b" stroke-width="1.5" fill="none" stroke-dasharray="8 9"></path></g><g transform="translate(100.7670189650321 212.92322438787807) rotate(0 17.048999525606405 33.20612433091823)"><path d="M11.38 45.28 C19.36 55.82, 29.73 63.06, 33.84 65.8" stroke="#087f5b" stroke-width="1.5" fill="none"></path></g><g transform="translate(100.7670189650321 212.92322438787807) rotate(0 17.048999525606405 33.20612433091823)"><path d="M29.55 35.73 C31.11 49.6, 34.99 60.25, 33.84 65.8" stroke="#087f5b" stroke-width="1.5" fill="none"></path></g></g><mask></mask><g stroke-linecap="round"><g transform="translate(184.3615562092641 249.9631187594425) rotate(0 -23.155230571556785 14.190785245736627)"><path d="M-0.39 -1.08 C-8.01 3.78, -38.13 24.56, -45.92 29.46" stroke="#c92a2a" stroke-width="1.5" fill="none" stroke-dasharray="8 9"></path></g><g transform="translate(184.3615562092641 249.9631187594425) rotate(0 -23.155230571556785 14.190785245736627)"><path d="M-31.5 8.13 C-33.37 12.27, -39.77 18.45, -45.55 30.48" stroke="#c92a2a" stroke-width="1.5" fill="none"></path></g><g transform="translate(184.3615562092641 249.9631187594425) rotate(0 -23.155230571556785 14.190785245736627)"><path d="M-21.18 23.69 C-25.99 23.41, -35.31 25.21, -45.55 30.48" stroke="#c92a2a" stroke-width="1.5" fill="none"></path></g></g><mask></mask><g transform="translate(93.560352783893 279.65498893004576) rotate(0 20 10)"><text x="0" y="14" font-family="Virgil, Segoe UI Emoji" font-size="16px" fill="#087f5b" text-anchor="start" style="white-space: pre;" direction="ltr">t=70</text></g><g transform="translate(145.9637838261042 280.67443671725323) rotate(0 20 10)"><text x="0" y="14" font-family="Virgil, Segoe UI Emoji" font-size="16px" fill="#c92a2a" text-anchor="start" style="white-space: pre;" direction="ltr">t=70</text></g></svg>